<svg version="1.1" xmlns="http://www.w3.org/2000/svg" viewBox="0 0 709.0316305238177 109.64122379536605" width="1418.0632610476355" height="219.2824475907321">
  <!-- svg-source:excalidraw -->
  
  <defs>
    <style class="style-fonts">
      @font-face {
        font-family: "Virgil";
        src: url("https://excalidraw.com/Virgil.woff2");
      }
      @font-face {
        font-family: "Cascadia";
        src: url("https://excalidraw.com/Cascadia.woff2");
      }
    </style>
  </defs>
  <rect x="0" y="0" width="709.0316305238177" height="109.64122379536605" fill="#ffffff"></rect><g transform="translate(30.07330605568285 36.90196967091302) rotate(0 99.20442199707031 17.5)"><text x="0" y="0" font-family="Virgil, Segoe UI Emoji" font-size="28px" fill="#f08c00" text-anchor="start" style="white-space: pre;" direction="ltr" dominant-baseline="text-before-edge">Overconfidence</text></g><g transform="translate(587.5445100160134 33.036984835396396) rotate(0 48.790199279785156 17.5)"><text x="0" y="0" font-family="Virgil, Segoe UI Emoji" font-size="28px" fill="#e03131" text-anchor="start" style="white-space: pre;" direction="ltr" dominant-baseline="text-before-edge">Anxiety</text></g><g stroke-linecap="round" transform="translate(386.7887298896164 49.40920901596061) rotate(0 8.377355310949383 8.377355310949383)"><path d="M11.03 1.22 C12.43 1.7, 14.11 2.73, 15 4.21 C15.89 5.69, 16.72 8.22, 16.37 10.09 C16.02 11.96, 14.19 14.27, 12.89 15.43 C11.59 16.6, 10.3 17.1, 8.56 17.07 C6.83 17.04, 3.89 16.58, 2.48 15.23 C1.07 13.88, 0.25 10.88, 0.1 8.97 C-0.06 7.06, 0.65 5.36, 1.55 3.78 C2.44 2.2, 3.58 -0.26, 5.47 -0.51 C7.36 -0.76, 11.24 1.49, 12.87 2.29 C14.49 3.1, 15.34 4.45, 15.21 4.32 M5.9 -0.47 C7.48 -0.82, 9.06 0.91, 10.87 1.86 C12.68 2.82, 15.76 3.71, 16.76 5.25 C17.76 6.8, 17.55 9.64, 16.88 11.11 C16.21 12.59, 14.45 13.02, 12.74 14.09 C11.04 15.16, 8.61 17.52, 6.68 17.54 C4.75 17.55, 2.42 15.49, 1.19 14.21 C-0.04 12.92, -0.58 11.82, -0.71 9.84 C-0.85 7.85, -0.95 3.83, 0.39 2.3 C1.74 0.78, 6.4 0.99, 7.35 0.69 C8.31 0.38, 6.5 0.45, 6.13 0.48" stroke="#2f9e44" stroke-width="1" fill="none"></path></g><g transform="translate(339.58785618042833 10) rotate(0 61.54994201660156 12.5)"><text x="0" y="0" font-family="Virgil, Segoe UI Emoji" font-size="20px" fill="#2f9e44" text-anchor="start" style="white-space: pre;" direction="ltr" dominant-baseline="text-before-edge">"Competence"</text></g><g stroke-linecap="round"><g transform="translate(416.6320234530005 57.422420866404764) rotate(0 76.20255534828073 -1.233067928921045)"><path d="M-0.99 -0.7 C24.16 -1.29, 125.65 -3.5, 151.29 -4.01 M0.69 1.55 C26.16 1.15, 128.12 -2.07, 153.39 -2.77" stroke="#e03131" stroke-width="1" fill="none"></path></g><g transform="translate(416.6320234530005 57.422420866404764) rotate(0 76.20255534828073 -1.233067928921045)"><path d="M124.35 6.38 C133.9 5.54, 143.55 -0.06, 153.98 -3.26 M124.59 7.91 C135.14 5.04, 142.77 0.62, 153.98 -2.56" stroke="#e03131" stroke-width="1" fill="none"></path></g><g transform="translate(416.6320234530005 57.422420866404764) rotate(0 76.20255534828073 -1.233067928921045)"><path d="M123.74 -14.13 C133.42 -8.14, 143.27 -6.91, 153.98 -3.26 M123.98 -12.6 C134.89 -8.97, 142.71 -6.9, 153.98 -2.56" stroke="#e03131" stroke-width="1" fill="none"></path></g></g><mask></mask><g stroke-linecap="round"><g transform="translate(369.67753606299635 60.46018836231937) rotate(0 -60.47522591708292 -0.929002497177251)"><path d="M-0.34 0.93 C-20.43 0.52, -101.26 -2.11, -121.64 -2.79 M1.68 0.38 C-18.48 0.17, -102.3 -0.98, -122.63 -1.41" stroke="#f08c00" stroke-width="1" fill="none"></path></g><g transform="translate(369.67753606299635 60.46018836231937) rotate(0 -60.47522591708292 -0.929002497177251)"><path d="M-92.72 -11.33 C-100.76 -11, -107.35 -8.48, -121.11 -1.54 M-95.03 -10.45 C-101.42 -8.42, -109.91 -4.7, -123.44 -1.32" stroke="#f08c00" stroke-width="1" fill="none"></path></g><g transform="translate(369.67753606299635 60.46018836231937) rotate(0 -60.47522591708292 -0.929002497177251)"><path d="M-93.06 9.18 C-100.98 5.2, -107.49 3.41, -121.11 -1.54 M-95.38 10.06 C-101.84 6.3, -110.23 4.21, -123.44 -1.32" stroke="#f08c00" stroke-width="1" fill="none"></path></g></g><mask></mask><g stroke-linecap="round" transform="translate(10 13.64257096901963) rotate(0 113.88306450034347 42.99932641317321)"><path d="M21.5 0 M21.5 0 C66.94 -0.07, 111.36 0.23, 206.27 0 M21.5 0 C59.85 2.37, 97.43 1.64, 206.27 0 M206.27 0 C220.82 1.93, 226.28 5.71, 227.77 21.5 M206.27 0 C220.28 -0.04, 229.89 5.01, 227.77 21.5 M227.77 21.5 C228.94 32.57, 228.3 43.46, 227.77 64.5 M227.77 21.5 C226.85 34.67, 227.79 46.92, 227.77 64.5 M227.77 64.5 C229.63 79.56, 220.73 84.5, 206.27 86 M227.77 64.5 C227.98 80.23, 219.25 85.53, 206.27 86 M206.27 86 C150.53 83.51, 98.55 86.02, 21.5 86 M206.27 86 C155.56 87.12, 107.07 86.95, 21.5 86 M21.5 86 C6.16 85.1, 0.59 79.29, 0 64.5 M21.5 86 C5.87 85.32, 1.02 80.01, 0 64.5 M0 64.5 C-2.39 50.14, -1.16 36.27, 0 21.5 M0 64.5 C0.77 48.73, 0.36 35.53, 0 21.5 M0 21.5 C0.76 7.02, 7.48 -1.17, 21.5 0 M0 21.5 C-0.84 9.17, 7.58 1.82, 21.5 0" stroke="#1e1e1e" stroke-width="1" fill="none"></path></g><g stroke-linecap="round" transform="translate(577.069904697363 16.248590751636186) rotate(0 60.980862913227384 33.6176551957536)"><path d="M16.81 0 M16.81 0 C46.73 1.88, 75.11 0.25, 105.15 0 M16.81 0 C41.73 -0.25, 68.52 1.01, 105.15 0 M105.15 0 C115.77 -0.54, 123.15 4.09, 121.96 16.81 M105.15 0 C116.42 1.6, 121.63 4.45, 121.96 16.81 M121.96 16.81 C120.94 24.79, 122.94 34.97, 121.96 50.43 M121.96 16.81 C121.28 28.77, 121.89 40.98, 121.96 50.43 M121.96 50.43 C122.93 61.27, 114.73 68.61, 105.15 67.24 M121.96 50.43 C120.14 62.28, 118.64 68.11, 105.15 67.24 M105.15 67.24 C78.55 68.46, 53.76 68.3, 16.81 67.24 M105.15 67.24 C79.59 67.13, 52.88 68.53, 16.81 67.24 M16.81 67.24 C5.09 68.38, 1.25 60.74, 0 50.43 M16.81 67.24 C7.74 66.57, -1.25 61.42, 0 50.43 M0 50.43 C-1.64 37.61, -0.94 26.56, 0 16.81 M0 50.43 C0.62 39.35, -1 27.49, 0 16.81 M0 16.81 C0.06 6.52, 7.49 -1.69, 16.81 0 M0 16.81 C-1.62 5.71, 3.37 1.86, 16.81 0" stroke="#1e1e1e" stroke-width="1" fill="none"></path></g></svg>