<?xml version="1.0" encoding="utf-8" standalone="no"?>
<!DOCTYPE svg PUBLIC "-//W3C//DTD SVG 1.1//EN"
  "http://www.w3.org/Graphics/SVG/1.1/DTD/svg11.dtd">
<svg xmlns:xlink="http://www.w3.org/1999/xlink" width="460.8pt" height="345.6pt" viewBox="0 0 460.8 345.6" xmlns="http://www.w3.org/2000/svg" version="1.1">
 <metadata>
  <rdf:RDF xmlns:dc="http://purl.org/dc/elements/1.1/" xmlns:cc="http://creativecommons.org/ns#" xmlns:rdf="http://www.w3.org/1999/02/22-rdf-syntax-ns#">
   <cc:Work>
    <dc:type rdf:resource="http://purl.org/dc/dcmitype/StillImage"/>
    <dc:date>2023-06-14T17:12:31.746104</dc:date>
    <dc:format>image/svg+xml</dc:format>
    <dc:creator>
     <cc:Agent>
      <dc:title>Matplotlib v3.7.1, https://matplotlib.org/</dc:title>
     </cc:Agent>
    </dc:creator>
   </cc:Work>
  </rdf:RDF>
 </metadata>
 <defs>
  <style type="text/css">*{stroke-linejoin: round; stroke-linecap: butt}</style>
 </defs>
 <g id="figure_1">
  <g id="patch_1">
   <path d="M 0 345.6 
L 460.8 345.6 
L 460.8 0 
L 0 0 
z
" style="fill: #ffffff"/>
  </g>
  <g id="axes_1">
   <g id="patch_2">
    <path d="M 57.6 307.584 
L 414.72 307.584 
L 414.72 41.472 
L 57.6 41.472 
z
" style="fill: #ffffff"/>
   </g>
   <g id="PathCollection_1">
    <defs>
     <path id="C0_0_2b575ee87c" d="M 0 0.5 
C 0.132602 0.5 0.25979 0.447317 0.353553 0.353553 
C 0.447317 0.25979 0.5 0.132602 0.5 -0 
C 0.5 -0.132602 0.447317 -0.25979 0.353553 -0.353553 
C 0.25979 -0.447317 0.132602 -0.5 0 -0.5 
C -0.132602 -0.5 -0.25979 -0.447317 -0.353553 -0.353553 
C -0.447317 -0.25979 -0.5 -0.132602 -0.5 0 
C -0.5 0.132602 -0.447317 0.25979 -0.353553 0.353553 
C -0.25979 0.447317 -0.132602 0.5 0 0.5 
z
"/>
    </defs>
    <g clip-path="url(#pb902a08cfe)">
     <use xlink:href="#C0_0_2b575ee87c" x="74.457712" y="124.019041" style="fill: #380962; stroke: #380962"/>
    </g>
    <g clip-path="url(#pb902a08cfe)">
     <use xlink:href="#C0_0_2b575ee87c" x="94.676032" y="98.909654" style="fill: #0a0722; stroke: #0a0722"/>
    </g>
    <g clip-path="url(#pb902a08cfe)">
     <use xlink:href="#C0_0_2b575ee87c" x="95.686729" y="98.71166" style="fill: #010106; stroke: #010106"/>
    </g>
    <g clip-path="url(#pb902a08cfe)">
     <use xlink:href="#C0_0_2b575ee87c" x="112.245816" y="146.381532" style="fill: #5d126e; stroke: #5d126e"/>
    </g>
    <g clip-path="url(#pb902a08cfe)">
     <use xlink:href="#C0_0_2b575ee87c" x="112.138728" y="146.620194" style="fill: #e05536; stroke: #e05536"/>
    </g>
    <g clip-path="url(#pb902a08cfe)">
     <use xlink:href="#C0_0_2b575ee87c" x="112.497516" y="146.178895" style="fill: #02020c; stroke: #02020c"/>
    </g>
    <g clip-path="url(#pb902a08cfe)">
     <use xlink:href="#C0_0_2b575ee87c" x="112.177695" y="146.957923" style="fill: #ea632a; stroke: #ea632a"/>
    </g>
    <g clip-path="url(#pb902a08cfe)">
     <use xlink:href="#C0_0_2b575ee87c" x="112.324616" y="147.394719" style="fill: #390963; stroke: #390963"/>
    </g>
    <g clip-path="url(#pb902a08cfe)">
     <use xlink:href="#C0_0_2b575ee87c" x="115.966617" y="96.947167" style="fill: #010108; stroke: #010108"/>
    </g>
    <g clip-path="url(#pb902a08cfe)">
     <use xlink:href="#C0_0_2b575ee87c" x="121.283634" y="157.887956" style="fill: #000004; stroke: #000004"/>
    </g>
    <g clip-path="url(#pb902a08cfe)">
     <use xlink:href="#C0_0_2b575ee87c" x="120.066699" y="159.679186" style="fill: #040314; stroke: #040314"/>
    </g>
    <g clip-path="url(#pb902a08cfe)">
     <use xlink:href="#C0_0_2b575ee87c" x="121.196318" y="158.421427" style="fill: #02020c; stroke: #02020c"/>
    </g>
    <g clip-path="url(#pb902a08cfe)">
     <use xlink:href="#C0_0_2b575ee87c" x="120.582078" y="159.315986" style="fill: #0e092b; stroke: #0e092b"/>
    </g>
    <g clip-path="url(#pb902a08cfe)">
     <use xlink:href="#C0_0_2b575ee87c" x="120.960783" y="158.909586" style="fill: #09061f; stroke: #09061f"/>
    </g>
    <g clip-path="url(#pb902a08cfe)">
     <use xlink:href="#C0_0_2b575ee87c" x="143.12741" y="148.592109" style="fill: #02010a; stroke: #02010a"/>
    </g>
    <g clip-path="url(#pb902a08cfe)">
     <use xlink:href="#C0_0_2b575ee87c" x="143.586935" y="148.189789" style="fill: #010108; stroke: #010108"/>
    </g>
    <g clip-path="url(#pb902a08cfe)">
     <use xlink:href="#C0_0_2b575ee87c" x="168.193927" y="118.000765" style="fill: #02010a; stroke: #02010a"/>
    </g>
    <g clip-path="url(#pb902a08cfe)">
     <use xlink:href="#C0_0_2b575ee87c" x="168.617083" y="117.76731" style="fill: #140b34; stroke: #140b34"/>
    </g>
    <g clip-path="url(#pb902a08cfe)">
     <use xlink:href="#C0_0_2b575ee87c" x="168.929543" y="117.416213" style="fill: #3b0964; stroke: #3b0964"/>
    </g>
    <g clip-path="url(#pb902a08cfe)">
     <use xlink:href="#C0_0_2b575ee87c" x="169.127699" y="116.988141" style="fill: #390963; stroke: #390963"/>
    </g>
    <g clip-path="url(#pb902a08cfe)">
     <use xlink:href="#C0_0_2b575ee87c" x="169.058857" y="115.922184" style="fill: #0c0826; stroke: #0c0826"/>
    </g>
    <g clip-path="url(#pb902a08cfe)">
     <use xlink:href="#C0_0_2b575ee87c" x="169.171285" y="116.488021" style="fill: #230c4c; stroke: #230c4c"/>
    </g>
    <g clip-path="url(#pb902a08cfe)">
     <use xlink:href="#C0_0_2b575ee87c" x="174.767856" y="108.281912" style="fill: #fcffa4; stroke: #fcffa4"/>
    </g>
    <g clip-path="url(#pb902a08cfe)">
     <use xlink:href="#C0_0_2b575ee87c" x="174.844203" y="108.638638" style="fill: #932667; stroke: #932667"/>
    </g>
    <g clip-path="url(#pb902a08cfe)">
     <use xlink:href="#C0_0_2b575ee87c" x="174.785031" y="108.022424" style="fill: #f9c932; stroke: #f9c932"/>
    </g>
    <g clip-path="url(#pb902a08cfe)">
     <use xlink:href="#C0_0_2b575ee87c" x="175.042071" y="109.05897" style="fill: #08051d; stroke: #08051d"/>
    </g>
    <g clip-path="url(#pb902a08cfe)">
     <use xlink:href="#C0_0_2b575ee87c" x="174.930942" y="107.829355" style="fill: #982766; stroke: #982766"/>
    </g>
    <g clip-path="url(#pb902a08cfe)">
     <use xlink:href="#C0_0_2b575ee87c" x="175.201259" y="107.707632" style="fill: #10092d; stroke: #10092d"/>
    </g>
    <g clip-path="url(#pb902a08cfe)">
     <use xlink:href="#C0_0_2b575ee87c" x="189.159062" y="134.762532" style="fill: #000004; stroke: #000004"/>
    </g>
    <g clip-path="url(#pb902a08cfe)">
     <use xlink:href="#C0_0_2b575ee87c" x="189.458244" y="134.161375" style="fill: #09061f; stroke: #09061f"/>
    </g>
    <g clip-path="url(#pb902a08cfe)">
     <use xlink:href="#C0_0_2b575ee87c" x="189.823527" y="133.671668" style="fill: #0a0722; stroke: #0a0722"/>
    </g>
    <g clip-path="url(#pb902a08cfe)">
     <use xlink:href="#C0_0_2b575ee87c" x="190.274248" y="133.330562" style="fill: #02020e; stroke: #02020e"/>
    </g>
    <g clip-path="url(#pb902a08cfe)">
     <use xlink:href="#C0_0_2b575ee87c" x="282.980224" y="189.839081" style="fill: #02020e; stroke: #02020e"/>
    </g>
    <g clip-path="url(#pb902a08cfe)">
     <use xlink:href="#C0_0_2b575ee87c" x="283.050798" y="190.392956" style="fill: #010108; stroke: #010108"/>
    </g>
    <g clip-path="url(#pb902a08cfe)">
     <use xlink:href="#C0_0_2b575ee87c" x="285.694658" y="211.441629" style="fill: #02020e; stroke: #02020e"/>
    </g>
    <g clip-path="url(#pb902a08cfe)">
     <use xlink:href="#C0_0_2b575ee87c" x="286.146968" y="211.346502" style="fill: #0d0829; stroke: #0d0829"/>
    </g>
    <g clip-path="url(#pb902a08cfe)">
     <use xlink:href="#C0_0_2b575ee87c" x="286.617318" y="211.108403" style="fill: #0e092b; stroke: #0e092b"/>
    </g>
    <g clip-path="url(#pb902a08cfe)">
     <use xlink:href="#C0_0_2b575ee87c" x="287.10643" y="210.739293" style="fill: #000004; stroke: #000004"/>
    </g>
    <g clip-path="url(#pb902a08cfe)">
     <use xlink:href="#C0_0_2b575ee87c" x="296.326673" y="203.268167" style="fill: #02020c; stroke: #02020c"/>
    </g>
    <g clip-path="url(#pb902a08cfe)">
     <use xlink:href="#C0_0_2b575ee87c" x="296.769457" y="203.467005" style="fill: #180c3c; stroke: #180c3c"/>
    </g>
    <g clip-path="url(#pb902a08cfe)">
     <use xlink:href="#C0_0_2b575ee87c" x="297.046413" y="203.753512" style="fill: #5f136e; stroke: #5f136e"/>
    </g>
    <g clip-path="url(#pb902a08cfe)">
     <use xlink:href="#C0_0_2b575ee87c" x="297.161872" y="204.160616" style="fill: #982766; stroke: #982766"/>
    </g>
    <g clip-path="url(#pb902a08cfe)">
     <use xlink:href="#C0_0_2b575ee87c" x="297.184819" y="204.682688" style="fill: #3b0964; stroke: #3b0964"/>
    </g>
    <g clip-path="url(#pb902a08cfe)">
     <use xlink:href="#C0_0_2b575ee87c" x="297.092308" y="205.275543" style="fill: #000004; stroke: #000004"/>
    </g>
    <g clip-path="url(#pb902a08cfe)">
     <use xlink:href="#C0_0_2b575ee87c" x="296.74954" y="229.868681" style="fill: #010005; stroke: #010005"/>
    </g>
    <g clip-path="url(#pb902a08cfe)">
     <use xlink:href="#C0_0_2b575ee87c" x="300.582625" y="222.141866" style="fill: #0c0826; stroke: #0c0826"/>
    </g>
    <g clip-path="url(#pb902a08cfe)">
     <use xlink:href="#C0_0_2b575ee87c" x="300.188766" y="223.127471" style="fill: #110a30; stroke: #110a30"/>
    </g>
    <g clip-path="url(#pb902a08cfe)">
     <use xlink:href="#C0_0_2b575ee87c" x="300.429353" y="222.614686" style="fill: #360961; stroke: #360961"/>
    </g>
    <g clip-path="url(#pb902a08cfe)">
     <use xlink:href="#C0_0_2b575ee87c" x="296.974973" y="230.418897" style="fill: #050417; stroke: #050417"/>
    </g>
    <g clip-path="url(#pb902a08cfe)">
     <use xlink:href="#C0_0_2b575ee87c" x="297.352812" y="230.933934" style="fill: #010005; stroke: #010005"/>
    </g>
    <g clip-path="url(#pb902a08cfe)">
     <use xlink:href="#C0_0_2b575ee87c" x="325.594587" y="219.474651" style="fill: #02020c; stroke: #02020c"/>
    </g>
    <g clip-path="url(#pb902a08cfe)">
     <use xlink:href="#C0_0_2b575ee87c" x="326.039536" y="219.858818" style="fill: #040312; stroke: #040312"/>
    </g>
    <g clip-path="url(#pb902a08cfe)">
     <use xlink:href="#C0_0_2b575ee87c" x="326.507433" y="220.148984" style="fill: #010005; stroke: #010005"/>
    </g>
    <g clip-path="url(#pb902a08cfe)">
     <use xlink:href="#C0_0_2b575ee87c" x="327.027718" y="220.303072" style="fill: #010106; stroke: #010106"/>
    </g>
    <g clip-path="url(#pb902a08cfe)">
     <use xlink:href="#C0_0_2b575ee87c" x="327.593177" y="220.354717" style="fill: #02020e; stroke: #02020e"/>
    </g>
    <g clip-path="url(#pb902a08cfe)">
     <use xlink:href="#C0_0_2b575ee87c" x="328.170759" y="220.313063" style="fill: #040314; stroke: #040314"/>
    </g>
    <g clip-path="url(#pb902a08cfe)">
     <use xlink:href="#C0_0_2b575ee87c" x="331.627593" y="211.958495" style="fill: #5d126e; stroke: #5d126e"/>
    </g>
    <g clip-path="url(#pb902a08cfe)">
     <use xlink:href="#C0_0_2b575ee87c" x="331.765422" y="211.586711" style="fill: #fac42a; stroke: #fac42a"/>
    </g>
    <g clip-path="url(#pb902a08cfe)">
     <use xlink:href="#C0_0_2b575ee87c" x="331.94294" y="211.337496" style="fill: #fbb81d; stroke: #fbb81d"/>
    </g>
    <g clip-path="url(#pb902a08cfe)">
     <use xlink:href="#C0_0_2b575ee87c" x="331.549514" y="212.437366" style="fill: #02020c; stroke: #02020c"/>
    </g>
    <g clip-path="url(#pb902a08cfe)">
     <use xlink:href="#C0_0_2b575ee87c" x="328.738961" y="220.15222" style="fill: #010108; stroke: #010108"/>
    </g>
    <g clip-path="url(#pb902a08cfe)">
     <use xlink:href="#C0_0_2b575ee87c" x="332.167362" y="211.215069" style="fill: #470b6a; stroke: #470b6a"/>
    </g>
    <g clip-path="url(#pb902a08cfe)">
     <use xlink:href="#C0_0_2b575ee87c" x="360.847881" y="280.607242" style="fill: #0d0829; stroke: #0d0829"/>
    </g>
    <g clip-path="url(#pb902a08cfe)">
     <use xlink:href="#C0_0_2b575ee87c" x="361.259347" y="280.972271" style="fill: #2b0b57; stroke: #2b0b57"/>
    </g>
    <g clip-path="url(#pb902a08cfe)">
     <use xlink:href="#C0_0_2b575ee87c" x="361.521294" y="281.367554" style="fill: #3d0965; stroke: #3d0965"/>
    </g>
    <g clip-path="url(#pb902a08cfe)">
     <use xlink:href="#C0_0_2b575ee87c" x="361.63733" y="281.797314" style="fill: #140b34; stroke: #140b34"/>
    </g>
    <g clip-path="url(#pb902a08cfe)">
     <use xlink:href="#C0_0_2b575ee87c" x="373.939454" y="288.096944" style="fill: #010005; stroke: #010005"/>
    </g>
    <g clip-path="url(#pb902a08cfe)">
     <use xlink:href="#C0_0_2b575ee87c" x="374.307623" y="287.711933" style="fill: #340a5f; stroke: #340a5f"/>
    </g>
    <g clip-path="url(#pb902a08cfe)">
     <use xlink:href="#C0_0_2b575ee87c" x="374.626866" y="287.438794" style="fill: #5c126e; stroke: #5c126e"/>
    </g>
    <g clip-path="url(#pb902a08cfe)">
     <use xlink:href="#C0_0_2b575ee87c" x="374.971944" y="287.255154" style="fill: #360961; stroke: #360961"/>
    </g>
   </g>
   <g id="PathCollection_2">
    <defs>
     <path id="C1_0_843695f19c" d="M 0 0.5 
C 0.132602 0.5 0.25979 0.447317 0.353553 0.353553 
C 0.447317 0.25979 0.5 0.132602 0.5 -0 
C 0.5 -0.132602 0.447317 -0.25979 0.353553 -0.353553 
C 0.25979 -0.447317 0.132602 -0.5 0 -0.5 
C -0.132602 -0.5 -0.25979 -0.447317 -0.353553 -0.353553 
C -0.447317 -0.25979 -0.5 -0.132602 -0.5 0 
C -0.5 0.132602 -0.447317 0.25979 -0.353553 0.353553 
C -0.25979 0.447317 -0.132602 0.5 0 0.5 
z
"/>
    </defs>
    <g clip-path="url(#pb902a08cfe)">
     <use xlink:href="#C1_0_843695f19c" x="287.579089" y="225.382515" style="fill: #02020e; stroke: #02020e"/>
    </g>
    <g clip-path="url(#pb902a08cfe)">
     <use xlink:href="#C1_0_843695f19c" x="287.863694" y="225.014672" style="fill: #290b55; stroke: #290b55"/>
    </g>
    <g clip-path="url(#pb902a08cfe)">
     <use xlink:href="#C1_0_843695f19c" x="288.053335" y="224.560145" style="fill: #320a5e; stroke: #320a5e"/>
    </g>
    <g clip-path="url(#pb902a08cfe)">
     <use xlink:href="#C1_0_843695f19c" x="288.145125" y="224.025971" style="fill: #000004; stroke: #000004"/>
    </g>
    <g clip-path="url(#pb902a08cfe)">
     <use xlink:href="#C1_0_843695f19c" x="243.54848" y="192.148443" style="fill: #952667; stroke: #952667"/>
    </g>
    <g clip-path="url(#pb902a08cfe)">
     <use xlink:href="#C1_0_843695f19c" x="243.72874" y="191.882341" style="fill: #fac42a; stroke: #fac42a"/>
    </g>
    <g clip-path="url(#pb902a08cfe)">
     <use xlink:href="#C1_0_843695f19c" x="244.004686" y="191.703626" style="fill: #fcffa4; stroke: #fcffa4"/>
    </g>
    <g clip-path="url(#pb902a08cfe)">
     <use xlink:href="#C1_0_843695f19c" x="244.409369" y="191.578666" style="fill: #b73557; stroke: #b73557"/>
    </g>
    <g clip-path="url(#pb902a08cfe)">
     <use xlink:href="#C1_0_843695f19c" x="244.898192" y="191.546722" style="fill: #02010a; stroke: #02010a"/>
    </g>
    <g clip-path="url(#pb902a08cfe)">
     <use xlink:href="#C1_0_843695f19c" x="270.008728" y="201.470605" style="fill: #4f0d6c; stroke: #4f0d6c"/>
    </g>
    <g clip-path="url(#pb902a08cfe)">
     <use xlink:href="#C1_0_843695f19c" x="270.242532" y="201.148074" style="fill: #b43359; stroke: #b43359"/>
    </g>
    <g clip-path="url(#pb902a08cfe)">
     <use xlink:href="#C1_0_843695f19c" x="270.356114" y="200.755042" style="fill: #b0315b; stroke: #b0315b"/>
    </g>
    <g clip-path="url(#pb902a08cfe)">
     <use xlink:href="#C1_0_843695f19c" x="270.348032" y="200.297138" style="fill: #5d126e; stroke: #5d126e"/>
    </g>
    <g clip-path="url(#pb902a08cfe)">
     <use xlink:href="#C1_0_843695f19c" x="237.563246" y="186.218064" style="fill: #040312; stroke: #040312"/>
    </g>
   </g>
   <g id="matplotlib.axis_1">
    <g id="xtick_1">
     <g id="line2d_1">
      <defs>
       <path id="m99aae1a054" d="M 0 0 
L 0 3.5 
" style="stroke: #000000; stroke-width: 0.8"/>
      </defs>
      <g>
       <use xlink:href="#m99aae1a054" x="74.286747" y="307.584" style="stroke: #000000; stroke-width: 0.8"/>
      </g>
     </g>
     <g id="text_1">
      <!-- 0 -->
      <g transform="translate(71.105497 322.182437) scale(0.1 -0.1)">
       <defs>
        <path id="DejaVuSans-30" d="M 2034 4250 
Q 1547 4250 1301 3770 
Q 1056 3291 1056 2328 
Q 1056 1369 1301 889 
Q 1547 409 2034 409 
Q 2525 409 2770 889 
Q 3016 1369 3016 2328 
Q 3016 3291 2770 3770 
Q 2525 4250 2034 4250 
z
M 2034 4750 
Q 2819 4750 3233 4129 
Q 3647 3509 3647 2328 
Q 3647 1150 3233 529 
Q 2819 -91 2034 -91 
Q 1250 -91 836 529 
Q 422 1150 422 2328 
Q 422 3509 836 4129 
Q 1250 4750 2034 4750 
z
" transform="scale(0.015625)"/>
       </defs>
       <use xlink:href="#DejaVuSans-30"/>
      </g>
     </g>
    </g>
    <g id="xtick_2">
     <g id="line2d_2">
      <g>
       <use xlink:href="#m99aae1a054" x="138.94362" y="307.584" style="stroke: #000000; stroke-width: 0.8"/>
      </g>
     </g>
     <g id="text_2">
      <!-- 50 -->
      <g transform="translate(132.58112 322.182437) scale(0.1 -0.1)">
       <defs>
        <path id="DejaVuSans-35" d="M 691 4666 
L 3169 4666 
L 3169 4134 
L 1269 4134 
L 1269 2991 
Q 1406 3038 1543 3061 
Q 1681 3084 1819 3084 
Q 2600 3084 3056 2656 
Q 3513 2228 3513 1497 
Q 3513 744 3044 326 
Q 2575 -91 1722 -91 
Q 1428 -91 1123 -41 
Q 819 9 494 109 
L 494 744 
Q 775 591 1075 516 
Q 1375 441 1709 441 
Q 2250 441 2565 725 
Q 2881 1009 2881 1497 
Q 2881 1984 2565 2268 
Q 2250 2553 1709 2553 
Q 1456 2553 1204 2497 
Q 953 2441 691 2322 
L 691 4666 
z
" transform="scale(0.015625)"/>
       </defs>
       <use xlink:href="#DejaVuSans-35"/>
       <use xlink:href="#DejaVuSans-30" x="63.623047"/>
      </g>
     </g>
    </g>
    <g id="xtick_3">
     <g id="line2d_3">
      <g>
       <use xlink:href="#m99aae1a054" x="203.600492" y="307.584" style="stroke: #000000; stroke-width: 0.8"/>
      </g>
     </g>
     <g id="text_3">
      <!-- 100 -->
      <g transform="translate(194.056742 322.182437) scale(0.1 -0.1)">
       <defs>
        <path id="DejaVuSans-31" d="M 794 531 
L 1825 531 
L 1825 4091 
L 703 3866 
L 703 4441 
L 1819 4666 
L 2450 4666 
L 2450 531 
L 3481 531 
L 3481 0 
L 794 0 
L 794 531 
z
" transform="scale(0.015625)"/>
       </defs>
       <use xlink:href="#DejaVuSans-31"/>
       <use xlink:href="#DejaVuSans-30" x="63.623047"/>
       <use xlink:href="#DejaVuSans-30" x="127.246094"/>
      </g>
     </g>
    </g>
    <g id="xtick_4">
     <g id="line2d_4">
      <g>
       <use xlink:href="#m99aae1a054" x="268.257364" y="307.584" style="stroke: #000000; stroke-width: 0.8"/>
      </g>
     </g>
     <g id="text_4">
      <!-- 150 -->
      <g transform="translate(258.713614 322.182437) scale(0.1 -0.1)">
       <use xlink:href="#DejaVuSans-31"/>
       <use xlink:href="#DejaVuSans-35" x="63.623047"/>
       <use xlink:href="#DejaVuSans-30" x="127.246094"/>
      </g>
     </g>
    </g>
    <g id="xtick_5">
     <g id="line2d_5">
      <g>
       <use xlink:href="#m99aae1a054" x="332.914236" y="307.584" style="stroke: #000000; stroke-width: 0.8"/>
      </g>
     </g>
     <g id="text_5">
      <!-- 200 -->
      <g transform="translate(323.370486 322.182437) scale(0.1 -0.1)">
       <defs>
        <path id="DejaVuSans-32" d="M 1228 531 
L 3431 531 
L 3431 0 
L 469 0 
L 469 531 
Q 828 903 1448 1529 
Q 2069 2156 2228 2338 
Q 2531 2678 2651 2914 
Q 2772 3150 2772 3378 
Q 2772 3750 2511 3984 
Q 2250 4219 1831 4219 
Q 1534 4219 1204 4116 
Q 875 4013 500 3803 
L 500 4441 
Q 881 4594 1212 4672 
Q 1544 4750 1819 4750 
Q 2544 4750 2975 4387 
Q 3406 4025 3406 3419 
Q 3406 3131 3298 2873 
Q 3191 2616 2906 2266 
Q 2828 2175 2409 1742 
Q 1991 1309 1228 531 
z
" transform="scale(0.015625)"/>
       </defs>
       <use xlink:href="#DejaVuSans-32"/>
       <use xlink:href="#DejaVuSans-30" x="63.623047"/>
       <use xlink:href="#DejaVuSans-30" x="127.246094"/>
      </g>
     </g>
    </g>
    <g id="xtick_6">
     <g id="line2d_6">
      <g>
       <use xlink:href="#m99aae1a054" x="397.571108" y="307.584" style="stroke: #000000; stroke-width: 0.8"/>
      </g>
     </g>
     <g id="text_6">
      <!-- 250 -->
      <g transform="translate(388.027358 322.182437) scale(0.1 -0.1)">
       <use xlink:href="#DejaVuSans-32"/>
       <use xlink:href="#DejaVuSans-35" x="63.623047"/>
       <use xlink:href="#DejaVuSans-30" x="127.246094"/>
      </g>
     </g>
    </g>
   </g>
   <g id="matplotlib.axis_2">
    <g id="ytick_1">
     <g id="line2d_7">
      <defs>
       <path id="m04d8bfe9cd" d="M 0 0 
L -3.5 0 
" style="stroke: #000000; stroke-width: 0.8"/>
      </defs>
      <g>
       <use xlink:href="#m04d8bfe9cd" x="57.6" y="305.071058" style="stroke: #000000; stroke-width: 0.8"/>
      </g>
     </g>
     <g id="text_7">
      <!-- 250 -->
      <g transform="translate(31.5125 308.870276) scale(0.1 -0.1)">
       <use xlink:href="#DejaVuSans-32"/>
       <use xlink:href="#DejaVuSans-35" x="63.623047"/>
       <use xlink:href="#DejaVuSans-30" x="127.246094"/>
      </g>
     </g>
    </g>
    <g id="ytick_2">
     <g id="line2d_8">
      <g>
       <use xlink:href="#m04d8bfe9cd" x="57.6" y="273.549693" style="stroke: #000000; stroke-width: 0.8"/>
      </g>
     </g>
     <g id="text_8">
      <!-- 275 -->
      <g transform="translate(31.5125 277.348912) scale(0.1 -0.1)">
       <defs>
        <path id="DejaVuSans-37" d="M 525 4666 
L 3525 4666 
L 3525 4397 
L 1831 0 
L 1172 0 
L 2766 4134 
L 525 4134 
L 525 4666 
z
" transform="scale(0.015625)"/>
       </defs>
       <use xlink:href="#DejaVuSans-32"/>
       <use xlink:href="#DejaVuSans-37" x="63.623047"/>
       <use xlink:href="#DejaVuSans-35" x="127.246094"/>
      </g>
     </g>
    </g>
    <g id="ytick_3">
     <g id="line2d_9">
      <g>
       <use xlink:href="#m04d8bfe9cd" x="57.6" y="242.028329" style="stroke: #000000; stroke-width: 0.8"/>
      </g>
     </g>
     <g id="text_9">
      <!-- 300 -->
      <g transform="translate(31.5125 245.827547) scale(0.1 -0.1)">
       <defs>
        <path id="DejaVuSans-33" d="M 2597 2516 
Q 3050 2419 3304 2112 
Q 3559 1806 3559 1356 
Q 3559 666 3084 287 
Q 2609 -91 1734 -91 
Q 1441 -91 1130 -33 
Q 819 25 488 141 
L 488 750 
Q 750 597 1062 519 
Q 1375 441 1716 441 
Q 2309 441 2620 675 
Q 2931 909 2931 1356 
Q 2931 1769 2642 2001 
Q 2353 2234 1838 2234 
L 1294 2234 
L 1294 2753 
L 1863 2753 
Q 2328 2753 2575 2939 
Q 2822 3125 2822 3475 
Q 2822 3834 2567 4026 
Q 2313 4219 1838 4219 
Q 1578 4219 1281 4162 
Q 984 4106 628 3988 
L 628 4550 
Q 988 4650 1302 4700 
Q 1616 4750 1894 4750 
Q 2613 4750 3031 4423 
Q 3450 4097 3450 3541 
Q 3450 3153 3228 2886 
Q 3006 2619 2597 2516 
z
" transform="scale(0.015625)"/>
       </defs>
       <use xlink:href="#DejaVuSans-33"/>
       <use xlink:href="#DejaVuSans-30" x="63.623047"/>
       <use xlink:href="#DejaVuSans-30" x="127.246094"/>
      </g>
     </g>
    </g>
    <g id="ytick_4">
     <g id="line2d_10">
      <g>
       <use xlink:href="#m04d8bfe9cd" x="57.6" y="210.506964" style="stroke: #000000; stroke-width: 0.8"/>
      </g>
     </g>
     <g id="text_10">
      <!-- 325 -->
      <g transform="translate(31.5125 214.306183) scale(0.1 -0.1)">
       <use xlink:href="#DejaVuSans-33"/>
       <use xlink:href="#DejaVuSans-32" x="63.623047"/>
       <use xlink:href="#DejaVuSans-35" x="127.246094"/>
      </g>
     </g>
    </g>
    <g id="ytick_5">
     <g id="line2d_11">
      <g>
       <use xlink:href="#m04d8bfe9cd" x="57.6" y="178.985599" style="stroke: #000000; stroke-width: 0.8"/>
      </g>
     </g>
     <g id="text_11">
      <!-- 350 -->
      <g transform="translate(31.5125 182.784818) scale(0.1 -0.1)">
       <use xlink:href="#DejaVuSans-33"/>
       <use xlink:href="#DejaVuSans-35" x="63.623047"/>
       <use xlink:href="#DejaVuSans-30" x="127.246094"/>
      </g>
     </g>
    </g>
    <g id="ytick_6">
     <g id="line2d_12">
      <g>
       <use xlink:href="#m04d8bfe9cd" x="57.6" y="147.464235" style="stroke: #000000; stroke-width: 0.8"/>
      </g>
     </g>
     <g id="text_12">
      <!-- 375 -->
      <g transform="translate(31.5125 151.263454) scale(0.1 -0.1)">
       <use xlink:href="#DejaVuSans-33"/>
       <use xlink:href="#DejaVuSans-37" x="63.623047"/>
       <use xlink:href="#DejaVuSans-35" x="127.246094"/>
      </g>
     </g>
    </g>
    <g id="ytick_7">
     <g id="line2d_13">
      <g>
       <use xlink:href="#m04d8bfe9cd" x="57.6" y="115.94287" style="stroke: #000000; stroke-width: 0.8"/>
      </g>
     </g>
     <g id="text_13">
      <!-- 400 -->
      <g transform="translate(31.5125 119.742089) scale(0.1 -0.1)">
       <defs>
        <path id="DejaVuSans-34" d="M 2419 4116 
L 825 1625 
L 2419 1625 
L 2419 4116 
z
M 2253 4666 
L 3047 4666 
L 3047 1625 
L 3713 1625 
L 3713 1100 
L 3047 1100 
L 3047 0 
L 2419 0 
L 2419 1100 
L 313 1100 
L 313 1709 
L 2253 4666 
z
" transform="scale(0.015625)"/>
       </defs>
       <use xlink:href="#DejaVuSans-34"/>
       <use xlink:href="#DejaVuSans-30" x="63.623047"/>
       <use xlink:href="#DejaVuSans-30" x="127.246094"/>
      </g>
     </g>
    </g>
    <g id="ytick_8">
     <g id="line2d_14">
      <g>
       <use xlink:href="#m04d8bfe9cd" x="57.6" y="84.421506" style="stroke: #000000; stroke-width: 0.8"/>
      </g>
     </g>
     <g id="text_14">
      <!-- 425 -->
      <g transform="translate(31.5125 88.220724) scale(0.1 -0.1)">
       <use xlink:href="#DejaVuSans-34"/>
       <use xlink:href="#DejaVuSans-32" x="63.623047"/>
       <use xlink:href="#DejaVuSans-35" x="127.246094"/>
      </g>
     </g>
    </g>
    <g id="ytick_9">
     <g id="line2d_15">
      <g>
       <use xlink:href="#m04d8bfe9cd" x="57.6" y="52.900141" style="stroke: #000000; stroke-width: 0.8"/>
      </g>
     </g>
     <g id="text_15">
      <!-- 450 -->
      <g transform="translate(31.5125 56.69936) scale(0.1 -0.1)">
       <use xlink:href="#DejaVuSans-34"/>
       <use xlink:href="#DejaVuSans-35" x="63.623047"/>
       <use xlink:href="#DejaVuSans-30" x="127.246094"/>
      </g>
     </g>
    </g>
   </g>
   <g id="line2d_16">
    <path d="M 94.676032 98.909654 
L 115.966617 96.947167 
" clip-path="url(#pb902a08cfe)" style="fill: none; stroke: #ff0000; stroke-width: 1.5; stroke-linecap: square"/>
   </g>
   <g id="line2d_17">
    <path d="M 175.201259 107.707632 
L 169.058857 115.922184 
" clip-path="url(#pb902a08cfe)" style="fill: none; stroke: #ff0000; stroke-width: 1.5; stroke-linecap: square"/>
   </g>
   <g id="line2d_18">
    <path d="M 332.167362 211.215069 
L 325.594587 219.474651 
" clip-path="url(#pb902a08cfe)" style="fill: none; stroke: #ff0000; stroke-width: 1.5; stroke-linecap: square"/>
   </g>
   <g id="line2d_19">
    <path d="M 285.694658 211.441629 
L 300.582625 222.141866 
" clip-path="url(#pb902a08cfe)" style="fill: none; stroke: #ff0000; stroke-width: 1.5; stroke-linecap: square"/>
   </g>
   <g id="line2d_20">
    <path d="M 374.971944 287.255154 
L 361.63733 281.797314 
" clip-path="url(#pb902a08cfe)" style="fill: none; stroke: #ff0000; stroke-width: 1.5; stroke-linecap: square"/>
   </g>
   <g id="line2d_21">
    <path d="M 112.324616 147.394719 
L 120.066699 159.679186 
" clip-path="url(#pb902a08cfe)" style="fill: none; stroke: #ff0000; stroke-width: 1.5; stroke-linecap: square"/>
   </g>
   <g id="line2d_22">
    <path d="M 74.457712 124.019041 
L 75.005398 118.294036 
L 75.656773 113.343009 
L 76.403404 109.116513 
L 77.236855 105.565101 
L 78.148692 102.639325 
L 79.13048 100.289739 
L 80.173785 98.466895 
L 81.270172 97.121345 
L 82.411206 96.203643 
L 83.588452 95.664341 
L 84.793476 95.453992 
L 86.017844 95.523149 
L 87.25312 95.822364 
L 90.281963 97.030192 
L 91.400469 97.829625 
L 92.490832 99.016601 
L 94.676032 98.909654 
L 96.668416 98.471872 
L 98.428296 97.86199 
L 100.652752 96.612675 
L 102.659424 94.999034 
L 105.188114 92.538538 
L 107.165633 90.59519 
L 109.403511 88.740777 
L 111.069869 87.642454 
L 113.552808 86.103396 
L 115.766151 84.456686 
L 116.836309 83.2835 
L 117.201014 82.717945 
L 117.444921 82.092865 
L 117.564421 81.469896 
L 117.461085 80.221847 
L 116.926367 78.956911 
L 115.961854 77.743761 
L 114.619502 76.527796 
L 112.269918 74.673946 
L 107.578253 71.15087 
L 99.718547 65.9801 
L 96.300825 64.030982 
L 94.824541 62.99514 
L 93.699973 61.824627 
L 93.313331 61.195607 
L 93.062786 60.547027 
L 92.959883 59.885219 
L 92.975903 59.215812 
L 93.144617 58.543732 
L 93.497632 57.873199 
L 94.570243 56.635704 
L 96.074093 55.452527 
L 96.985784 54.976048 
L 99.157129 54.224038 
L 101.573968 53.763038 
L 104.079855 53.59347 
L 107.726906 53.621614 
L 113.729171 53.885324 
L 117.10605 53.811165 
L 120.168014 53.736583 
L 121.977685 53.859995 
L 123.610127 54.211233 
L 125.012373 54.787483 
L 126.230462 55.655165 
L 127.39544 56.85565 
L 128.465887 58.270453 
L 130.017652 60.594591 
L 131.240504 62.135197 
L 132.651698 63.543949 
L 134.254986 64.794531 
L 136.056863 65.830514 
L 137.896265 66.707202 
L 147.118817 70.179337 
L 151.615212 72.181225 
L 158.631781 75.277777 
L 160.977902 76.572545 
L 162.244196 77.542249 
L 162.798542 78.067558 
L 163.675162 79.354587 
L 164.358389 80.883795 
L 164.926012 82.647162 
L 166.025612 86.594791 
L 167.214404 89.536973 
L 168.23809 91.326092 
L 169.473642 92.938466 
L 170.90533 94.384368 
L 172.577605 95.569655 
L 174.352494 96.609298 
L 178.906329 98.586419 
L 182.788917 100.00868 
L 186.74915 101.232806 
L 190.732764 102.507733 
L 192.483262 103.273252 
L 193.247743 103.697242 
L 194.378805 104.711695 
L 194.802106 105.281754 
L 195.069248 105.923298 
L 195.184563 107.219473 
L 195.029848 107.875371 
L 194.713203 108.542245 
L 193.77741 109.742027 
L 192.485427 110.810798 
L 191.742017 111.232818 
L 190.902344 111.569562 
L 189.029315 111.890405 
L 186.986851 111.918267 
L 185.942815 111.801751 
L 183.832808 111.246468 
L 181.740696 110.366262 
L 176.641462 107.919557 
L 175.562934 107.687369 
L 174.930942 107.829355 
L 174.785031 108.022424 
L 174.844203 108.638638 
L 175.33346 109.534464 
L 176.210369 110.695689 
L 178.121932 112.787216 
L 181.110724 115.723206 
L 183.307326 117.64432 
L 184.891275 118.785844 
L 186.675978 119.858274 
L 188.58884 120.717372 
L 191.711132 121.753778 
L 196.143159 122.688442 
L 204.877898 124.09255 
L 207.779519 124.784191 
L 210.52022 125.737571 
L 218.533631 129.164113 
L 226.999929 133.356173 
L 243.376158 142.722099 
L 247.502652 144.86133 
L 254.032563 148.668942 
L 261.521215 152.512015 
L 263.726764 154.032218 
L 266.526349 156.207473 
L 272.882639 161.557099 
L 274.462692 162.640505 
L 276.975939 164.109204 
L 278.805382 165.032893 
L 283.356475 166.886743 
L 286.881862 168.436074 
L 290.230165 170.080814 
L 294.052569 172.441117 
L 296.204864 174.008038 
L 299.693881 176.888584 
L 302.656552 179.136311 
L 309.561992 183.847629 
L 314.244708 186.921384 
L 319.093685 189.769987 
L 321.654559 191.200269 
L 331.678539 196.349931 
L 345.049955 204.832978 
L 345.689885 205.425692 
L 346.2285 206.086515 
L 346.657141 206.804189 
L 347.195178 208.438515 
L 347.306018 209.317173 
L 347.298947 210.213843 
L 347.173241 211.075896 
L 346.608359 212.718244 
L 346.213779 213.473209 
L 345.155889 214.7608 
L 344.54872 215.238687 
L 343.866937 215.632563 
L 343.124249 215.898947 
L 342.33581 216.032209 
L 341.518218 216.011382 
L 340.689513 215.85265 
L 338.941036 215.186198 
L 337.127324 214.13572 
L 332.911638 211.348331 
L 332.167362 211.215069 
L 331.94294 211.337496 
L 331.627593 211.958495 
L 331.432323 213.720877 
L 331.106586 216.79224 
L 330.623968 218.226602 
L 329.787759 219.456217 
L 329.276277 219.874297 
L 328.738961 220.15222 
L 328.170759 220.313063 
L 327.027718 220.303072 
L 326.507433 220.148984 
L 325.594587 219.474651 
L 325.209244 218.976924 
L 324.662114 217.713114 
L 324.425857 216.186298 
L 323.880026 211.069423 
L 323.341266 209.423136 
L 322.51386 207.861843 
L 321.378757 206.43128 
L 319.916328 205.09514 
L 314.575642 201.047599 
L 310.18951 197.753476 
L 305.799049 194.445422 
L 300.386201 190.752637 
L 296.275005 188.358702 
L 293.171186 186.487403 
L 290.073285 184.460466 
L 283.269304 179.788409 
L 280.864299 178.217829 
L 278.231697 176.78023 
L 271.346173 173.513828 
L 265.806176 170.309766 
L 263.627181 168.767048 
L 258.311318 164.924538 
L 254.84496 163.031004 
L 248.891332 160.110634 
L 243.095449 157.014505 
L 236.249181 153.390814 
L 232.52304 151.818968 
L 226.377318 149.296414 
L 222.010381 147.071203 
L 216.717899 144.758182 
L 211.428303 142.23788 
L 206.886158 140.350538 
L 204.292522 139.217176 
L 201.817521 137.910306 
L 198.242053 135.817794 
L 194.810765 134.110434 
L 193.344728 133.47874 
L 192.010747 133.102735 
L 191.393043 133.053483 
L 190.801029 133.137352 
L 190.274248 133.330562 
L 189.823527 133.671668 
L 189.458244 134.161375 
L 188.931752 135.463179 
L 188.760296 137.134656 
L 188.829139 138.101827 
L 189.24147 140.164225 
L 190.009559 142.235347 
L 191.063553 144.243708 
L 192.296219 145.986812 
L 193.83283 147.585958 
L 195.516939 148.881008 
L 197.336569 149.884625 
L 200.975682 151.402857 
L 206.184024 153.743037 
L 208.610245 155.032036 
L 213.229892 157.941852 
L 215.491439 159.509758 
L 218.049571 161.087234 
L 220.737016 162.375529 
L 224.528103 163.912899 
L 226.578216 164.612983 
L 230.937359 165.605343 
L 240.310874 167.508586 
L 242.996588 168.408774 
L 246.432783 169.994271 
L 251.569252 172.577756 
L 260.119979 176.72169 
L 262.431606 178.093854 
L 264.656351 179.6225 
L 267.793653 181.766375 
L 270.416008 183.220298 
L 272.256997 184.066449 
L 275.166124 185.172652 
L 279.178314 186.515969 
L 280.82894 187.312306 
L 282.0821 188.238668 
L 282.517091 188.747231 
L 282.980224 189.839081 
L 283.050798 190.392956 
L 282.859137 191.535746 
L 282.241 192.854015 
L 281.316464 194.251087 
L 278.595824 198.061232 
L 277.802334 199.700061 
L 277.396064 201.375337 
L 277.390147 202.195737 
L 277.530141 203.02655 
L 277.78516 203.854408 
L 278.762085 205.643949 
L 280.024049 207.429409 
L 281.364235 209.038547 
L 282.669496 210.338803 
L 283.96754 211.149634 
L 285.194289 211.446272 
L 286.146968 211.346502 
L 287.10643 210.739293 
L 288.056077 209.718367 
L 290.210537 206.871172 
L 291.542497 205.382491 
L 292.930166 204.160053 
L 293.665927 203.706511 
L 294.392739 203.397911 
L 295.102666 203.220322 
L 295.761935 203.185705 
L 296.326673 203.268167 
L 296.769457 203.467005 
L 297.046413 203.753512 
L 297.161872 204.160616 
L 297.184819 204.682688 
L 297.092308 205.275543 
L 296.577074 206.60324 
L 295.313956 209.018987 
L 294.503002 210.736197 
L 294.014901 212.401905 
L 293.902906 213.172349 
L 293.926431 213.887349 
L 294.117803 214.572798 
L 294.472695 215.227992 
L 295.537079 216.401459 
L 299.587226 219.91384 
L 300.38216 221.08196 
L 300.578151 221.634709 
L 300.582625 222.141866 
L 300.188766 223.127471 
L 299.399317 224.239303 
L 298.411135 225.40306 
L 297.122183 227.407481 
L 296.698017 228.707597 
L 296.652699 229.316916 
L 296.74954 229.868681 
L 296.974973 230.418897 
L 297.352812 230.933934 
L 298.565128 231.899135 
L 300.194539 232.844072 
L 303.288255 234.179368 
L 307.38141 235.716175 
L 310.973475 237.00236 
L 313.49033 238.204252 
L 318.619727 240.775636 
L 325.219202 244.405096 
L 328.513816 246.19731 
L 332.363931 248.587305 
L 336.177965 251.179797 
L 340.947852 254.203737 
L 343.498912 255.629797 
L 346.127618 256.924988 
L 350.695453 258.896621 
L 357.859088 261.837255 
L 362.68887 264.485471 
L 365.806543 266.640463 
L 367.423975 267.654072 
L 369.89306 268.861734 
L 372.530569 269.824262 
L 375.793144 270.757801 
L 379.559984 272.269701 
L 380.962518 273.046055 
L 382.907564 274.478588 
L 384.812633 276.310908 
L 386.734154 278.424528 
L 388.148379 279.738575 
L 390.440667 281.476331 
L 392.101252 282.539052 
L 395.313746 284.52349 
L 396.764196 285.726509 
L 397.811406 287.078269 
L 398.154174 287.771598 
L 398.487273 289.247473 
L 398.464614 289.996247 
L 398.304559 290.732073 
L 398.037272 291.414989 
L 397.126448 292.684287 
L 395.858855 293.713516 
L 395.069407 294.111051 
L 393.251365 294.610186 
L 391.250177 294.816342 
L 389.200208 294.652965 
L 387.24809 294.152141 
L 385.467717 293.325128 
L 383.833543 292.188529 
L 380.588721 289.840751 
L 377.38503 287.928783 
L 376.222361 287.384617 
L 375.352957 287.175084 
L 374.626866 287.438794 
L 373.939454 288.096944 
L 372.607061 289.676108 
L 370.942579 291.81365 
L 369.636886 293.225638 
L 368.181096 294.404031 
L 367.398719 294.840546 
L 365.569131 295.352346 
L 364.568682 295.47238 
L 362.40614 295.414544 
L 361.328333 295.242865 
L 360.300462 294.939331 
L 359.370875 294.546018 
L 358.576375 294.080515 
L 357.904117 293.498777 
L 357.36709 292.821208 
L 356.976839 292.079471 
L 356.705367 291.279335 
L 356.577063 290.506358 
L 356.576775 289.773205 
L 356.715181 289.056797 
L 357.339235 287.761748 
L 358.286574 286.528052 
L 360.827098 283.689441 
L 361.465729 282.691592 
L 361.622609 282.228622 
L 361.63733 281.797314 
L 361.521294 281.367554 
L 361.259347 280.972271 
L 360.311286 280.241651 
L 357.986814 279.019916 
L 351.241284 275.735362 
L 348.809291 274.592994 
L 347.244392 273.703078 
L 344.88485 272.185831 
L 337.916917 267.800984 
L 336.539928 266.637508 
L 334.354872 264.769023 
L 332.866898 263.7253 
L 330.439523 262.407735 
L 326.398613 260.268504 
L 323.851017 258.247759 
L 322.51285 256.847873 
L 320.29994 253.808594 
L 319.268894 252.345102 
L 317.982684 250.975049 
L 316.471907 249.777518 
L 314.764417 248.667375 
L 309.665905 245.890821 
L 305.396387 243.554019 
L 302.770278 242.039305 
L 300.960175 241.2296 
L 299.130443 240.678398 
L 297.254528 240.348268 
L 294.465334 240.219227 
L 284.976505 240.162939 
L 283.623762 239.832528 
L 282.541914 239.233059 
L 281.743373 238.273909 
L 281.123793 236.995042 
L 279.936444 234.430835 
L 278.929644 232.63848 
L 278.155205 231.439824 
L 276.59276 229.617495 
L 275.156021 228.418839 
L 270.976705 225.780472 
L 265.650595 222.199702 
L 263.236354 220.613783 
L 259.930482 218.735729 
L 255.887119 216.448882 
L 251.907113 214.018219 
L 243.013762 208.787502 
L 238.006318 206.033885 
L 234.700303 204.240545 
L 223.198596 197.753476 
L 219.105152 195.512223 
L 215.845175 193.669349 
L 211.232023 190.747009 
L 208.925447 189.196551 
L 206.524628 187.662981 
L 201.660785 184.790315 
L 198.430251 182.928866 
L 193.556018 180.087581 
L 188.818603 177.258538 
L 182.59408 173.204947 
L 179.287199 171.255407 
L 175.142087 169.001629 
L 173.802766 167.971556 
L 172.719619 166.889416 
L 171.861761 165.658254 
L 171.256036 164.304524 
L 170.947905 162.67273 
L 170.899268 161.779297 
L 171.138268 159.78346 
L 171.582784 157.680112 
L 173.05214 152.099986 
L 173.385238 149.884907 
L 173.432721 147.806467 
L 173.148981 145.929538 
L 172.640241 144.158291 
L 171.834051 142.552249 
L 170.687979 141.212451 
L 169.240127 140.009291 
L 166.618781 138.42084 
L 162.911114 136.585283 
L 156.84578 133.884437 
L 152.828971 131.574653 
L 151.347059 130.645195 
L 149.493514 129.066171 
L 148.097618 127.090879 
L 146.525215 123.800696 
L 145.223274 121.159093 
L 143.117885 117.742684 
L 141.082636 114.393117 
L 140.365493 112.742889 
L 139.956914 111.140787 
L 139.928915 110.424098 
L 140.027344 109.761868 
L 140.257973 109.135241 
L 141.069936 108.009196 
L 141.619664 107.514705 
L 142.303035 107.065666 
L 143.861583 106.456628 
L 145.661007 106.114818 
L 147.590033 106.162804 
L 149.531471 106.531351 
L 151.256713 107.182605 
L 152.806313 108.111641 
L 154.233382 109.23473 
L 158.33765 113.116783 
L 161.551732 115.659882 
L 163.21809 116.704308 
L 164.83913 117.522316 
L 166.356113 118.045655 
L 167.037175 118.141345 
L 168.193927 118.000765 
L 168.617083 117.76731 
L 168.929543 117.416213 
L 169.127699 116.988141 
L 169.171285 116.488021 
L 169.058857 115.922184 
L 168.800518 115.298371 
L 167.928227 114.026962 
L 166.085939 112.118231 
L 163.536756 109.473814 
L 161.827823 107.282516 
L 159.052917 103.50333 
L 157.221598 101.379015 
L 155.808672 99.990105 
L 154.1592 98.786805 
L 152.311139 97.769256 
L 150.326981 96.937598 
L 147.266604 96.017709 
L 142.475068 94.632317 
L 138.872324 93.155457 
L 131.27442 89.561036 
L 129.717748 89.327722 
L 127.294703 89.369375 
L 125.599625 89.576375 
L 121.873051 90.424356 
L 120.105378 91.196629 
L 118.550438 92.177591 
L 117.243878 93.276476 
L 116.354269 94.481605 
L 116.026078 95.058137 
L 115.836726 95.654369 
L 115.825757 96.299009 
L 115.966617 96.947167 
L 116.258583 97.591104 
L 117.274908 98.963127 
L 119.462273 101.087583 
L 121.916059 102.99153 
L 124.240387 104.666665 
L 126.905318 106.897927 
L 130.571854 110.822619 
L 131.716049 112.313129 
L 133.203157 114.693977 
L 133.848571 116.372067 
L 134.101715 117.959112 
L 134.085695 118.738843 
L 133.941804 119.484521 
L 133.66427 120.179257 
L 132.770187 121.392548 
L 131.488451 122.4184 
L 129.938563 123.122002 
L 128.218661 123.45565 
L 126.49443 123.375861 
L 125.643788 123.181808 
L 124.070085 122.456113 
L 123.382385 121.970065 
L 122.081021 120.643353 
L 119.481035 117.799676 
L 118.092211 116.643798 
L 115.859962 115.291194 
L 113.073943 113.843463 
L 111.112877 112.632846 
L 109.883386 111.625288 
L 108.166515 109.872052 
L 106.353525 108.112203 
L 104.98736 106.998402 
L 103.524065 105.966499 
L 102.686413 105.551374 
L 100.921338 105.072503 
L 99.061875 105.012133 
L 98.208347 105.139485 
L 96.580812 105.77723 
L 95.875215 106.201361 
L 95.2184 106.734832 
L 94.660012 107.366385 
L 94.210156 108.046206 
L 93.83939 108.812709 
L 93.414213 110.430994 
L 93.378565 111.284744 
L 93.641089 112.96973 
L 93.909098 113.823199 
L 94.808377 115.557578 
L 96.031084 117.31208 
L 97.518481 118.873513 
L 99.15785 120.250743 
L 101.699674 121.899986 
L 107.208064 125.132333 
L 112.066422 128.197082 
L 114.682427 129.54054 
L 118.511904 131.275763 
L 120.596078 131.986823 
L 122.761072 132.475967 
L 124.93184 132.742773 
L 132.66613 133.33816 
L 134.249069 133.757929 
L 135.724775 134.340793 
L 137.030758 135.067051 
L 138.288536 136.028453 
L 140.218284 137.814053 
L 141.488185 139.297106 
L 142.590383 140.938327 
L 143.529062 142.620639 
L 144.131612 144.270867 
L 144.351128 145.8126 
L 144.205505 147.136779 
L 143.936487 147.71331 
L 143.586935 148.189789 
L 143.12741 148.592109 
L 142.529911 148.947568 
L 141.119294 149.365226 
L 140.285394 149.48906 
L 138.43257 149.435868 
L 136.421857 148.966706 
L 134.394114 148.239745 
L 131.701617 146.850272 
L 129.951407 146.061534 
L 128.150396 145.653726 
L 126.392682 145.622768 
L 120.240465 146.147374 
L 112.85284 146.038878 
L 112.245816 146.381532 
L 112.138728 146.620194 
L 112.324616 147.394719 
L 112.998029 148.499092 
L 114.22218 149.836921 
L 115.854622 151.241592 
L 118.472648 153.416003 
L 119.882687 154.819689 
L 120.812563 156.144008 
L 121.229946 157.347027 
L 121.283634 157.887956 
L 121.196318 158.421427 
L 120.960783 158.909586 
L 120.582078 159.315986 
L 119.422584 160.001998 
L 117.825213 160.502541 
L 115.917691 160.783841 
L 113.919822 160.749083 
L 111.972612 160.410087 
L 110.234092 159.674964 
L 108.625031 158.626457 
L 100.637309 152.530168 
L 96.164872 148.246499 
L 93.854111 145.628819 
L 92.281563 143.515621 
L 86.583965 135.062548 
L 85.346681 133.621712 
L 81.691574 129.923284 
L 79.520458 128.153233 
L 77.195162 126.648554 
L 75.552965 125.820771 
L 73.832727 125.152794 
L 74.457712 124.019041 
L 74.457712 124.019041 
" clip-path="url(#pb902a08cfe)" style="fill: none; stroke: #dda0dd; stroke-opacity: 0.3; stroke-width: 1.5; stroke-linecap: square"/>
   </g>
   <g id="line2d_23">
    <path d="M 204.893471 165.109975 
L 202.017885 165.968332 
L 200.921232 166.459239 
L 200.036415 166.985963 
L 199.351744 167.544504 
L 198.855525 168.13086 
L 198.536068 168.741031 
L 198.381679 169.371016 
L 198.380668 170.016813 
L 198.521342 170.674422 
L 199.180977 172.009073 
L 200.267048 173.342959 
L 201.978586 174.993644 
L 203.632243 176.090981 
L 206.371645 177.49129 
L 213.173172 180.999589 
L 226.460881 189.478133 
L 230.556779 191.788762 
L 234.436191 194.310471 
L 241.080406 199.179818 
L 243.314099 200.784452 
L 249.586393 204.755581 
L 255.978475 208.609913 
L 263.725465 213.66487 
L 270.892131 218.024809 
L 281.414749 224.835113 
L 283.134795 225.564889 
L 284.743856 225.958765 
L 286.087651 226.03208 
L 286.6648 225.914016 
L 287.579089 225.382515 
L 287.863694 225.014672 
L 288.053335 224.560145 
L 288.145125 224.025971 
L 287.979153 222.804236 
L 287.714175 222.146228 
L 286.869162 220.76562 
L 285.633754 219.40598 
L 284.161367 218.120359 
L 282.441032 217.092818 
L 277.15158 214.443335 
L 272.945853 212.239795 
L 269.809417 210.254512 
L 264.686082 206.423962 
L 263.202438 205.348859 
L 260.012314 203.415923 
L 253.984359 200.467409 
L 248.344779 197.976096 
L 246.644505 196.912672 
L 245.28166 195.677288 
L 244.278179 194.451191 
L 243.676784 193.350336 
L 243.466793 192.497711 
L 243.54848 192.148443 
L 243.72874 191.882341 
L 244.004686 191.703626 
L 244.409369 191.578666 
L 245.462497 191.609202 
L 246.887113 191.907389 
L 248.507576 192.531906 
L 251.183331 193.842575 
L 252.916078 194.862798 
L 255.514909 196.400168 
L 264.716534 201.051399 
L 266.464434 201.669865 
L 268.007251 201.937234 
L 269.229526 201.853505 
L 269.669135 201.707156 
L 270.008728 201.470605 
L 270.242532 201.148074 
L 270.356114 200.755042 
L 270.229831 199.77014 
L 270.004398 199.181084 
L 269.13918 197.960617 
L 267.854557 196.671196 
L 266.212013 195.432997 
L 264.35789 194.328483 
L 262.442286 193.481487 
L 257.800558 191.703063 
L 255.212695 190.443756 
L 251.622074 188.55937 
L 249.823083 187.796806 
L 248.931454 187.499323 
L 246.97515 187.227873 
L 242.779092 187.080961 
L 239.447243 186.995122 
L 238.334654 186.727894 
L 237.563246 186.218064 
L 237.252662 185.895533 
L 236.614464 184.529138 
L 235.897032 181.652391 
L 235.211352 179.962762 
L 234.431573 178.639849 
L 233.962666 178.197847 
L 233.397207 177.879537 
L 231.977787 177.556584 
L 230.29512 177.439645 
L 227.683156 177.54603 
L 225.391156 177.670849 
L 223.230636 177.528158 
L 221.010365 177.076446 
L 219.463074 176.524119 
L 217.874073 175.680359 
L 216.239034 174.556144 
L 204.553501 166.427956 
L 204.893471 165.109975 
L 204.893471 165.109975 
" clip-path="url(#pb902a08cfe)" style="fill: none; stroke: #dda0dd; stroke-opacity: 0.3; stroke-width: 1.5; stroke-linecap: square"/>
   </g>
   <g id="patch_3">
    <path d="M 57.6 307.584 
L 57.6 41.472 
" style="fill: none; stroke: #000000; stroke-width: 0.8; stroke-linejoin: miter; stroke-linecap: square"/>
   </g>
   <g id="patch_4">
    <path d="M 414.72 307.584 
L 414.72 41.472 
" style="fill: none; stroke: #000000; stroke-width: 0.8; stroke-linejoin: miter; stroke-linecap: square"/>
   </g>
   <g id="patch_5">
    <path d="M 57.6 307.584 
L 414.72 307.584 
" style="fill: none; stroke: #000000; stroke-width: 0.8; stroke-linejoin: miter; stroke-linecap: square"/>
   </g>
   <g id="patch_6">
    <path d="M 57.6 41.472 
L 414.72 41.472 
" style="fill: none; stroke: #000000; stroke-width: 0.8; stroke-linejoin: miter; stroke-linecap: square"/>
   </g>
   <g id="text_16">
    <!-- Cutting curvature -->
    <g transform="translate(183.30375 35.472) scale(0.12 -0.12)">
     <defs>
      <path id="DejaVuSans-43" d="M 4122 4306 
L 4122 3641 
Q 3803 3938 3442 4084 
Q 3081 4231 2675 4231 
Q 1875 4231 1450 3742 
Q 1025 3253 1025 2328 
Q 1025 1406 1450 917 
Q 1875 428 2675 428 
Q 3081 428 3442 575 
Q 3803 722 4122 1019 
L 4122 359 
Q 3791 134 3420 21 
Q 3050 -91 2638 -91 
Q 1578 -91 968 557 
Q 359 1206 359 2328 
Q 359 3453 968 4101 
Q 1578 4750 2638 4750 
Q 3056 4750 3426 4639 
Q 3797 4528 4122 4306 
z
" transform="scale(0.015625)"/>
      <path id="DejaVuSans-75" d="M 544 1381 
L 544 3500 
L 1119 3500 
L 1119 1403 
Q 1119 906 1312 657 
Q 1506 409 1894 409 
Q 2359 409 2629 706 
Q 2900 1003 2900 1516 
L 2900 3500 
L 3475 3500 
L 3475 0 
L 2900 0 
L 2900 538 
Q 2691 219 2414 64 
Q 2138 -91 1772 -91 
Q 1169 -91 856 284 
Q 544 659 544 1381 
z
M 1991 3584 
L 1991 3584 
z
" transform="scale(0.015625)"/>
      <path id="DejaVuSans-74" d="M 1172 4494 
L 1172 3500 
L 2356 3500 
L 2356 3053 
L 1172 3053 
L 1172 1153 
Q 1172 725 1289 603 
Q 1406 481 1766 481 
L 2356 481 
L 2356 0 
L 1766 0 
Q 1100 0 847 248 
Q 594 497 594 1153 
L 594 3053 
L 172 3053 
L 172 3500 
L 594 3500 
L 594 4494 
L 1172 4494 
z
" transform="scale(0.015625)"/>
      <path id="DejaVuSans-69" d="M 603 3500 
L 1178 3500 
L 1178 0 
L 603 0 
L 603 3500 
z
M 603 4863 
L 1178 4863 
L 1178 4134 
L 603 4134 
L 603 4863 
z
" transform="scale(0.015625)"/>
      <path id="DejaVuSans-6e" d="M 3513 2113 
L 3513 0 
L 2938 0 
L 2938 2094 
Q 2938 2591 2744 2837 
Q 2550 3084 2163 3084 
Q 1697 3084 1428 2787 
Q 1159 2491 1159 1978 
L 1159 0 
L 581 0 
L 581 3500 
L 1159 3500 
L 1159 2956 
Q 1366 3272 1645 3428 
Q 1925 3584 2291 3584 
Q 2894 3584 3203 3211 
Q 3513 2838 3513 2113 
z
" transform="scale(0.015625)"/>
      <path id="DejaVuSans-67" d="M 2906 1791 
Q 2906 2416 2648 2759 
Q 2391 3103 1925 3103 
Q 1463 3103 1205 2759 
Q 947 2416 947 1791 
Q 947 1169 1205 825 
Q 1463 481 1925 481 
Q 2391 481 2648 825 
Q 2906 1169 2906 1791 
z
M 3481 434 
Q 3481 -459 3084 -895 
Q 2688 -1331 1869 -1331 
Q 1566 -1331 1297 -1286 
Q 1028 -1241 775 -1147 
L 775 -588 
Q 1028 -725 1275 -790 
Q 1522 -856 1778 -856 
Q 2344 -856 2625 -561 
Q 2906 -266 2906 331 
L 2906 616 
Q 2728 306 2450 153 
Q 2172 0 1784 0 
Q 1141 0 747 490 
Q 353 981 353 1791 
Q 353 2603 747 3093 
Q 1141 3584 1784 3584 
Q 2172 3584 2450 3431 
Q 2728 3278 2906 2969 
L 2906 3500 
L 3481 3500 
L 3481 434 
z
" transform="scale(0.015625)"/>
      <path id="DejaVuSans-20" transform="scale(0.015625)"/>
      <path id="DejaVuSans-63" d="M 3122 3366 
L 3122 2828 
Q 2878 2963 2633 3030 
Q 2388 3097 2138 3097 
Q 1578 3097 1268 2742 
Q 959 2388 959 1747 
Q 959 1106 1268 751 
Q 1578 397 2138 397 
Q 2388 397 2633 464 
Q 2878 531 3122 666 
L 3122 134 
Q 2881 22 2623 -34 
Q 2366 -91 2075 -91 
Q 1284 -91 818 406 
Q 353 903 353 1747 
Q 353 2603 823 3093 
Q 1294 3584 2113 3584 
Q 2378 3584 2631 3529 
Q 2884 3475 3122 3366 
z
" transform="scale(0.015625)"/>
      <path id="DejaVuSans-72" d="M 2631 2963 
Q 2534 3019 2420 3045 
Q 2306 3072 2169 3072 
Q 1681 3072 1420 2755 
Q 1159 2438 1159 1844 
L 1159 0 
L 581 0 
L 581 3500 
L 1159 3500 
L 1159 2956 
Q 1341 3275 1631 3429 
Q 1922 3584 2338 3584 
Q 2397 3584 2469 3576 
Q 2541 3569 2628 3553 
L 2631 2963 
z
" transform="scale(0.015625)"/>
      <path id="DejaVuSans-76" d="M 191 3500 
L 800 3500 
L 1894 563 
L 2988 3500 
L 3597 3500 
L 2284 0 
L 1503 0 
L 191 3500 
z
" transform="scale(0.015625)"/>
      <path id="DejaVuSans-61" d="M 2194 1759 
Q 1497 1759 1228 1600 
Q 959 1441 959 1056 
Q 959 750 1161 570 
Q 1363 391 1709 391 
Q 2188 391 2477 730 
Q 2766 1069 2766 1631 
L 2766 1759 
L 2194 1759 
z
M 3341 1997 
L 3341 0 
L 2766 0 
L 2766 531 
Q 2569 213 2275 61 
Q 1981 -91 1556 -91 
Q 1019 -91 701 211 
Q 384 513 384 1019 
Q 384 1609 779 1909 
Q 1175 2209 1959 2209 
L 2766 2209 
L 2766 2266 
Q 2766 2663 2505 2880 
Q 2244 3097 1772 3097 
Q 1472 3097 1187 3025 
Q 903 2953 641 2809 
L 641 3341 
Q 956 3463 1253 3523 
Q 1550 3584 1831 3584 
Q 2591 3584 2966 3190 
Q 3341 2797 3341 1997 
z
" transform="scale(0.015625)"/>
      <path id="DejaVuSans-65" d="M 3597 1894 
L 3597 1613 
L 953 1613 
Q 991 1019 1311 708 
Q 1631 397 2203 397 
Q 2534 397 2845 478 
Q 3156 559 3463 722 
L 3463 178 
Q 3153 47 2828 -22 
Q 2503 -91 2169 -91 
Q 1331 -91 842 396 
Q 353 884 353 1716 
Q 353 2575 817 3079 
Q 1281 3584 2069 3584 
Q 2775 3584 3186 3129 
Q 3597 2675 3597 1894 
z
M 3022 2063 
Q 3016 2534 2758 2815 
Q 2500 3097 2075 3097 
Q 1594 3097 1305 2825 
Q 1016 2553 972 2059 
L 3022 2063 
z
" transform="scale(0.015625)"/>
     </defs>
     <use xlink:href="#DejaVuSans-43"/>
     <use xlink:href="#DejaVuSans-75" x="69.824219"/>
     <use xlink:href="#DejaVuSans-74" x="133.203125"/>
     <use xlink:href="#DejaVuSans-74" x="172.412109"/>
     <use xlink:href="#DejaVuSans-69" x="211.621094"/>
     <use xlink:href="#DejaVuSans-6e" x="239.404297"/>
     <use xlink:href="#DejaVuSans-67" x="302.783203"/>
     <use xlink:href="#DejaVuSans-20" x="366.259766"/>
     <use xlink:href="#DejaVuSans-63" x="398.046875"/>
     <use xlink:href="#DejaVuSans-75" x="453.027344"/>
     <use xlink:href="#DejaVuSans-72" x="516.40625"/>
     <use xlink:href="#DejaVuSans-76" x="557.519531"/>
     <use xlink:href="#DejaVuSans-61" x="616.699219"/>
     <use xlink:href="#DejaVuSans-74" x="677.978516"/>
     <use xlink:href="#DejaVuSans-75" x="717.1875"/>
     <use xlink:href="#DejaVuSans-72" x="780.566406"/>
     <use xlink:href="#DejaVuSans-65" x="819.429688"/>
    </g>
   </g>
  </g>
 </g>
 <defs>
  <clipPath id="pb902a08cfe">
   <rect x="57.6" y="41.472" width="357.12" height="266.112"/>
  </clipPath>
 </defs>
</svg>
