<?xml version="1.0" encoding="utf-8" standalone="no"?>
<!DOCTYPE svg PUBLIC "-//W3C//DTD SVG 1.1//EN"
  "http://www.w3.org/Graphics/SVG/1.1/DTD/svg11.dtd">
<svg xmlns:xlink="http://www.w3.org/1999/xlink" width="638.64pt" height="457.2pt" viewBox="0 0 638.64 457.2" xmlns="http://www.w3.org/2000/svg" version="1.1">
 <metadata>
  <rdf:RDF xmlns:dc="http://purl.org/dc/elements/1.1/" xmlns:cc="http://creativecommons.org/ns#" xmlns:rdf="http://www.w3.org/1999/02/22-rdf-syntax-ns#">
   <cc:Work>
    <dc:type rdf:resource="http://purl.org/dc/dcmitype/StillImage"/>
    <dc:date>2023-06-14T17:39:26.978059</dc:date>
    <dc:format>image/svg+xml</dc:format>
    <dc:creator>
     <cc:Agent>
      <dc:title>Matplotlib v3.7.1, https://matplotlib.org/</dc:title>
     </cc:Agent>
    </dc:creator>
   </cc:Work>
  </rdf:RDF>
 </metadata>
 <defs>
  <style type="text/css">*{stroke-linejoin: round; stroke-linecap: butt}</style>
 </defs>
 <g id="figure_1">
  <g id="patch_1">
   <path d="M 0 457.2 
L 638.64 457.2 
L 638.64 0 
L 0 0 
z
" style="fill: #ffffff"/>
  </g>
  <g id="axes_1">
   <g id="patch_2">
    <path d="M 79.83 406.908 
L 574.776 406.908 
L 574.776 54.864 
L 79.83 54.864 
z
" style="fill: #ffffff"/>
   </g>
   <g id="PathCollection_1">
    <defs>
     <path id="C0_0_9e09b40732" d="M 0 0.5 
C 0.132602 0.5 0.25979 0.447317 0.353553 0.353553 
C 0.447317 0.25979 0.5 0.132602 0.5 -0 
C 0.5 -0.132602 0.447317 -0.25979 0.353553 -0.353553 
C 0.25979 -0.447317 0.132602 -0.5 0 -0.5 
C -0.132602 -0.5 -0.25979 -0.447317 -0.353553 -0.353553 
C -0.447317 -0.25979 -0.5 -0.132602 -0.5 0 
C -0.5 0.132602 -0.447317 0.25979 -0.353553 0.353553 
C -0.25979 0.447317 -0.132602 0.5 0 0.5 
z
"/>
    </defs>
    <g clip-path="url(#p263c89fcf8)">
     <use xlink:href="#C0_0_9e09b40732" x="329.247811" y="246.35098" style="fill: #0b0724; stroke: #0b0724"/>
    </g>
    <g clip-path="url(#p263c89fcf8)">
     <use xlink:href="#C0_0_9e09b40732" x="337.792801" y="253.844346" style="fill: #9a2865; stroke: #9a2865"/>
    </g>
    <g clip-path="url(#p263c89fcf8)">
     <use xlink:href="#C0_0_9e09b40732" x="337.542972" y="254.196377" style="fill: #4c0c6b; stroke: #4c0c6b"/>
    </g>
    <g clip-path="url(#p263c89fcf8)">
     <use xlink:href="#C0_0_9e09b40732" x="338.175245" y="253.607921" style="fill: #b0315b; stroke: #b0315b"/>
    </g>
    <g clip-path="url(#p263c89fcf8)">
     <use xlink:href="#C0_0_9e09b40732" x="338.73611" y="253.44261" style="fill: #5a116e; stroke: #5a116e"/>
    </g>
    <g clip-path="url(#p263c89fcf8)">
     <use xlink:href="#C0_0_9e09b40732" x="339.413589" y="253.400352" style="fill: #0a0722; stroke: #0a0722"/>
    </g>
    <g clip-path="url(#p263c89fcf8)">
     <use xlink:href="#C0_0_9e09b40732" x="374.685476" y="264.976422" style="fill: #310a5c; stroke: #310a5c"/>
    </g>
    <g clip-path="url(#p263c89fcf8)">
     <use xlink:href="#C0_0_9e09b40732" x="374.215221" y="266.528821" style="fill: #2b0b57; stroke: #2b0b57"/>
    </g>
    <g clip-path="url(#p263c89fcf8)">
     <use xlink:href="#C0_0_9e09b40732" x="374.696677" y="265.582191" style="fill: #550f6d; stroke: #550f6d"/>
    </g>
    <g clip-path="url(#p263c89fcf8)">
     <use xlink:href="#C0_0_9e09b40732" x="374.539259" y="266.102139" style="fill: #59106e; stroke: #59106e"/>
    </g>
    <g clip-path="url(#p263c89fcf8)">
     <use xlink:href="#C0_0_9e09b40732" x="392.192905" y="251.141284" style="fill: #02020e; stroke: #02020e"/>
    </g>
    <g clip-path="url(#p263c89fcf8)">
     <use xlink:href="#C0_0_9e09b40732" x="392.290716" y="251.874015" style="fill: #010108; stroke: #010108"/>
    </g>
    <g clip-path="url(#p263c89fcf8)">
     <use xlink:href="#C0_0_9e09b40732" x="395.95494" y="279.719655" style="fill: #02020e; stroke: #02020e"/>
    </g>
    <g clip-path="url(#p263c89fcf8)">
     <use xlink:href="#C0_0_9e09b40732" x="396.581813" y="279.59381" style="fill: #0d0829; stroke: #0d0829"/>
    </g>
    <g clip-path="url(#p263c89fcf8)">
     <use xlink:href="#C0_0_9e09b40732" x="397.233689" y="279.278825" style="fill: #0e092b; stroke: #0e092b"/>
    </g>
    <g clip-path="url(#p263c89fcf8)">
     <use xlink:href="#C0_0_9e09b40732" x="397.911567" y="278.790523" style="fill: #000004; stroke: #000004"/>
    </g>
    <g clip-path="url(#p263c89fcf8)">
     <use xlink:href="#C0_0_9e09b40732" x="410.690248" y="268.906846" style="fill: #02020c; stroke: #02020c"/>
    </g>
    <g clip-path="url(#p263c89fcf8)">
     <use xlink:href="#C0_0_9e09b40732" x="411.303919" y="269.169892" style="fill: #180c3c; stroke: #180c3c"/>
    </g>
    <g clip-path="url(#p263c89fcf8)">
     <use xlink:href="#C0_0_9e09b40732" x="411.687763" y="269.548916" style="fill: #5f136e; stroke: #5f136e"/>
    </g>
    <g clip-path="url(#p263c89fcf8)">
     <use xlink:href="#C0_0_9e09b40732" x="411.847782" y="270.087481" style="fill: #982766; stroke: #982766"/>
    </g>
    <g clip-path="url(#p263c89fcf8)">
     <use xlink:href="#C0_0_9e09b40732" x="411.879586" y="270.77814" style="fill: #3b0964; stroke: #3b0964"/>
    </g>
    <g clip-path="url(#p263c89fcf8)">
     <use xlink:href="#C0_0_9e09b40732" x="411.751371" y="271.562437" style="fill: #000004; stroke: #000004"/>
    </g>
    <g clip-path="url(#p263c89fcf8)">
     <use xlink:href="#C0_0_9e09b40732" x="399.351134" y="296.36769" style="fill: #08051d; stroke: #08051d"/>
    </g>
    <g clip-path="url(#p263c89fcf8)">
     <use xlink:href="#C0_0_9e09b40732" x="399.223919" y="297.074359" style="fill: #1f0c48; stroke: #1f0c48"/>
    </g>
    <g clip-path="url(#p263c89fcf8)">
     <use xlink:href="#C0_0_9e09b40732" x="398.961089" y="297.67566" style="fill: #1b0c41; stroke: #1b0c41"/>
    </g>
    <g clip-path="url(#p263c89fcf8)">
     <use xlink:href="#C0_0_9e09b40732" x="398.566643" y="298.162286" style="fill: #0b0724; stroke: #0b0724"/>
    </g>
    <g clip-path="url(#p263c89fcf8)">
     <use xlink:href="#C0_0_9e09b40732" x="262.162637" y="178.2796" style="fill: #000004; stroke: #000004"/>
    </g>
    <g clip-path="url(#p263c89fcf8)">
     <use xlink:href="#C0_0_9e09b40732" x="262.577285" y="177.484319" style="fill: #09061f; stroke: #09061f"/>
    </g>
    <g clip-path="url(#p263c89fcf8)">
     <use xlink:href="#C0_0_9e09b40732" x="263.708216" y="176.385222" style="fill: #02020e; stroke: #02020e"/>
    </g>
    <g clip-path="url(#p263c89fcf8)">
     <use xlink:href="#C0_0_9e09b40732" x="263.083544" y="176.836477" style="fill: #0a0722; stroke: #0a0722"/>
    </g>
    <g clip-path="url(#p263c89fcf8)">
     <use xlink:href="#C0_0_9e09b40732" x="416.588731" y="293.875176" style="fill: #0c0826; stroke: #0c0826"/>
    </g>
    <g clip-path="url(#p263c89fcf8)">
     <use xlink:href="#C0_0_9e09b40732" x="416.376307" y="294.500678" style="fill: #360961; stroke: #360961"/>
    </g>
    <g clip-path="url(#p263c89fcf8)">
     <use xlink:href="#C0_0_9e09b40732" x="416.042868" y="295.17905" style="fill: #110a30; stroke: #110a30"/>
    </g>
    <g clip-path="url(#p263c89fcf8)">
     <use xlink:href="#C0_0_9e09b40732" x="411.276316" y="304.097109" style="fill: #010005; stroke: #010005"/>
    </g>
    <g clip-path="url(#p263c89fcf8)">
     <use xlink:href="#C0_0_9e09b40732" x="411.588752" y="304.825" style="fill: #050417; stroke: #050417"/>
    </g>
    <g clip-path="url(#p263c89fcf8)">
     <use xlink:href="#C0_0_9e09b40732" x="412.112413" y="305.50635" style="fill: #010005; stroke: #010005"/>
    </g>
    <g clip-path="url(#p263c89fcf8)">
     <use xlink:href="#C0_0_9e09b40732" x="451.253748" y="290.346674" style="fill: #02020c; stroke: #02020c"/>
    </g>
    <g clip-path="url(#p263c89fcf8)">
     <use xlink:href="#C0_0_9e09b40732" x="451.87042" y="290.854895" style="fill: #040312; stroke: #040312"/>
    </g>
    <g clip-path="url(#p263c89fcf8)">
     <use xlink:href="#C0_0_9e09b40732" x="452.518895" y="291.238759" style="fill: #010005; stroke: #010005"/>
    </g>
    <g clip-path="url(#p263c89fcf8)">
     <use xlink:href="#C0_0_9e09b40732" x="453.239978" y="291.442606" style="fill: #010106; stroke: #010106"/>
    </g>
    <g clip-path="url(#p263c89fcf8)">
     <use xlink:href="#C0_0_9e09b40732" x="454.023669" y="291.510927" style="fill: #02020e; stroke: #02020e"/>
    </g>
    <g clip-path="url(#p263c89fcf8)">
     <use xlink:href="#C0_0_9e09b40732" x="454.824162" y="291.455824" style="fill: #040314; stroke: #040314"/>
    </g>
    <g clip-path="url(#p263c89fcf8)">
     <use xlink:href="#C0_0_9e09b40732" x="455.611653" y="291.243041" style="fill: #010108; stroke: #010108"/>
    </g>
    <g clip-path="url(#p263c89fcf8)">
     <use xlink:href="#C0_0_9e09b40732" x="459.615117" y="280.403425" style="fill: #5d126e; stroke: #5d126e"/>
    </g>
    <g clip-path="url(#p263c89fcf8)">
     <use xlink:href="#C0_0_9e09b40732" x="459.806139" y="279.911587" style="fill: #fac42a; stroke: #fac42a"/>
    </g>
    <g clip-path="url(#p263c89fcf8)">
     <use xlink:href="#C0_0_9e09b40732" x="459.506905" y="281.036932" style="fill: #02020c; stroke: #02020c"/>
    </g>
    <g clip-path="url(#p263c89fcf8)">
     <use xlink:href="#C0_0_9e09b40732" x="460.052168" y="279.581895" style="fill: #fbb81d; stroke: #fbb81d"/>
    </g>
    <g clip-path="url(#p263c89fcf8)">
     <use xlink:href="#C0_0_9e09b40732" x="460.363204" y="279.419935" style="fill: #470b6a; stroke: #470b6a"/>
    </g>
    <g clip-path="url(#p263c89fcf8)">
     <use xlink:href="#C0_0_9e09b40732" x="233.692738" y="155.796337" style="fill: #140b34; stroke: #140b34"/>
    </g>
    <g clip-path="url(#p263c89fcf8)">
     <use xlink:href="#C0_0_9e09b40732" x="234.125788" y="155.331865" style="fill: #3b0964; stroke: #3b0964"/>
    </g>
    <g clip-path="url(#p263c89fcf8)">
     <use xlink:href="#C0_0_9e09b40732" x="233.10627" y="156.105179" style="fill: #02010a; stroke: #02010a"/>
    </g>
    <g clip-path="url(#p263c89fcf8)">
     <use xlink:href="#C0_0_9e09b40732" x="234.40042" y="154.765562" style="fill: #390963; stroke: #390963"/>
    </g>
    <g clip-path="url(#p263c89fcf8)">
     <use xlink:href="#C0_0_9e09b40732" x="234.460827" y="154.103944" style="fill: #230c4c; stroke: #230c4c"/>
    </g>
    <g clip-path="url(#p263c89fcf8)">
     <use xlink:href="#C0_0_9e09b40732" x="234.305009" y="153.35539" style="fill: #0c0826; stroke: #0c0826"/>
    </g>
    <g clip-path="url(#p263c89fcf8)">
     <use xlink:href="#C0_0_9e09b40732" x="242.59737" y="144.275929" style="fill: #08051d; stroke: #08051d"/>
    </g>
    <g clip-path="url(#p263c89fcf8)">
     <use xlink:href="#C0_0_9e09b40732" x="242.323138" y="143.719865" style="fill: #932667; stroke: #932667"/>
    </g>
    <g clip-path="url(#p263c89fcf8)">
     <use xlink:href="#C0_0_9e09b40732" x="242.217326" y="143.247946" style="fill: #fcffa4; stroke: #fcffa4"/>
    </g>
    <g clip-path="url(#p263c89fcf8)">
     <use xlink:href="#C0_0_9e09b40732" x="199.002518" y="196.042742" style="fill: #010108; stroke: #010108"/>
    </g>
    <g clip-path="url(#p263c89fcf8)">
     <use xlink:href="#C0_0_9e09b40732" x="242.817996" y="142.488222" style="fill: #10092d; stroke: #10092d"/>
    </g>
    <g clip-path="url(#p263c89fcf8)">
     <use xlink:href="#C0_0_9e09b40732" x="242.241129" y="142.904665" style="fill: #f9c932; stroke: #f9c932"/>
    </g>
    <g clip-path="url(#p263c89fcf8)">
     <use xlink:href="#C0_0_9e09b40732" x="242.443352" y="142.649251" style="fill: #982766; stroke: #982766"/>
    </g>
    <g clip-path="url(#p263c89fcf8)">
     <use xlink:href="#C0_0_9e09b40732" x="198.365645" y="196.574977" style="fill: #02010a; stroke: #02010a"/>
    </g>
    <g clip-path="url(#p263c89fcf8)">
     <use xlink:href="#C0_0_9e09b40732" x="167.970523" y="209.578346" style="fill: #02020c; stroke: #02020c"/>
    </g>
    <g clip-path="url(#p263c89fcf8)">
     <use xlink:href="#C0_0_9e09b40732" x="168.091537" y="208.872609" style="fill: #000004; stroke: #000004"/>
    </g>
    <g clip-path="url(#p263c89fcf8)">
     <use xlink:href="#C0_0_9e09b40732" x="167.644085" y="210.22414" style="fill: #09061f; stroke: #09061f"/>
    </g>
    <g clip-path="url(#p263c89fcf8)">
     <use xlink:href="#C0_0_9e09b40732" x="167.119224" y="210.761774" style="fill: #0e092b; stroke: #0e092b"/>
    </g>
    <g clip-path="url(#p263c89fcf8)">
     <use xlink:href="#C0_0_9e09b40732" x="166.404941" y="211.242256" style="fill: #040314; stroke: #040314"/>
    </g>
    <g clip-path="url(#p263c89fcf8)">
     <use xlink:href="#C0_0_9e09b40732" x="155.674898" y="194.99093" style="fill: #390963; stroke: #390963"/>
    </g>
    <g clip-path="url(#p263c89fcf8)">
     <use xlink:href="#C0_0_9e09b40732" x="155.914526" y="193.382496" style="fill: #02020c; stroke: #02020c"/>
    </g>
    <g clip-path="url(#p263c89fcf8)">
     <use xlink:href="#C0_0_9e09b40732" x="155.471274" y="194.413086" style="fill: #ea632a; stroke: #ea632a"/>
    </g>
    <g clip-path="url(#p263c89fcf8)">
     <use xlink:href="#C0_0_9e09b40732" x="155.565685" y="193.650569" style="fill: #5d126e; stroke: #5d126e"/>
    </g>
    <g clip-path="url(#p263c89fcf8)">
     <use xlink:href="#C0_0_9e09b40732" x="155.417268" y="193.966298" style="fill: #e05536; stroke: #e05536"/>
    </g>
    <g clip-path="url(#p263c89fcf8)">
     <use xlink:href="#C0_0_9e09b40732" x="160.722483" y="128.253023" style="fill: #010108; stroke: #010108"/>
    </g>
    <g clip-path="url(#p263c89fcf8)">
     <use xlink:href="#C0_0_9e09b40732" x="500.11261" y="371.219998" style="fill: #0d0829; stroke: #0d0829"/>
    </g>
    <g clip-path="url(#p263c89fcf8)">
     <use xlink:href="#C0_0_9e09b40732" x="500.682876" y="371.7029" style="fill: #2b0b57; stroke: #2b0b57"/>
    </g>
    <g clip-path="url(#p263c89fcf8)">
     <use xlink:href="#C0_0_9e09b40732" x="501.045918" y="372.225827" style="fill: #3d0965; stroke: #3d0965"/>
    </g>
    <g clip-path="url(#p263c89fcf8)">
     <use xlink:href="#C0_0_9e09b40732" x="501.206737" y="372.794364" style="fill: #140b34; stroke: #140b34"/>
    </g>
    <g clip-path="url(#p263c89fcf8)">
     <use xlink:href="#C0_0_9e09b40732" x="132.615826" y="130.5873" style="fill: #010106; stroke: #010106"/>
    </g>
    <g clip-path="url(#p263c89fcf8)">
     <use xlink:href="#C0_0_9e09b40732" x="131.215063" y="130.849229" style="fill: #0a0722; stroke: #0a0722"/>
    </g>
    <g clip-path="url(#p263c89fcf8)">
     <use xlink:href="#C0_0_9e09b40732" x="518.256712" y="381.128248" style="fill: #010005; stroke: #010005"/>
    </g>
    <g clip-path="url(#p263c89fcf8)">
     <use xlink:href="#C0_0_9e09b40732" x="518.766971" y="380.618911" style="fill: #340a5f; stroke: #340a5f"/>
    </g>
    <g clip-path="url(#p263c89fcf8)">
     <use xlink:href="#C0_0_9e09b40732" x="519.209423" y="380.257572" style="fill: #5c126e; stroke: #5c126e"/>
    </g>
    <g clip-path="url(#p263c89fcf8)">
     <use xlink:href="#C0_0_9e09b40732" x="519.687678" y="380.014631" style="fill: #360961; stroke: #360961"/>
    </g>
    <g clip-path="url(#p263c89fcf8)">
     <use xlink:href="#C0_0_9e09b40732" x="103.193735" y="164.066857" style="fill: #380962; stroke: #380962"/>
    </g>
   </g>
   <g id="PathCollection_2">
    <defs>
     <path id="C1_0_d0dcc9f1e4" d="M 0 0.5 
C 0.132602 0.5 0.25979 0.447317 0.353553 0.353553 
C 0.447317 0.25979 0.5 0.132602 0.5 -0 
C 0.5 -0.132602 0.447317 -0.25979 0.353553 -0.353553 
C 0.25979 -0.447317 0.132602 -0.5 0 -0.5 
C -0.132602 -0.5 -0.25979 -0.447317 -0.353553 -0.353553 
C -0.447317 -0.25979 -0.5 -0.132602 -0.5 0 
C -0.5 0.132602 -0.447317 0.25979 -0.353553 0.353553 
C -0.25979 0.447317 -0.132602 0.5 0 0.5 
z
"/>
    </defs>
    <g clip-path="url(#p263c89fcf8)">
     <use xlink:href="#C1_0_d0dcc9f1e4" x="398.566643" y="298.162286" style="fill: #02020e; stroke: #02020e"/>
    </g>
    <g clip-path="url(#p263c89fcf8)">
     <use xlink:href="#C1_0_d0dcc9f1e4" x="398.961089" y="297.67566" style="fill: #290b55; stroke: #290b55"/>
    </g>
    <g clip-path="url(#p263c89fcf8)">
     <use xlink:href="#C1_0_d0dcc9f1e4" x="399.223919" y="297.074359" style="fill: #320a5e; stroke: #320a5e"/>
    </g>
    <g clip-path="url(#p263c89fcf8)">
     <use xlink:href="#C1_0_d0dcc9f1e4" x="399.351134" y="296.36769" style="fill: #000004; stroke: #000004"/>
    </g>
    <g clip-path="url(#p263c89fcf8)">
     <use xlink:href="#C1_0_d0dcc9f1e4" x="337.542972" y="254.196377" style="fill: #952667; stroke: #952667"/>
    </g>
    <g clip-path="url(#p263c89fcf8)">
     <use xlink:href="#C1_0_d0dcc9f1e4" x="337.792801" y="253.844346" style="fill: #fac42a; stroke: #fac42a"/>
    </g>
    <g clip-path="url(#p263c89fcf8)">
     <use xlink:href="#C1_0_d0dcc9f1e4" x="338.175245" y="253.607921" style="fill: #fcffa4; stroke: #fcffa4"/>
    </g>
    <g clip-path="url(#p263c89fcf8)">
     <use xlink:href="#C1_0_d0dcc9f1e4" x="338.73611" y="253.44261" style="fill: #b73557; stroke: #b73557"/>
    </g>
    <g clip-path="url(#p263c89fcf8)">
     <use xlink:href="#C1_0_d0dcc9f1e4" x="339.413589" y="253.400352" style="fill: #02010a; stroke: #02010a"/>
    </g>
    <g clip-path="url(#p263c89fcf8)">
     <use xlink:href="#C1_0_d0dcc9f1e4" x="374.215221" y="266.528821" style="fill: #4f0d6c; stroke: #4f0d6c"/>
    </g>
    <g clip-path="url(#p263c89fcf8)">
     <use xlink:href="#C1_0_d0dcc9f1e4" x="374.539259" y="266.102139" style="fill: #b43359; stroke: #b43359"/>
    </g>
    <g clip-path="url(#p263c89fcf8)">
     <use xlink:href="#C1_0_d0dcc9f1e4" x="374.696677" y="265.582191" style="fill: #b0315b; stroke: #b0315b"/>
    </g>
    <g clip-path="url(#p263c89fcf8)">
     <use xlink:href="#C1_0_d0dcc9f1e4" x="374.685476" y="264.976422" style="fill: #5d126e; stroke: #5d126e"/>
    </g>
    <g clip-path="url(#p263c89fcf8)">
     <use xlink:href="#C1_0_d0dcc9f1e4" x="329.247811" y="246.35098" style="fill: #040312; stroke: #040312"/>
    </g>
   </g>
   <g id="matplotlib.axis_1">
    <g id="xtick_1">
     <g id="line2d_1">
      <defs>
       <path id="m9b4d1dfb3b" d="M 0 0 
L 0 3.5 
" style="stroke: #000000; stroke-width: 0.8"/>
      </defs>
      <g>
       <use xlink:href="#m9b4d1dfb3b" x="102.956789" y="406.908" style="stroke: #000000; stroke-width: 0.8"/>
      </g>
     </g>
     <g id="text_1">
      <!-- 0 -->
      <g transform="translate(99.775539 421.506438) scale(0.1 -0.1)">
       <defs>
        <path id="DejaVuSans-30" d="M 2034 4250 
Q 1547 4250 1301 3770 
Q 1056 3291 1056 2328 
Q 1056 1369 1301 889 
Q 1547 409 2034 409 
Q 2525 409 2770 889 
Q 3016 1369 3016 2328 
Q 3016 3291 2770 3770 
Q 2525 4250 2034 4250 
z
M 2034 4750 
Q 2819 4750 3233 4129 
Q 3647 3509 3647 2328 
Q 3647 1150 3233 529 
Q 2819 -91 2034 -91 
Q 1250 -91 836 529 
Q 422 1150 422 2328 
Q 422 3509 836 4129 
Q 1250 4750 2034 4750 
z
" transform="scale(0.015625)"/>
       </defs>
       <use xlink:href="#DejaVuSans-30"/>
      </g>
     </g>
    </g>
    <g id="xtick_2">
     <g id="line2d_2">
      <g>
       <use xlink:href="#m9b4d1dfb3b" x="192.567173" y="406.908" style="stroke: #000000; stroke-width: 0.8"/>
      </g>
     </g>
     <g id="text_2">
      <!-- 50 -->
      <g transform="translate(186.204673 421.506438) scale(0.1 -0.1)">
       <defs>
        <path id="DejaVuSans-35" d="M 691 4666 
L 3169 4666 
L 3169 4134 
L 1269 4134 
L 1269 2991 
Q 1406 3038 1543 3061 
Q 1681 3084 1819 3084 
Q 2600 3084 3056 2656 
Q 3513 2228 3513 1497 
Q 3513 744 3044 326 
Q 2575 -91 1722 -91 
Q 1428 -91 1123 -41 
Q 819 9 494 109 
L 494 744 
Q 775 591 1075 516 
Q 1375 441 1709 441 
Q 2250 441 2565 725 
Q 2881 1009 2881 1497 
Q 2881 1984 2565 2268 
Q 2250 2553 1709 2553 
Q 1456 2553 1204 2497 
Q 953 2441 691 2322 
L 691 4666 
z
" transform="scale(0.015625)"/>
       </defs>
       <use xlink:href="#DejaVuSans-35"/>
       <use xlink:href="#DejaVuSans-30" x="63.623047"/>
      </g>
     </g>
    </g>
    <g id="xtick_3">
     <g id="line2d_3">
      <g>
       <use xlink:href="#m9b4d1dfb3b" x="282.177556" y="406.908" style="stroke: #000000; stroke-width: 0.8"/>
      </g>
     </g>
     <g id="text_3">
      <!-- 100 -->
      <g transform="translate(272.633806 421.506438) scale(0.1 -0.1)">
       <defs>
        <path id="DejaVuSans-31" d="M 794 531 
L 1825 531 
L 1825 4091 
L 703 3866 
L 703 4441 
L 1819 4666 
L 2450 4666 
L 2450 531 
L 3481 531 
L 3481 0 
L 794 0 
L 794 531 
z
" transform="scale(0.015625)"/>
       </defs>
       <use xlink:href="#DejaVuSans-31"/>
       <use xlink:href="#DejaVuSans-30" x="63.623047"/>
       <use xlink:href="#DejaVuSans-30" x="127.246094"/>
      </g>
     </g>
    </g>
    <g id="xtick_4">
     <g id="line2d_4">
      <g>
       <use xlink:href="#m9b4d1dfb3b" x="371.78794" y="406.908" style="stroke: #000000; stroke-width: 0.8"/>
      </g>
     </g>
     <g id="text_4">
      <!-- 150 -->
      <g transform="translate(362.24419 421.506438) scale(0.1 -0.1)">
       <use xlink:href="#DejaVuSans-31"/>
       <use xlink:href="#DejaVuSans-35" x="63.623047"/>
       <use xlink:href="#DejaVuSans-30" x="127.246094"/>
      </g>
     </g>
    </g>
    <g id="xtick_5">
     <g id="line2d_5">
      <g>
       <use xlink:href="#m9b4d1dfb3b" x="461.398324" y="406.908" style="stroke: #000000; stroke-width: 0.8"/>
      </g>
     </g>
     <g id="text_5">
      <!-- 200 -->
      <g transform="translate(451.854574 421.506438) scale(0.1 -0.1)">
       <defs>
        <path id="DejaVuSans-32" d="M 1228 531 
L 3431 531 
L 3431 0 
L 469 0 
L 469 531 
Q 828 903 1448 1529 
Q 2069 2156 2228 2338 
Q 2531 2678 2651 2914 
Q 2772 3150 2772 3378 
Q 2772 3750 2511 3984 
Q 2250 4219 1831 4219 
Q 1534 4219 1204 4116 
Q 875 4013 500 3803 
L 500 4441 
Q 881 4594 1212 4672 
Q 1544 4750 1819 4750 
Q 2544 4750 2975 4387 
Q 3406 4025 3406 3419 
Q 3406 3131 3298 2873 
Q 3191 2616 2906 2266 
Q 2828 2175 2409 1742 
Q 1991 1309 1228 531 
z
" transform="scale(0.015625)"/>
       </defs>
       <use xlink:href="#DejaVuSans-32"/>
       <use xlink:href="#DejaVuSans-30" x="63.623047"/>
       <use xlink:href="#DejaVuSans-30" x="127.246094"/>
      </g>
     </g>
    </g>
    <g id="xtick_6">
     <g id="line2d_6">
      <g>
       <use xlink:href="#m9b4d1dfb3b" x="551.008707" y="406.908" style="stroke: #000000; stroke-width: 0.8"/>
      </g>
     </g>
     <g id="text_6">
      <!-- 250 -->
      <g transform="translate(541.464957 421.506438) scale(0.1 -0.1)">
       <use xlink:href="#DejaVuSans-32"/>
       <use xlink:href="#DejaVuSans-35" x="63.623047"/>
       <use xlink:href="#DejaVuSans-30" x="127.246094"/>
      </g>
     </g>
    </g>
   </g>
   <g id="matplotlib.axis_2">
    <g id="ytick_1">
     <g id="line2d_7">
      <defs>
       <path id="md857369c41" d="M 0 0 
L -3.5 0 
" style="stroke: #000000; stroke-width: 0.8"/>
      </defs>
      <g>
       <use xlink:href="#md857369c41" x="79.83" y="403.583587" style="stroke: #000000; stroke-width: 0.8"/>
      </g>
     </g>
     <g id="text_7">
      <!-- 250 -->
      <g transform="translate(53.7425 407.382806) scale(0.1 -0.1)">
       <use xlink:href="#DejaVuSans-32"/>
       <use xlink:href="#DejaVuSans-35" x="63.623047"/>
       <use xlink:href="#DejaVuSans-30" x="127.246094"/>
      </g>
     </g>
    </g>
    <g id="ytick_2">
     <g id="line2d_8">
      <g>
       <use xlink:href="#md857369c41" x="79.83" y="361.883448" style="stroke: #000000; stroke-width: 0.8"/>
      </g>
     </g>
     <g id="text_8">
      <!-- 275 -->
      <g transform="translate(53.7425 365.682667) scale(0.1 -0.1)">
       <defs>
        <path id="DejaVuSans-37" d="M 525 4666 
L 3525 4666 
L 3525 4397 
L 1831 0 
L 1172 0 
L 2766 4134 
L 525 4134 
L 525 4666 
z
" transform="scale(0.015625)"/>
       </defs>
       <use xlink:href="#DejaVuSans-32"/>
       <use xlink:href="#DejaVuSans-37" x="63.623047"/>
       <use xlink:href="#DejaVuSans-35" x="127.246094"/>
      </g>
     </g>
    </g>
    <g id="ytick_3">
     <g id="line2d_9">
      <g>
       <use xlink:href="#md857369c41" x="79.83" y="320.18331" style="stroke: #000000; stroke-width: 0.8"/>
      </g>
     </g>
     <g id="text_9">
      <!-- 300 -->
      <g transform="translate(53.7425 323.982528) scale(0.1 -0.1)">
       <defs>
        <path id="DejaVuSans-33" d="M 2597 2516 
Q 3050 2419 3304 2112 
Q 3559 1806 3559 1356 
Q 3559 666 3084 287 
Q 2609 -91 1734 -91 
Q 1441 -91 1130 -33 
Q 819 25 488 141 
L 488 750 
Q 750 597 1062 519 
Q 1375 441 1716 441 
Q 2309 441 2620 675 
Q 2931 909 2931 1356 
Q 2931 1769 2642 2001 
Q 2353 2234 1838 2234 
L 1294 2234 
L 1294 2753 
L 1863 2753 
Q 2328 2753 2575 2939 
Q 2822 3125 2822 3475 
Q 2822 3834 2567 4026 
Q 2313 4219 1838 4219 
Q 1578 4219 1281 4162 
Q 984 4106 628 3988 
L 628 4550 
Q 988 4650 1302 4700 
Q 1616 4750 1894 4750 
Q 2613 4750 3031 4423 
Q 3450 4097 3450 3541 
Q 3450 3153 3228 2886 
Q 3006 2619 2597 2516 
z
" transform="scale(0.015625)"/>
       </defs>
       <use xlink:href="#DejaVuSans-33"/>
       <use xlink:href="#DejaVuSans-30" x="63.623047"/>
       <use xlink:href="#DejaVuSans-30" x="127.246094"/>
      </g>
     </g>
    </g>
    <g id="ytick_4">
     <g id="line2d_10">
      <g>
       <use xlink:href="#md857369c41" x="79.83" y="278.483171" style="stroke: #000000; stroke-width: 0.8"/>
      </g>
     </g>
     <g id="text_10">
      <!-- 325 -->
      <g transform="translate(53.7425 282.28239) scale(0.1 -0.1)">
       <use xlink:href="#DejaVuSans-33"/>
       <use xlink:href="#DejaVuSans-32" x="63.623047"/>
       <use xlink:href="#DejaVuSans-35" x="127.246094"/>
      </g>
     </g>
    </g>
    <g id="ytick_5">
     <g id="line2d_11">
      <g>
       <use xlink:href="#md857369c41" x="79.83" y="236.783033" style="stroke: #000000; stroke-width: 0.8"/>
      </g>
     </g>
     <g id="text_11">
      <!-- 350 -->
      <g transform="translate(53.7425 240.582251) scale(0.1 -0.1)">
       <use xlink:href="#DejaVuSans-33"/>
       <use xlink:href="#DejaVuSans-35" x="63.623047"/>
       <use xlink:href="#DejaVuSans-30" x="127.246094"/>
      </g>
     </g>
    </g>
    <g id="ytick_6">
     <g id="line2d_12">
      <g>
       <use xlink:href="#md857369c41" x="79.83" y="195.082894" style="stroke: #000000; stroke-width: 0.8"/>
      </g>
     </g>
     <g id="text_12">
      <!-- 375 -->
      <g transform="translate(53.7425 198.882113) scale(0.1 -0.1)">
       <use xlink:href="#DejaVuSans-33"/>
       <use xlink:href="#DejaVuSans-37" x="63.623047"/>
       <use xlink:href="#DejaVuSans-35" x="127.246094"/>
      </g>
     </g>
    </g>
    <g id="ytick_7">
     <g id="line2d_13">
      <g>
       <use xlink:href="#md857369c41" x="79.83" y="153.382755" style="stroke: #000000; stroke-width: 0.8"/>
      </g>
     </g>
     <g id="text_13">
      <!-- 400 -->
      <g transform="translate(53.7425 157.181974) scale(0.1 -0.1)">
       <defs>
        <path id="DejaVuSans-34" d="M 2419 4116 
L 825 1625 
L 2419 1625 
L 2419 4116 
z
M 2253 4666 
L 3047 4666 
L 3047 1625 
L 3713 1625 
L 3713 1100 
L 3047 1100 
L 3047 0 
L 2419 0 
L 2419 1100 
L 313 1100 
L 313 1709 
L 2253 4666 
z
" transform="scale(0.015625)"/>
       </defs>
       <use xlink:href="#DejaVuSans-34"/>
       <use xlink:href="#DejaVuSans-30" x="63.623047"/>
       <use xlink:href="#DejaVuSans-30" x="127.246094"/>
      </g>
     </g>
    </g>
    <g id="ytick_8">
     <g id="line2d_14">
      <g>
       <use xlink:href="#md857369c41" x="79.83" y="111.682617" style="stroke: #000000; stroke-width: 0.8"/>
      </g>
     </g>
     <g id="text_14">
      <!-- 425 -->
      <g transform="translate(53.7425 115.481836) scale(0.1 -0.1)">
       <use xlink:href="#DejaVuSans-34"/>
       <use xlink:href="#DejaVuSans-32" x="63.623047"/>
       <use xlink:href="#DejaVuSans-35" x="127.246094"/>
      </g>
     </g>
    </g>
    <g id="ytick_9">
     <g id="line2d_15">
      <g>
       <use xlink:href="#md857369c41" x="79.83" y="69.982478" style="stroke: #000000; stroke-width: 0.8"/>
      </g>
     </g>
     <g id="text_15">
      <!-- 450 -->
      <g transform="translate(53.7425 73.781697) scale(0.1 -0.1)">
       <use xlink:href="#DejaVuSans-34"/>
       <use xlink:href="#DejaVuSans-35" x="63.623047"/>
       <use xlink:href="#DejaVuSans-30" x="127.246094"/>
      </g>
     </g>
    </g>
   </g>
   <g id="line2d_16">
    <path d="M 131.215063 130.849229 
L 160.722483 128.253023 
" clip-path="url(#p263c89fcf8)" style="fill: none; stroke: #ff0000; stroke-width: 1.5; stroke-linecap: square"/>
   </g>
   <g id="line2d_17">
    <path d="M 242.817996 142.488222 
L 234.305009 153.35539 
" clip-path="url(#p263c89fcf8)" style="fill: none; stroke: #ff0000; stroke-width: 1.5; stroke-linecap: square"/>
   </g>
   <g id="line2d_18">
    <path d="M 460.363204 279.419935 
L 451.253748 290.346674 
" clip-path="url(#p263c89fcf8)" style="fill: none; stroke: #ff0000; stroke-width: 1.5; stroke-linecap: square"/>
   </g>
   <g id="line2d_19">
    <path d="M 392.192905 251.141284 
L 374.685476 264.976422 
" clip-path="url(#p263c89fcf8)" style="fill: none; stroke: #ff0000; stroke-width: 1.5; stroke-linecap: square"/>
   </g>
   <g id="line2d_20">
    <path d="M 395.95494 279.719655 
L 416.588731 293.875176 
" clip-path="url(#p263c89fcf8)" style="fill: none; stroke: #ff0000; stroke-width: 1.5; stroke-linecap: square"/>
   </g>
   <g id="line2d_21">
    <path d="M 410.690248 268.906846 
L 399.351134 296.36769 
" clip-path="url(#p263c89fcf8)" style="fill: none; stroke: #ff0000; stroke-width: 1.5; stroke-linecap: square"/>
   </g>
   <g id="line2d_22">
    <path d="M 519.687678 380.014631 
L 501.206737 372.794364 
" clip-path="url(#p263c89fcf8)" style="fill: none; stroke: #ff0000; stroke-width: 1.5; stroke-linecap: square"/>
   </g>
   <g id="line2d_23">
    <path d="M 155.674898 194.99093 
L 166.404941 211.242256 
" clip-path="url(#p263c89fcf8)" style="fill: none; stroke: #ff0000; stroke-width: 1.5; stroke-linecap: square"/>
   </g>
   <g id="line2d_24">
    <path d="M 103.193735 164.066857 
L 103.952793 156.493152 
L 104.855559 149.943356 
L 105.890343 144.352054 
L 107.045454 139.653831 
L 108.309203 135.783274 
L 109.6699 132.674967 
L 111.115855 130.263496 
L 112.635379 128.483446 
L 114.21678 127.269403 
L 115.84837 126.555951 
L 117.518458 126.277677 
L 119.215355 126.369166 
L 120.927371 126.765003 
L 125.125158 128.362858 
L 126.675337 129.420441 
L 128.186513 130.990712 
L 129.734292 130.992946 
L 131.215063 130.849229 
L 133.976383 130.270081 
L 136.415466 129.463258 
L 138.511309 128.390969 
L 140.451334 127.137917 
L 142.279546 125.675806 
L 144.886248 123.260176 
L 149.508583 119.020352 
L 151.626429 117.396653 
L 153.935896 115.943664 
L 157.377095 113.907617 
L 159.501941 112.472686 
L 160.44465 111.729157 
L 161.927822 110.17713 
L 162.433281 109.428948 
L 162.77132 108.602019 
L 162.936939 107.777883 
L 162.927138 106.953747 
L 162.793723 106.126818 
L 162.500889 105.294305 
L 162.052637 104.453414 
L 161.454968 103.6505 
L 159.845381 102.045603 
L 156.758623 99.612661 
L 146.987491 92.787614 
L 140.622554 88.634355 
L 131.420887 83.33732 
L 130.567788 82.585787 
L 129.862307 81.78883 
L 129.326445 80.956689 
L 128.979204 80.098671 
L 128.836588 79.223155 
L 128.85879 78.337585 
L 129.092618 77.448479 
L 129.581874 76.56142 
L 130.262753 75.730209 
L 132.033758 74.112281 
L 133.152688 73.359073 
L 134.416234 72.72873 
L 135.850201 72.187001 
L 139.073574 71.368449 
L 142.508372 70.984771 
L 145.966573 70.866 
L 149.302759 70.936927 
L 156.003536 71.263454 
L 160.798491 71.268295 
L 165.199001 71.068357 
L 167.828506 71.133328 
L 170.226184 71.446823 
L 172.329628 72.061714 
L 173.259335 72.479274 
L 174.947531 73.627145 
L 176.562118 75.215287 
L 178.04569 77.086953 
L 180.196339 80.161594 
L 181.891136 82.199688 
L 183.846962 84.063349 
L 186.06902 85.717765 
L 188.566309 87.088285 
L 191.115605 88.24807 
L 203.897486 92.841415 
L 208.871062 94.996604 
L 215.120186 97.525978 
L 220.988866 100.163326 
L 224.037819 101.910636 
L 225.628604 103.276874 
L 226.271078 104.076996 
L 227.349003 105.932466 
L 228.223704 108.137733 
L 230.612181 115.889491 
L 231.748713 118.449954 
L 233.167477 120.816809 
L 233.96417 121.920559 
L 235.86379 123.936128 
L 236.864106 124.862653 
L 237.970434 125.678412 
L 240.406516 127.167703 
L 242.882203 128.346662 
L 247.952991 130.421617 
L 251.961855 131.859341 
L 257.394285 133.523251 
L 263.036138 135.157375 
L 265.583634 136.111265 
L 267.829294 137.18281 
L 268.692394 137.835678 
L 269.396875 138.524847 
L 269.983543 139.278987 
L 270.353786 140.127696 
L 270.501603 141.004144 
L 270.513605 141.842428 
L 270.29918 142.710126 
L 269.860329 143.592345 
L 269.291663 144.391722 
L 268.563379 145.179556 
L 267.701479 145.944679 
L 266.772771 146.593452 
L 265.742452 147.151749 
L 264.578717 147.597234 
L 263.304569 147.873311 
L 260.588655 148.084976 
L 259.152088 148.058541 
L 257.705121 147.9044 
L 256.243951 147.599467 
L 253.327813 146.641481 
L 249.133327 144.706893 
L 245.741734 143.114469 
L 243.988931 142.558591 
L 242.817996 142.488222 
L 242.443352 142.649251 
L 242.241129 142.904665 
L 242.217326 143.247946 
L 242.323138 143.719865 
L 243.001217 144.904968 
L 244.216558 146.441172 
L 246.865865 149.208088 
L 251.008145 153.092158 
L 254.052497 155.633632 
L 256.247752 157.143773 
L 258.721238 158.562508 
L 261.372346 159.699023 
L 264.241678 160.671158 
L 267.212622 161.409474 
L 271.842159 162.306585 
L 281.035024 163.676919 
L 286.653075 164.770244 
L 289.234774 165.465929 
L 292.99881 166.830678 
L 301.656614 170.338516 
L 310.004381 174.108097 
L 312.32605 175.266206 
L 319.051229 178.881087 
L 325.742204 182.697022 
L 330.27613 185.176132 
L 336.136409 188.217078 
L 346.311188 193.498103 
L 352.073256 196.676621 
L 362.452058 201.760687 
L 364.475693 203.06363 
L 367.493242 205.224405 
L 370.32317 207.419992 
L 377.099156 212.956057 
L 380.388137 215.159835 
L 383.87134 217.102801 
L 386.406834 218.324764 
L 390.248479 219.841234 
L 393.952108 221.269836 
L 398.783068 223.355029 
L 402.240869 225.002743 
L 406.487161 227.467519 
L 409.554116 229.508592 
L 412.405047 231.658197 
L 416.378907 234.78608 
L 421.577309 238.410455 
L 430.067093 243.88062 
L 437.792588 248.553269 
L 444.607378 252.355242 
L 450.545666 255.21468 
L 455.311818 257.444148 
L 458.618002 259.127791 
L 462.861693 261.729023 
L 471.654712 267.040765 
L 477.204355 270.249628 
L 478.217673 270.97696 
L 479.104575 271.761072 
L 479.851062 272.635285 
L 480.445131 273.584708 
L 480.876781 274.630562 
L 481.190817 275.746786 
L 481.344435 276.909177 
L 481.334634 278.095397 
L 481.160414 279.235821 
L 480.822775 280.346088 
L 480.377523 281.40851 
L 479.83066 282.407266 
L 479.138379 283.328392 
L 478.36449 284.110642 
L 477.522992 284.742846 
L 476.578083 285.263911 
L 475.548763 285.616315 
L 474.456037 285.79261 
L 473.322906 285.765058 
L 472.174372 285.555068 
L 469.751092 284.673408 
L 468.470743 284.044555 
L 464.916331 281.757749 
L 462.077602 279.935229 
L 460.802055 279.416398 
L 460.363204 279.419935 
L 460.052168 279.581895 
L 459.806139 279.911587 
L 459.615117 280.403425 
L 459.419694 281.825884 
L 459.100858 285.761335 
L 458.612401 287.788259 
L 458.224156 288.695609 
L 457.691494 289.568148 
L 457.065222 290.322287 
L 456.356339 290.875373 
L 455.611653 291.243041 
L 454.824162 291.455824 
L 454.023669 291.510927 
L 453.239978 291.442606 
L 452.518895 291.238759 
L 451.87042 290.854895 
L 451.253748 290.346674 
L 450.719686 289.688222 
L 450.283236 288.890707 
L 449.961398 288.016307 
L 449.633961 285.996456 
L 449.090498 280.321328 
L 448.877473 279.227258 
L 448.130786 277.049357 
L 447.612926 275.983211 
L 446.270971 274.019022 
L 444.446559 272.203763 
L 442.283109 270.502435 
L 424.812684 257.950879 
L 420.647802 255.078596 
L 416.3165 252.349843 
L 411.721967 249.780444 
L 407.364463 247.347502 
L 399.929601 242.710968 
L 394.708996 239.195125 
L 388.061826 235.109814 
L 384.374199 233.312985 
L 377.233371 230.125531 
L 372.692045 227.794791 
L 367.345225 224.657228 
L 359.146875 218.854021 
L 355.633268 216.855951 
L 351.975644 215.122044 
L 344.94783 211.813027 
L 339.144758 208.852131 
L 327.4266 202.923265 
L 323.585355 201.341824 
L 314.879546 198.042673 
L 305.173221 193.53943 
L 298.00159 190.413968 
L 293.026414 188.168862 
L 287.941624 186.142124 
L 283.136668 184.172723 
L 279.70647 182.443843 
L 274.751096 179.675624 
L 269.995545 177.416928 
L 267.963709 176.58125 
L 266.114895 176.083827 
L 265.258796 176.01867 
L 264.438301 176.129623 
L 263.708216 176.385222 
L 263.083544 176.836477 
L 262.577285 177.484319 
L 262.162637 178.2796 
L 261.847601 179.206497 
L 261.674981 180.247325 
L 261.609973 181.417721 
L 261.705384 182.697208 
L 262.27685 185.425589 
L 262.740904 186.813049 
L 264.028453 189.539382 
L 265.606636 191.984797 
L 266.510541 193.128386 
L 267.542661 194.236418 
L 268.640188 195.243924 
L 270.974258 196.957166 
L 273.49615 198.284869 
L 277.276388 199.826657 
L 280.99702 201.312411 
L 284.62124 202.85364 
L 289.120761 205.094464 
L 294.455379 208.263303 
L 302.203077 213.104986 
L 304.678964 214.289903 
L 309.775954 216.3468 
L 314.023247 217.769259 
L 318.54357 218.820326 
L 328.958777 220.686593 
L 333.055852 221.5999 
L 336.778083 222.790774 
L 340.350697 224.330515 
L 361.633763 234.385088 
L 364.733923 236.225479 
L 372.300199 241.104209 
L 376.050434 242.978296 
L 379.99009 244.491973 
L 382.789415 245.406956 
L 386.923694 246.745084 
L 388.133234 247.234688 
L 390.138066 248.39317 
L 390.94816 249.024071 
L 391.55103 249.696858 
L 391.947676 250.417116 
L 392.192905 251.141284 
L 392.290716 251.874015 
L 392.232109 252.632995 
L 392.025085 253.385831 
L 391.168386 255.12979 
L 389.887037 256.978 
L 386.1164 262.018504 
L 385.016673 264.186539 
L 384.653031 265.300715 
L 384.453608 266.40279 
L 384.445407 267.48811 
L 384.639429 268.587207 
L 384.99287 269.682394 
L 385.574338 270.841248 
L 387.182724 273.247756 
L 389.023337 275.5206 
L 390.871551 277.475294 
L 391.762255 278.260708 
L 392.660159 278.88379 
L 393.561263 279.33337 
L 395.26146 279.725798 
L 395.95494 279.719655 
L 396.581813 279.59381 
L 397.233689 279.278825 
L 398.563643 278.194807 
L 399.903798 276.558449 
L 402.213666 273.673321 
L 404.05968 271.70392 
L 405.982902 270.086737 
L 407.002621 269.486739 
L 408.009937 269.078487 
L 408.993851 268.843551 
L 409.907557 268.797755 
L 410.690248 268.906846 
L 411.303919 269.169892 
L 411.687763 269.548916 
L 411.847782 270.087481 
L 411.879586 270.77814 
L 411.751371 271.562437 
L 411.037288 273.31887 
L 409.949362 275.396058 
L 408.679815 277.641163 
L 407.77051 279.911401 
L 407.331059 282.009253 
L 407.363662 282.955139 
L 407.628893 283.86193 
L 408.12075 284.728698 
L 408.782427 285.519325 
L 410.491425 287.012153 
L 414.397077 290.109877 
L 415.852446 291.714774 
L 416.310899 292.473009 
L 416.582531 293.204251 
L 416.588731 293.875176 
L 416.042868 295.17905 
L 415.572614 295.911223 
L 412.938308 299.065354 
L 411.792776 300.841147 
L 411.204908 302.561092 
L 411.1421 303.36717 
L 411.276316 304.097109 
L 411.588752 304.825 
L 412.112413 305.50635 
L 412.8643 306.145814 
L 414.843529 307.410222 
L 417.393625 308.624739 
L 421.782133 310.351013 
L 426.011423 311.832857 
L 430.9898 313.534371 
L 433.32167 314.59214 
L 438.088023 316.881925 
L 448.449223 322.107659 
L 458.535392 327.527374 
L 463.801402 330.901176 
L 473.674346 336.949558 
L 476.068024 338.176919 
L 479.711246 339.890348 
L 484.760831 342.006258 
L 495.97033 346.388868 
L 501.533374 349.276789 
L 503.747031 350.568935 
L 508.084934 353.46002 
L 511.490128 355.20733 
L 515.105947 356.568914 
L 517.475222 357.251196 
L 520.82581 358.190007 
L 525.068302 359.745013 
L 527.034329 360.678054 
L 528.910147 361.815872 
L 530.685952 363.112299 
L 533.326258 365.536306 
L 535.042857 367.416535 
L 536.958879 369.225279 
L 538.958911 370.857914 
L 542.253293 373.098179 
L 547.880145 376.400867 
L 548.930067 377.159475 
L 549.890378 377.992361 
L 550.697271 378.886494 
L 551.341746 379.780626 
L 551.816801 380.697843 
L 552.117436 381.662159 
L 552.278455 382.650303 
L 552.247051 383.640868 
L 552.025225 384.614305 
L 551.654782 385.517746 
L 551.089917 386.383583 
L 550.392436 387.196922 
L 549.574341 387.909547 
L 548.635632 388.558506 
L 547.541506 389.084411 
L 546.311963 389.477956 
L 543.658256 389.926419 
L 542.248292 390.017452 
L 540.820927 389.964954 
L 539.407163 389.801319 
L 538.040005 389.525614 
L 536.70165 389.13877 
L 535.4131 388.643581 
L 534.234164 388.0447 
L 531.969301 386.541075 
L 527.47218 383.43516 
L 523.989777 381.381428 
L 521.420679 380.1859 
L 520.215739 379.908705 
L 519.687678 380.014631 
L 519.209423 380.257572 
L 518.256712 381.128248 
L 517.066374 382.406246 
L 513.224929 387.000521 
L 511.310307 388.74839 
L 510.275987 389.471999 
L 509.191662 390.049472 
L 507.96772 390.446368 
L 506.655968 390.72654 
L 505.269407 390.885336 
L 503.782235 390.906 
L 502.27226 390.808824 
L 500.778487 390.581707 
L 499.353922 390.180157 
L 498.065573 389.659836 
L 496.964445 389.044014 
L 496.032737 388.274423 
L 495.288451 387.378057 
L 494.747588 386.3968 
L 494.371345 385.338287 
L 494.193524 384.315703 
L 494.193124 383.345802 
L 494.384946 382.398055 
L 494.76779 381.51323 
L 495.843915 379.872962 
L 497.314686 378.283517 
L 499.476136 375.999504 
L 500.576464 374.63643 
L 500.968909 373.977419 
L 501.186334 373.364948 
L 501.206737 372.794364 
L 501.045918 372.225827 
L 500.682876 371.7029 
L 500.11261 371.219998 
L 498.449817 370.245443 
L 488.050812 365.277542 
L 484.478998 363.766098 
L 482.33895 362.722291 
L 470.349761 355.620795 
L 467.357614 353.552356 
L 464.418074 351.083671 
L 462.364836 349.549515 
L 460.227988 348.270215 
L 452.368077 344.313542 
L 449.507946 342.204334 
L 448.212396 341.062234 
L 446.413587 339.081291 
L 443.915698 335.767619 
L 442.486732 333.831542 
L 440.704126 332.019075 
L 439.70321 331.191215 
L 437.46215 329.677724 
L 433.790925 327.633672 
L 431.433652 326.395699 
L 428.048459 324.719317 
L 420.834023 320.84623 
L 418.376339 319.609188 
L 415.876449 318.712263 
L 413.259746 318.164576 
L 410.684647 317.865601 
L 405.543452 317.799328 
L 397.316698 317.837863 
L 394.959625 317.715555 
L 393.957709 317.548196 
L 392.287115 316.940565 
L 391.585434 316.485401 
L 391.000566 315.898993 
L 390.478706 315.216525 
L 389.620006 313.524691 
L 388.397665 310.952314 
L 387.077112 308.551763 
L 385.50573 306.1756 
L 384.168375 304.552646 
L 382.40217 302.986284 
L 381.349048 302.179089 
L 377.860044 300.036186 
L 374.502455 298.036999 
L 362.513465 290.572302 
L 351.339771 284.431398 
L 346.944061 281.881732 
L 342.468343 279.273054 
L 331.008615 273.130288 
L 325.279951 270.193221 
L 311.663573 262.814716 
L 303.666046 258.646378 
L 299.147923 256.208409 
L 293.826906 253.004759 
L 282.887639 246.355262 
L 267.140014 237.625971 
L 261.690782 234.498275 
L 254.184313 229.801796 
L 249.633585 227.182879 
L 246.111577 225.371529 
L 242.735986 223.575072 
L 240.879771 222.212371 
L 239.378597 220.780791 
L 238.189659 219.152065 
L 237.704803 218.287904 
L 237.350162 217.361193 
L 237.085931 216.330232 
L 236.855705 214.020528 
L 236.951316 212.743647 
L 237.448973 210.022899 
L 238.634311 205.668586 
L 239.49341 202.682372 
L 240.134285 199.729481 
L 240.368712 196.894988 
L 240.366912 195.535638 
L 240.236896 194.267507 
L 239.66383 191.852064 
L 239.268584 190.709406 
L 238.151255 188.584746 
L 237.42017 187.663993 
L 235.623162 185.98519 
L 233.371101 184.50651 
L 230.923217 183.119236 
L 227.035967 181.254086 
L 224.520275 180.168765 
L 219.660312 178.20346 
L 216.265119 176.539364 
L 210.737478 173.458766 
L 208.870662 172.168296 
L 207.985159 171.49979 
L 207.188667 170.743789 
L 205.859513 169.057353 
L 204.696578 167.088697 
L 203.59205 164.927178 
L 201.930858 161.469976 
L 200.563299 159.129183 
L 195.531716 151.332561 
L 194.537801 149.149447 
L 194.176559 148.073248 
L 193.971535 147.03 
L 193.932731 146.08188 
L 194.069147 145.205805 
L 194.388784 144.376829 
L 194.898643 143.602397 
L 195.514114 142.887166 
L 196.276002 142.232995 
L 197.223112 141.638954 
L 198.264833 141.185651 
L 200.594903 140.540044 
L 201.877052 140.381062 
L 204.550561 140.444543 
L 205.92372 140.635544 
L 207.241273 140.932099 
L 209.63235 141.793654 
L 211.779999 143.022691 
L 212.807318 143.719865 
L 214.63953 145.32439 
L 219.446087 149.644077 
L 222.718467 152.216455 
L 225.056537 153.736648 
L 227.334201 154.959356 
L 229.555659 155.874897 
L 230.559175 156.164564 
L 231.503084 156.291154 
L 232.373385 156.254666 
L 233.10627 156.105179 
L 233.692738 155.796337 
L 234.125788 155.331865 
L 234.40042 154.765562 
L 234.460827 154.103944 
L 234.305009 153.35539 
L 233.946968 152.530137 
L 232.738028 150.848169 
L 230.184732 148.323077 
L 226.651722 144.824733 
L 224.283248 141.925829 
L 220.437402 136.92628 
L 218.827216 135.060012 
L 215.941081 132.278576 
L 213.655016 130.68671 
L 212.412872 129.960681 
L 209.740363 128.752308 
L 206.948839 127.800093 
L 202.701747 126.653711 
L 198.752289 125.602458 
L 194.948249 124.274197 
L 192.468361 123.236906 
L 186.209836 120.258139 
L 184.051586 119.209492 
L 181.938141 118.481787 
L 180.885819 118.268819 
L 178.670562 118.149303 
L 176.422502 118.228235 
L 174.07323 118.502079 
L 170.204981 119.255846 
L 168.908431 119.623887 
L 166.458547 120.64554 
L 164.303498 121.943271 
L 162.492688 123.397005 
L 161.812409 124.181489 
L 160.804892 125.753994 
L 160.542462 126.542759 
L 160.52726 127.395564 
L 160.722483 128.253023 
L 161.12713 129.104898 
L 161.7382 130.004057 
L 163.482603 131.857293 
L 165.567244 133.730448 
L 168.968038 136.249211 
L 172.189411 138.465276 
L 174.990936 140.656208 
L 176.708935 142.227968 
L 180.148134 145.679958 
L 182.550212 148.58091 
L 184.611251 151.730574 
L 185.126711 152.852196 
L 185.505754 153.950547 
L 185.748383 154.997705 
L 185.856595 156.050075 
L 185.834393 157.081595 
L 185.634969 158.068064 
L 185.250325 158.987142 
L 184.68846 159.818353 
L 184.011181 160.592225 
L 183.176685 161.306899 
L 182.234775 161.949341 
L 181.199455 162.460168 
L 180.086727 162.880148 
L 178.914591 163.168512 
L 177.70305 163.321537 
L 176.511912 163.33736 
L 175.313373 163.215983 
L 174.134437 162.959267 
L 173.004106 162.53575 
L 171.953384 161.999233 
L 171.000274 161.356231 
L 169.196665 159.601102 
L 165.593247 155.839154 
L 163.668424 154.310025 
L 160.574666 152.520642 
L 156.713418 150.605415 
L 153.995503 149.003869 
L 152.291506 147.670953 
L 150.706922 146.158765 
L 148.26924 143.801962 
L 146.45963 142.241558 
L 143.477884 140.184848 
L 142.31695 139.635672 
L 141.11021 139.258695 
L 139.870666 139.002165 
L 138.572516 138.896797 
L 137.293568 138.922302 
L 136.110631 139.090778 
L 134.957097 139.446718 
L 133.854969 139.934461 
L 132.877056 140.495551 
L 131.966751 141.201289 
L 131.192861 142.036781 
L 130.569389 142.936126 
L 130.055529 143.950147 
L 129.698088 145.009219 
L 129.466261 146.091002 
L 129.416855 147.220443 
L 129.780697 149.449539 
L 130.15214 150.578607 
L 130.712005 151.72443 
L 132.184576 154.045676 
L 133.093081 155.194105 
L 135.15452 157.259751 
L 137.426583 159.081712 
L 140.949391 161.263523 
L 147.560558 164.879893 
L 152.968384 168.311405 
L 156.487592 170.221234 
L 160.218224 171.949928 
L 165.673856 174.183306 
L 168.631399 174.975795 
L 171.648949 175.46 
L 176.098064 175.793043 
L 181.509291 176.110262 
L 183.866965 176.395275 
L 186.060819 176.950594 
L 188.106056 177.721674 
L 189.916066 178.682453 
L 191.659268 179.954307 
L 194.333777 182.316508 
L 196.093781 184.278463 
L 197.621358 186.449662 
L 198.332041 187.543918 
L 198.922309 188.675221 
L 199.757406 190.858335 
L 199.982232 191.896929 
L 200.036438 193.805641 
L 199.859818 194.649697 
L 199.486975 195.4124 
L 199.002518 196.042742 
L 198.365645 196.574977 
L 197.537549 197.045221 
L 196.608841 197.372865 
L 194.426788 197.761569 
L 193.164642 197.789307 
L 191.858891 197.6912 
L 190.484731 197.443234 
L 187.653203 196.633432 
L 184.971893 195.522793 
L 181.309868 193.691897 
L 180.104529 193.227238 
L 178.872386 192.891589 
L 177.608439 192.687742 
L 175.172357 192.646787 
L 167.95172 193.30133 
L 165.341218 193.314734 
L 160.61087 193.110329 
L 157.021054 193.130062 
L 156.406983 193.197266 
L 155.914526 193.382496 
L 155.565685 193.650569 
L 155.417268 193.966298 
L 155.471274 194.413086 
L 155.674898 194.99093 
L 156.608206 196.451924 
L 158.304803 198.22176 
L 160.567265 200.080023 
L 163.075355 201.997484 
L 165.249807 203.880506 
L 166.149912 204.813547 
L 167.438661 206.565511 
L 167.812104 207.38611 
L 168.017128 208.157004 
L 168.091537 208.872609 
L 167.970523 209.578346 
L 167.644085 210.22414 
L 167.119224 210.761774 
L 166.404941 211.242256 
L 165.512238 211.66931 
L 163.298381 212.331486 
L 160.654675 212.703623 
L 157.885754 212.657641 
L 156.517595 212.500521 
L 155.187041 212.209178 
L 152.777562 211.236671 
L 151.649031 210.603723 
L 148.453461 208.330321 
L 143.345069 204.711903 
L 139.477021 201.784702 
L 134.137202 196.958469 
L 131.646113 194.419415 
L 129.318444 191.733852 
L 127.226001 188.896194 
L 124.470682 184.823357 
L 121.632353 180.701 
L 119.161067 177.701569 
L 116.032571 174.495607 
L 113.219416 171.877678 
L 111.236258 170.281277 
L 109.160768 168.829827 
L 106.98767 167.545483 
L 104.711687 166.450395 
L 102.327545 165.566717 
L 103.193735 164.066857 
L 103.193735 164.066857 
" clip-path="url(#p263c89fcf8)" style="fill: none; stroke: #dda0dd; stroke-opacity: 0.3; stroke-width: 1.5; stroke-linecap: square"/>
   </g>
   <g id="line2d_25">
    <path d="M 283.969545 218.426738 
L 281.813853 218.965521 
L 279.984163 219.562273 
L 278.464269 220.211702 
L 277.237969 220.908514 
L 276.289057 221.647417 
L 275.601329 222.423117 
L 275.158581 223.230322 
L 274.944609 224.06374 
L 274.943207 224.918076 
L 275.138172 225.788038 
L 275.5133 226.668333 
L 276.052385 227.553669 
L 277.557612 229.31829 
L 279.929696 231.502008 
L 282.221561 232.953694 
L 284.731252 234.221266 
L 292.0511 237.60177 
L 296.521418 240.113273 
L 311.568962 249.460619 
L 320.630612 254.370997 
L 324.913908 257.05656 
L 333.12206 262.761288 
L 336.15001 264.947194 
L 343.703486 269.593223 
L 348.154802 272.122411 
L 350.348656 273.416604 
L 352.53851 274.714521 
L 355.834691 276.650785 
L 362.276638 280.663306 
L 369.928525 285.217743 
L 372.122379 286.511937 
L 375.439563 288.428654 
L 379.799468 291.042918 
L 381.977521 292.422187 
L 388.828115 296.810196 
L 391.20799 297.98748 
L 393.557863 298.71686 
L 395.624102 299.025888 
L 396.499604 299.021606 
L 397.299496 298.865417 
L 398.009779 298.561043 
L 398.566643 298.162286 
L 398.961089 297.67566 
L 399.223919 297.074359 
L 399.351134 296.36769 
L 399.303929 295.601078 
L 399.121107 294.751438 
L 398.753865 293.880947 
L 397.582729 292.054518 
L 396.798838 291.132089 
L 394.904419 289.361881 
L 393.829894 288.555058 
L 391.445618 287.195708 
L 385.328909 284.228668 
L 381.747094 282.558243 
L 378.285893 280.775562 
L 373.938989 278.149198 
L 369.843115 275.289201 
L 367.866886 273.792464 
L 362.645881 270.311619 
L 359.183279 268.530242 
L 350.769905 264.684521 
L 345.487693 262.476275 
L 344.190342 261.905877 
L 342.9644 261.239978 
L 341.833869 260.499056 
L 340.820752 259.701727 
L 339.171961 258.052151 
L 338.067233 256.483742 
L 337.506968 255.174841 
L 337.429759 254.65843 
L 337.542972 254.196377 
L 337.792801 253.844346 
L 338.175245 253.607921 
L 338.73611 253.44261 
L 339.413589 253.400352 
L 341.120186 253.642361 
L 343.288638 254.220765 
L 346.862852 255.818587 
L 349.369342 257.085788 
L 352.930955 259.152178 
L 355.350435 260.421426 
L 357.80412 261.473796 
L 360.30681 262.73597 
L 364.271269 264.809435 
L 366.880571 265.974246 
L 369.303052 266.792426 
L 371.4413 267.146132 
L 372.345605 267.154137 
L 373.744567 266.841758 
L 374.215221 266.528821 
L 374.539259 266.102139 
L 374.696677 265.582191 
L 374.685476 264.976422 
L 374.521657 264.279248 
L 374.209221 263.499976 
L 373.702362 262.697993 
L 372.181186 261.040971 
L 371.229675 260.179603 
L 368.953212 258.541569 
L 367.707067 257.766021 
L 365.047359 256.470897 
L 358.577409 254.082074 
L 356.07812 253.072149 
L 352.514107 251.314786 
L 347.468922 248.916842 
L 345.003436 248.045979 
L 343.684084 247.800991 
L 339.399387 247.534966 
L 331.858913 247.378963 
L 330.316935 247.025443 
L 329.247811 246.35098 
L 328.817361 245.924299 
L 328.196289 244.788156 
L 327.932858 244.116672 
L 327.268581 241.382893 
L 326.48389 239.167759 
L 325.482374 237.108256 
L 324.907508 236.325634 
L 324.257632 235.740901 
L 323.473942 235.319804 
L 321.506714 234.892564 
L 319.174643 234.737864 
L 315.554624 234.878602 
L 313.367571 235.058806 
L 310.368223 234.969635 
L 307.353874 234.509072 
L 305.258231 233.919127 
L 303.060976 233.029089 
L 300.810916 231.704179 
L 297.992922 229.787382 
L 292.408157 226.23293 
L 284.374876 220.772036 
L 283.498368 220.170317 
L 283.969545 218.426738 
L 283.969545 218.426738 
" clip-path="url(#p263c89fcf8)" style="fill: none; stroke: #dda0dd; stroke-opacity: 0.3; stroke-width: 1.5; stroke-linecap: square"/>
   </g>
   <g id="patch_3">
    <path d="M 79.83 406.908 
L 79.83 54.864 
" style="fill: none; stroke: #000000; stroke-width: 0.8; stroke-linejoin: miter; stroke-linecap: square"/>
   </g>
   <g id="patch_4">
    <path d="M 574.776 406.908 
L 574.776 54.864 
" style="fill: none; stroke: #000000; stroke-width: 0.8; stroke-linejoin: miter; stroke-linecap: square"/>
   </g>
   <g id="patch_5">
    <path d="M 79.83 406.908 
L 574.776 406.908 
" style="fill: none; stroke: #000000; stroke-width: 0.8; stroke-linejoin: miter; stroke-linecap: square"/>
   </g>
   <g id="patch_6">
    <path d="M 79.83 54.864 
L 574.776 54.864 
" style="fill: none; stroke: #000000; stroke-width: 0.8; stroke-linejoin: miter; stroke-linecap: square"/>
   </g>
   <g id="text_16">
    <!-- Cutting curvature -->
    <g transform="translate(274.44675 48.864) scale(0.12 -0.12)">
     <defs>
      <path id="DejaVuSans-43" d="M 4122 4306 
L 4122 3641 
Q 3803 3938 3442 4084 
Q 3081 4231 2675 4231 
Q 1875 4231 1450 3742 
Q 1025 3253 1025 2328 
Q 1025 1406 1450 917 
Q 1875 428 2675 428 
Q 3081 428 3442 575 
Q 3803 722 4122 1019 
L 4122 359 
Q 3791 134 3420 21 
Q 3050 -91 2638 -91 
Q 1578 -91 968 557 
Q 359 1206 359 2328 
Q 359 3453 968 4101 
Q 1578 4750 2638 4750 
Q 3056 4750 3426 4639 
Q 3797 4528 4122 4306 
z
" transform="scale(0.015625)"/>
      <path id="DejaVuSans-75" d="M 544 1381 
L 544 3500 
L 1119 3500 
L 1119 1403 
Q 1119 906 1312 657 
Q 1506 409 1894 409 
Q 2359 409 2629 706 
Q 2900 1003 2900 1516 
L 2900 3500 
L 3475 3500 
L 3475 0 
L 2900 0 
L 2900 538 
Q 2691 219 2414 64 
Q 2138 -91 1772 -91 
Q 1169 -91 856 284 
Q 544 659 544 1381 
z
M 1991 3584 
L 1991 3584 
z
" transform="scale(0.015625)"/>
      <path id="DejaVuSans-74" d="M 1172 4494 
L 1172 3500 
L 2356 3500 
L 2356 3053 
L 1172 3053 
L 1172 1153 
Q 1172 725 1289 603 
Q 1406 481 1766 481 
L 2356 481 
L 2356 0 
L 1766 0 
Q 1100 0 847 248 
Q 594 497 594 1153 
L 594 3053 
L 172 3053 
L 172 3500 
L 594 3500 
L 594 4494 
L 1172 4494 
z
" transform="scale(0.015625)"/>
      <path id="DejaVuSans-69" d="M 603 3500 
L 1178 3500 
L 1178 0 
L 603 0 
L 603 3500 
z
M 603 4863 
L 1178 4863 
L 1178 4134 
L 603 4134 
L 603 4863 
z
" transform="scale(0.015625)"/>
      <path id="DejaVuSans-6e" d="M 3513 2113 
L 3513 0 
L 2938 0 
L 2938 2094 
Q 2938 2591 2744 2837 
Q 2550 3084 2163 3084 
Q 1697 3084 1428 2787 
Q 1159 2491 1159 1978 
L 1159 0 
L 581 0 
L 581 3500 
L 1159 3500 
L 1159 2956 
Q 1366 3272 1645 3428 
Q 1925 3584 2291 3584 
Q 2894 3584 3203 3211 
Q 3513 2838 3513 2113 
z
" transform="scale(0.015625)"/>
      <path id="DejaVuSans-67" d="M 2906 1791 
Q 2906 2416 2648 2759 
Q 2391 3103 1925 3103 
Q 1463 3103 1205 2759 
Q 947 2416 947 1791 
Q 947 1169 1205 825 
Q 1463 481 1925 481 
Q 2391 481 2648 825 
Q 2906 1169 2906 1791 
z
M 3481 434 
Q 3481 -459 3084 -895 
Q 2688 -1331 1869 -1331 
Q 1566 -1331 1297 -1286 
Q 1028 -1241 775 -1147 
L 775 -588 
Q 1028 -725 1275 -790 
Q 1522 -856 1778 -856 
Q 2344 -856 2625 -561 
Q 2906 -266 2906 331 
L 2906 616 
Q 2728 306 2450 153 
Q 2172 0 1784 0 
Q 1141 0 747 490 
Q 353 981 353 1791 
Q 353 2603 747 3093 
Q 1141 3584 1784 3584 
Q 2172 3584 2450 3431 
Q 2728 3278 2906 2969 
L 2906 3500 
L 3481 3500 
L 3481 434 
z
" transform="scale(0.015625)"/>
      <path id="DejaVuSans-20" transform="scale(0.015625)"/>
      <path id="DejaVuSans-63" d="M 3122 3366 
L 3122 2828 
Q 2878 2963 2633 3030 
Q 2388 3097 2138 3097 
Q 1578 3097 1268 2742 
Q 959 2388 959 1747 
Q 959 1106 1268 751 
Q 1578 397 2138 397 
Q 2388 397 2633 464 
Q 2878 531 3122 666 
L 3122 134 
Q 2881 22 2623 -34 
Q 2366 -91 2075 -91 
Q 1284 -91 818 406 
Q 353 903 353 1747 
Q 353 2603 823 3093 
Q 1294 3584 2113 3584 
Q 2378 3584 2631 3529 
Q 2884 3475 3122 3366 
z
" transform="scale(0.015625)"/>
      <path id="DejaVuSans-72" d="M 2631 2963 
Q 2534 3019 2420 3045 
Q 2306 3072 2169 3072 
Q 1681 3072 1420 2755 
Q 1159 2438 1159 1844 
L 1159 0 
L 581 0 
L 581 3500 
L 1159 3500 
L 1159 2956 
Q 1341 3275 1631 3429 
Q 1922 3584 2338 3584 
Q 2397 3584 2469 3576 
Q 2541 3569 2628 3553 
L 2631 2963 
z
" transform="scale(0.015625)"/>
      <path id="DejaVuSans-76" d="M 191 3500 
L 800 3500 
L 1894 563 
L 2988 3500 
L 3597 3500 
L 2284 0 
L 1503 0 
L 191 3500 
z
" transform="scale(0.015625)"/>
      <path id="DejaVuSans-61" d="M 2194 1759 
Q 1497 1759 1228 1600 
Q 959 1441 959 1056 
Q 959 750 1161 570 
Q 1363 391 1709 391 
Q 2188 391 2477 730 
Q 2766 1069 2766 1631 
L 2766 1759 
L 2194 1759 
z
M 3341 1997 
L 3341 0 
L 2766 0 
L 2766 531 
Q 2569 213 2275 61 
Q 1981 -91 1556 -91 
Q 1019 -91 701 211 
Q 384 513 384 1019 
Q 384 1609 779 1909 
Q 1175 2209 1959 2209 
L 2766 2209 
L 2766 2266 
Q 2766 2663 2505 2880 
Q 2244 3097 1772 3097 
Q 1472 3097 1187 3025 
Q 903 2953 641 2809 
L 641 3341 
Q 956 3463 1253 3523 
Q 1550 3584 1831 3584 
Q 2591 3584 2966 3190 
Q 3341 2797 3341 1997 
z
" transform="scale(0.015625)"/>
      <path id="DejaVuSans-65" d="M 3597 1894 
L 3597 1613 
L 953 1613 
Q 991 1019 1311 708 
Q 1631 397 2203 397 
Q 2534 397 2845 478 
Q 3156 559 3463 722 
L 3463 178 
Q 3153 47 2828 -22 
Q 2503 -91 2169 -91 
Q 1331 -91 842 396 
Q 353 884 353 1716 
Q 353 2575 817 3079 
Q 1281 3584 2069 3584 
Q 2775 3584 3186 3129 
Q 3597 2675 3597 1894 
z
M 3022 2063 
Q 3016 2534 2758 2815 
Q 2500 3097 2075 3097 
Q 1594 3097 1305 2825 
Q 1016 2553 972 2059 
L 3022 2063 
z
" transform="scale(0.015625)"/>
     </defs>
     <use xlink:href="#DejaVuSans-43"/>
     <use xlink:href="#DejaVuSans-75" x="69.824219"/>
     <use xlink:href="#DejaVuSans-74" x="133.203125"/>
     <use xlink:href="#DejaVuSans-74" x="172.412109"/>
     <use xlink:href="#DejaVuSans-69" x="211.621094"/>
     <use xlink:href="#DejaVuSans-6e" x="239.404297"/>
     <use xlink:href="#DejaVuSans-67" x="302.783203"/>
     <use xlink:href="#DejaVuSans-20" x="366.259766"/>
     <use xlink:href="#DejaVuSans-63" x="398.046875"/>
     <use xlink:href="#DejaVuSans-75" x="453.027344"/>
     <use xlink:href="#DejaVuSans-72" x="516.40625"/>
     <use xlink:href="#DejaVuSans-76" x="557.519531"/>
     <use xlink:href="#DejaVuSans-61" x="616.699219"/>
     <use xlink:href="#DejaVuSans-74" x="677.978516"/>
     <use xlink:href="#DejaVuSans-75" x="717.1875"/>
     <use xlink:href="#DejaVuSans-72" x="780.566406"/>
     <use xlink:href="#DejaVuSans-65" x="819.429688"/>
    </g>
   </g>
  </g>
 </g>
 <defs>
  <clipPath id="p263c89fcf8">
   <rect x="79.83" y="54.864" width="494.946" height="352.044"/>
  </clipPath>
 </defs>
</svg>
