<?xml version="1.0" encoding="utf-8" standalone="no"?>
<!DOCTYPE svg PUBLIC "-//W3C//DTD SVG 1.1//EN"
  "http://www.w3.org/Graphics/SVG/1.1/DTD/svg11.dtd">
<svg xmlns:xlink="http://www.w3.org/1999/xlink" width="648.72pt" height="408.24pt" viewBox="0 0 648.72 408.24" xmlns="http://www.w3.org/2000/svg" version="1.1">
 <metadata>
  <rdf:RDF xmlns:dc="http://purl.org/dc/elements/1.1/" xmlns:cc="http://creativecommons.org/ns#" xmlns:rdf="http://www.w3.org/1999/02/22-rdf-syntax-ns#">
   <cc:Work>
    <dc:type rdf:resource="http://purl.org/dc/dcmitype/StillImage"/>
    <dc:date>2023-06-17T19:20:13.678402</dc:date>
    <dc:format>image/svg+xml</dc:format>
    <dc:creator>
     <cc:Agent>
      <dc:title>Matplotlib v3.7.1, https://matplotlib.org/</dc:title>
     </cc:Agent>
    </dc:creator>
   </cc:Work>
  </rdf:RDF>
 </metadata>
 <defs>
  <style type="text/css">*{stroke-linejoin: round; stroke-linecap: butt}</style>
 </defs>
 <g id="figure_1">
  <g id="patch_1">
   <path d="M 0 408.24 
L 648.72 408.24 
L 648.72 0 
L 0 0 
z
" style="fill: #ffffff"/>
  </g>
  <g id="axes_1">
   <g id="patch_2">
    <path d="M 81.09 363.3336 
L 583.848 363.3336 
L 583.848 48.9888 
L 81.09 48.9888 
z
" style="fill: #ffffff"/>
   </g>
   <g id="PathCollection_1">
    <defs>
     <path id="C0_0_71619a95f3" d="M 0 0.5 
C 0.132602 0.5 0.25979 0.447317 0.353553 0.353553 
C 0.447317 0.25979 0.5 0.132602 0.5 -0 
C 0.5 -0.132602 0.447317 -0.25979 0.353553 -0.353553 
C 0.25979 -0.447317 0.132602 -0.5 0 -0.5 
C -0.132602 -0.5 -0.25979 -0.447317 -0.353553 -0.353553 
C -0.447317 -0.25979 -0.5 -0.132602 -0.5 0 
C -0.5 0.132602 -0.447317 0.25979 -0.353553 0.353553 
C -0.25979 0.447317 -0.132602 0.5 0 0.5 
z
"/>
    </defs>
    <g clip-path="url(#pc72ee4942a)">
     <use xlink:href="#C0_0_71619a95f3" x="334.444507" y="219.970088" style="fill: #0b0724; stroke: #0b0724"/>
    </g>
    <g clip-path="url(#pc72ee4942a)">
     <use xlink:href="#C0_0_71619a95f3" x="343.124367" y="226.661015" style="fill: #9a2865; stroke: #9a2865"/>
    </g>
    <g clip-path="url(#pc72ee4942a)">
     <use xlink:href="#C0_0_71619a95f3" x="342.870595" y="226.975348" style="fill: #4c0c6b; stroke: #4c0c6b"/>
    </g>
    <g clip-path="url(#pc72ee4942a)">
     <use xlink:href="#C0_0_71619a95f3" x="343.512848" y="226.449908" style="fill: #b0315b; stroke: #b0315b"/>
    </g>
    <g clip-path="url(#pc72ee4942a)">
     <use xlink:href="#C0_0_71619a95f3" x="344.082565" y="226.302299" style="fill: #5a116e; stroke: #5a116e"/>
    </g>
    <g clip-path="url(#pc72ee4942a)">
     <use xlink:href="#C0_0_71619a95f3" x="344.770737" y="226.264566" style="fill: #0a0722; stroke: #0a0722"/>
    </g>
    <g clip-path="url(#pc72ee4942a)">
     <use xlink:href="#C0_0_71619a95f3" x="380.599339" y="236.600994" style="fill: #310a5c; stroke: #310a5c"/>
    </g>
    <g clip-path="url(#pc72ee4942a)">
     <use xlink:href="#C0_0_71619a95f3" x="380.121662" y="237.987152" style="fill: #2b0b57; stroke: #2b0b57"/>
    </g>
    <g clip-path="url(#pc72ee4942a)">
     <use xlink:href="#C0_0_71619a95f3" x="380.610717" y="237.141893" style="fill: #550f6d; stroke: #550f6d"/>
    </g>
    <g clip-path="url(#pc72ee4942a)">
     <use xlink:href="#C0_0_71619a95f3" x="380.450814" y="237.606162" style="fill: #59106e; stroke: #59106e"/>
    </g>
    <g clip-path="url(#pc72ee4942a)">
     <use xlink:href="#C0_0_71619a95f3" x="398.383097" y="224.247414" style="fill: #02020e; stroke: #02020e"/>
    </g>
    <g clip-path="url(#pc72ee4942a)">
     <use xlink:href="#C0_0_71619a95f3" x="398.482452" y="224.901679" style="fill: #010108; stroke: #010108"/>
    </g>
    <g clip-path="url(#pc72ee4942a)">
     <use xlink:href="#C0_0_71619a95f3" x="402.204511" y="249.765424" style="fill: #02020e; stroke: #02020e"/>
    </g>
    <g clip-path="url(#pc72ee4942a)">
     <use xlink:href="#C0_0_71619a95f3" x="402.841278" y="249.653055" style="fill: #0d0829; stroke: #0d0829"/>
    </g>
    <g clip-path="url(#pc72ee4942a)">
     <use xlink:href="#C0_0_71619a95f3" x="403.503442" y="249.371801" style="fill: #0e092b; stroke: #0e092b"/>
    </g>
    <g clip-path="url(#pc72ee4942a)">
     <use xlink:href="#C0_0_71619a95f3" x="404.19202" y="248.93579" style="fill: #000004; stroke: #000004"/>
    </g>
    <g clip-path="url(#pc72ee4942a)">
     <use xlink:href="#C0_0_71619a95f3" x="417.172394" y="240.110522" style="fill: #02020c; stroke: #02020c"/>
    </g>
    <g clip-path="url(#pc72ee4942a)">
     <use xlink:href="#C0_0_71619a95f3" x="417.795751" y="240.3454" style="fill: #180c3c; stroke: #180c3c"/>
    </g>
    <g clip-path="url(#pc72ee4942a)">
     <use xlink:href="#C0_0_71619a95f3" x="418.185654" y="240.683836" style="fill: #5f136e; stroke: #5f136e"/>
    </g>
    <g clip-path="url(#pc72ee4942a)">
     <use xlink:href="#C0_0_71619a95f3" x="418.348198" y="241.164727" style="fill: #982766; stroke: #982766"/>
    </g>
    <g clip-path="url(#pc72ee4942a)">
     <use xlink:href="#C0_0_71619a95f3" x="418.380504" y="241.781426" style="fill: #3b0964; stroke: #3b0964"/>
    </g>
    <g clip-path="url(#pc72ee4942a)">
     <use xlink:href="#C0_0_71619a95f3" x="418.250265" y="242.481735" style="fill: #000004; stroke: #000004"/>
    </g>
    <g clip-path="url(#pc72ee4942a)">
     <use xlink:href="#C0_0_71619a95f3" x="405.654309" y="264.630678" style="fill: #08051d; stroke: #08051d"/>
    </g>
    <g clip-path="url(#pc72ee4942a)">
     <use xlink:href="#C0_0_71619a95f3" x="405.525086" y="265.261672" style="fill: #1f0c48; stroke: #1f0c48"/>
    </g>
    <g clip-path="url(#pc72ee4942a)">
     <use xlink:href="#C0_0_71619a95f3" x="405.258107" y="265.798581" style="fill: #1b0c41; stroke: #1b0c41"/>
    </g>
    <g clip-path="url(#pc72ee4942a)">
     <use xlink:href="#C0_0_71619a95f3" x="404.857436" y="266.233096" style="fill: #0b0724; stroke: #0b0724"/>
    </g>
    <g clip-path="url(#pc72ee4942a)">
     <use xlink:href="#C0_0_71619a95f3" x="266.300492" y="159.188241" style="fill: #000004; stroke: #000004"/>
    </g>
    <g clip-path="url(#pc72ee4942a)">
     <use xlink:href="#C0_0_71619a95f3" x="266.721684" y="158.478124" style="fill: #09061f; stroke: #09061f"/>
    </g>
    <g clip-path="url(#pc72ee4942a)">
     <use xlink:href="#C0_0_71619a95f3" x="267.870465" y="157.496726" style="fill: #02020e; stroke: #02020e"/>
    </g>
    <g clip-path="url(#pc72ee4942a)">
     <use xlink:href="#C0_0_71619a95f3" x="267.235934" y="157.899658" style="fill: #0a0722; stroke: #0a0722"/>
    </g>
    <g clip-path="url(#pc72ee4942a)">
     <use xlink:href="#C0_0_71619a95f3" x="423.163976" y="262.405079" style="fill: #0c0826; stroke: #0c0826"/>
    </g>
    <g clip-path="url(#pc72ee4942a)">
     <use xlink:href="#C0_0_71619a95f3" x="422.948199" y="262.963598" style="fill: #360961; stroke: #360961"/>
    </g>
    <g clip-path="url(#pc72ee4942a)">
     <use xlink:href="#C0_0_71619a95f3" x="422.609497" y="263.569325" style="fill: #110a30; stroke: #110a30"/>
    </g>
    <g clip-path="url(#pc72ee4942a)">
     <use xlink:href="#C0_0_71619a95f3" x="417.767712" y="271.532379" style="fill: #010005; stroke: #010005"/>
    </g>
    <g clip-path="url(#pc72ee4942a)">
     <use xlink:href="#C0_0_71619a95f3" x="418.08508" y="272.182323" style="fill: #050417; stroke: #050417"/>
    </g>
    <g clip-path="url(#pc72ee4942a)">
     <use xlink:href="#C0_0_71619a95f3" x="418.617005" y="272.79071" style="fill: #010005; stroke: #010005"/>
    </g>
    <g clip-path="url(#pc72ee4942a)">
     <use xlink:href="#C0_0_71619a95f3" x="458.37613" y="259.254432" style="fill: #02020c; stroke: #02020c"/>
    </g>
    <g clip-path="url(#pc72ee4942a)">
     <use xlink:href="#C0_0_71619a95f3" x="459.002535" y="259.708229" style="fill: #040312; stroke: #040312"/>
    </g>
    <g clip-path="url(#pc72ee4942a)">
     <use xlink:href="#C0_0_71619a95f3" x="459.661245" y="260.050987" style="fill: #010005; stroke: #010005"/>
    </g>
    <g clip-path="url(#pc72ee4942a)">
     <use xlink:href="#C0_0_71619a95f3" x="460.39371" y="260.233004" style="fill: #010106; stroke: #010106"/>
    </g>
    <g clip-path="url(#pc72ee4942a)">
     <use xlink:href="#C0_0_71619a95f3" x="461.18977" y="260.294009" style="fill: #02020e; stroke: #02020e"/>
    </g>
    <g clip-path="url(#pc72ee4942a)">
     <use xlink:href="#C0_0_71619a95f3" x="462.002897" y="260.244806" style="fill: #040314; stroke: #040314"/>
    </g>
    <g clip-path="url(#pc72ee4942a)">
     <use xlink:href="#C0_0_71619a95f3" x="462.802818" y="260.05481" style="fill: #010108; stroke: #010108"/>
    </g>
    <g clip-path="url(#pc72ee4942a)">
     <use xlink:href="#C0_0_71619a95f3" x="466.869471" y="250.375972" style="fill: #5d126e; stroke: #5d126e"/>
    </g>
    <g clip-path="url(#pc72ee4942a)">
     <use xlink:href="#C0_0_71619a95f3" x="467.063508" y="249.936803" style="fill: #fac42a; stroke: #fac42a"/>
    </g>
    <g clip-path="url(#pc72ee4942a)">
     <use xlink:href="#C0_0_71619a95f3" x="466.75955" y="250.941639" style="fill: #02020c; stroke: #02020c"/>
    </g>
    <g clip-path="url(#pc72ee4942a)">
     <use xlink:href="#C0_0_71619a95f3" x="467.31342" y="249.642417" style="fill: #fbb81d; stroke: #fbb81d"/>
    </g>
    <g clip-path="url(#pc72ee4942a)">
     <use xlink:href="#C0_0_71619a95f3" x="467.629365" y="249.4978" style="fill: #470b6a; stroke: #470b6a"/>
    </g>
    <g clip-path="url(#pc72ee4942a)">
     <use xlink:href="#C0_0_71619a95f3" x="237.381237" y="139.112635" style="fill: #140b34; stroke: #140b34"/>
    </g>
    <g clip-path="url(#pc72ee4942a)">
     <use xlink:href="#C0_0_71619a95f3" x="237.821122" y="138.697901" style="fill: #3b0964; stroke: #3b0964"/>
    </g>
    <g clip-path="url(#pc72ee4942a)">
     <use xlink:href="#C0_0_71619a95f3" x="236.785512" y="139.388404" style="fill: #02010a; stroke: #02010a"/>
    </g>
    <g clip-path="url(#pc72ee4942a)">
     <use xlink:href="#C0_0_71619a95f3" x="238.100089" y="138.192242" style="fill: #390963; stroke: #390963"/>
    </g>
    <g clip-path="url(#pc72ee4942a)">
     <use xlink:href="#C0_0_71619a95f3" x="238.161449" y="137.601475" style="fill: #230c4c; stroke: #230c4c"/>
    </g>
    <g clip-path="url(#pc72ee4942a)">
     <use xlink:href="#C0_0_71619a95f3" x="238.003172" y="136.93308" style="fill: #0c0826; stroke: #0c0826"/>
    </g>
    <g clip-path="url(#pc72ee4942a)">
     <use xlink:href="#C0_0_71619a95f3" x="246.426415" y="128.825908" style="fill: #08051d; stroke: #08051d"/>
    </g>
    <g clip-path="url(#pc72ee4942a)">
     <use xlink:href="#C0_0_71619a95f3" x="246.147855" y="128.329392" style="fill: #932667; stroke: #932667"/>
    </g>
    <g clip-path="url(#pc72ee4942a)">
     <use xlink:href="#C0_0_71619a95f3" x="246.040373" y="127.908009" style="fill: #fcffa4; stroke: #fcffa4"/>
    </g>
    <g clip-path="url(#pc72ee4942a)">
     <use xlink:href="#C0_0_71619a95f3" x="202.143483" y="175.049188" style="fill: #010108; stroke: #010108"/>
    </g>
    <g clip-path="url(#pc72ee4942a)">
     <use xlink:href="#C0_0_71619a95f3" x="246.650523" y="127.229641" style="fill: #10092d; stroke: #10092d"/>
    </g>
    <g clip-path="url(#pc72ee4942a)">
     <use xlink:href="#C0_0_71619a95f3" x="246.064551" y="127.601488" style="fill: #f9c932; stroke: #f9c932"/>
    </g>
    <g clip-path="url(#pc72ee4942a)">
     <use xlink:href="#C0_0_71619a95f3" x="246.269967" y="127.373426" style="fill: #982766; stroke: #982766"/>
    </g>
    <g clip-path="url(#pc72ee4942a)">
     <use xlink:href="#C0_0_71619a95f3" x="201.496557" y="175.524428" style="fill: #02010a; stroke: #02010a"/>
    </g>
    <g clip-path="url(#pc72ee4942a)">
     <use xlink:href="#C0_0_71619a95f3" x="170.621692" y="187.135311" style="fill: #02020c; stroke: #02020c"/>
    </g>
    <g clip-path="url(#pc72ee4942a)">
     <use xlink:href="#C0_0_71619a95f3" x="170.744616" y="186.505148" style="fill: #000004; stroke: #000004"/>
    </g>
    <g clip-path="url(#pc72ee4942a)">
     <use xlink:href="#C0_0_71619a95f3" x="170.290102" y="187.711948" style="fill: #09061f; stroke: #09061f"/>
    </g>
    <g clip-path="url(#pc72ee4942a)">
     <use xlink:href="#C0_0_71619a95f3" x="169.756957" y="188.192009" style="fill: #0e092b; stroke: #0e092b"/>
    </g>
    <g clip-path="url(#pc72ee4942a)">
     <use xlink:href="#C0_0_71619a95f3" x="169.0314" y="188.621038" style="fill: #040314; stroke: #040314"/>
    </g>
    <g clip-path="url(#pc72ee4942a)">
     <use xlink:href="#C0_0_71619a95f3" x="158.131999" y="174.110012" style="fill: #390963; stroke: #390963"/>
    </g>
    <g clip-path="url(#pc72ee4942a)">
     <use xlink:href="#C0_0_71619a95f3" x="158.375409" y="172.67382" style="fill: #02020c; stroke: #02020c"/>
    </g>
    <g clip-path="url(#pc72ee4942a)">
     <use xlink:href="#C0_0_71619a95f3" x="157.925161" y="173.594046" style="fill: #ea632a; stroke: #ea632a"/>
    </g>
    <g clip-path="url(#pc72ee4942a)">
     <use xlink:href="#C0_0_71619a95f3" x="158.021062" y="172.913185" style="fill: #5d126e; stroke: #5d126e"/>
    </g>
    <g clip-path="url(#pc72ee4942a)">
     <use xlink:href="#C0_0_71619a95f3" x="157.870303" y="173.195104" style="fill: #e05536; stroke: #e05536"/>
    </g>
    <g clip-path="url(#pc72ee4942a)">
     <use xlink:href="#C0_0_71619a95f3" x="163.259252" y="114.518841" style="fill: #010108; stroke: #010108"/>
    </g>
    <g clip-path="url(#pc72ee4942a)">
     <use xlink:href="#C0_0_71619a95f3" x="508.006157" y="331.467305" style="fill: #0d0829; stroke: #0d0829"/>
    </g>
    <g clip-path="url(#pc72ee4942a)">
     <use xlink:href="#C0_0_71619a95f3" x="508.585424" y="331.898495" style="fill: #2b0b57; stroke: #2b0b57"/>
    </g>
    <g clip-path="url(#pc72ee4942a)">
     <use xlink:href="#C0_0_71619a95f3" x="508.954196" y="332.365424" style="fill: #3d0965; stroke: #3d0965"/>
    </g>
    <g clip-path="url(#pc72ee4942a)">
     <use xlink:href="#C0_0_71619a95f3" x="509.117553" y="332.873078" style="fill: #140b34; stroke: #140b34"/>
    </g>
    <g clip-path="url(#pc72ee4942a)">
     <use xlink:href="#C0_0_71619a95f3" x="134.708973" y="116.603148" style="fill: #010106; stroke: #010106"/>
    </g>
    <g clip-path="url(#pc72ee4942a)">
     <use xlink:href="#C0_0_71619a95f3" x="133.286102" y="116.837028" style="fill: #0a0722; stroke: #0a0722"/>
    </g>
    <g clip-path="url(#pc72ee4942a)">
     <use xlink:href="#C0_0_71619a95f3" x="526.436638" y="340.314515" style="fill: #010005; stroke: #010005"/>
    </g>
    <g clip-path="url(#pc72ee4942a)">
     <use xlink:href="#C0_0_71619a95f3" x="526.954951" y="339.85972" style="fill: #340a5f; stroke: #340a5f"/>
    </g>
    <g clip-path="url(#pc72ee4942a)">
     <use xlink:href="#C0_0_71619a95f3" x="527.404385" y="339.537076" style="fill: #5c126e; stroke: #5c126e"/>
    </g>
    <g clip-path="url(#pc72ee4942a)">
     <use xlink:href="#C0_0_71619a95f3" x="527.890189" y="339.320151" style="fill: #360961; stroke: #360961"/>
    </g>
    <g clip-path="url(#pc72ee4942a)">
     <use xlink:href="#C0_0_71619a95f3" x="104.822498" y="146.497493" style="fill: #380962; stroke: #380962"/>
    </g>
   </g>
   <g id="PathCollection_2">
    <defs>
     <path id="C1_0_93cd1f1a78" d="M 0 0.5 
C 0.132602 0.5 0.25979 0.447317 0.353553 0.353553 
C 0.447317 0.25979 0.5 0.132602 0.5 -0 
C 0.5 -0.132602 0.447317 -0.25979 0.353553 -0.353553 
C 0.25979 -0.447317 0.132602 -0.5 0 -0.5 
C -0.132602 -0.5 -0.25979 -0.447317 -0.353553 -0.353553 
C -0.447317 -0.25979 -0.5 -0.132602 -0.5 0 
C -0.5 0.132602 -0.447317 0.25979 -0.353553 0.353553 
C -0.25979 0.447317 -0.132602 0.5 0 0.5 
z
"/>
    </defs>
    <g clip-path="url(#pc72ee4942a)">
     <use xlink:href="#C1_0_93cd1f1a78" x="404.857436" y="266.233096" style="fill: #02020e; stroke: #02020e"/>
    </g>
    <g clip-path="url(#pc72ee4942a)">
     <use xlink:href="#C1_0_93cd1f1a78" x="405.258107" y="265.798581" style="fill: #290b55; stroke: #290b55"/>
    </g>
    <g clip-path="url(#pc72ee4942a)">
     <use xlink:href="#C1_0_93cd1f1a78" x="405.525086" y="265.261672" style="fill: #320a5e; stroke: #320a5e"/>
    </g>
    <g clip-path="url(#pc72ee4942a)">
     <use xlink:href="#C1_0_93cd1f1a78" x="405.654309" y="264.630678" style="fill: #000004; stroke: #000004"/>
    </g>
    <g clip-path="url(#pc72ee4942a)">
     <use xlink:href="#C1_0_93cd1f1a78" x="342.870595" y="226.975348" style="fill: #952667; stroke: #952667"/>
    </g>
    <g clip-path="url(#pc72ee4942a)">
     <use xlink:href="#C1_0_93cd1f1a78" x="343.124367" y="226.661015" style="fill: #fac42a; stroke: #fac42a"/>
    </g>
    <g clip-path="url(#pc72ee4942a)">
     <use xlink:href="#C1_0_93cd1f1a78" x="343.512848" y="226.449908" style="fill: #fcffa4; stroke: #fcffa4"/>
    </g>
    <g clip-path="url(#pc72ee4942a)">
     <use xlink:href="#C1_0_93cd1f1a78" x="344.082565" y="226.302299" style="fill: #b73557; stroke: #b73557"/>
    </g>
    <g clip-path="url(#pc72ee4942a)">
     <use xlink:href="#C1_0_93cd1f1a78" x="344.770737" y="226.264566" style="fill: #02010a; stroke: #02010a"/>
    </g>
    <g clip-path="url(#pc72ee4942a)">
     <use xlink:href="#C1_0_93cd1f1a78" x="380.121662" y="237.987152" style="fill: #4f0d6c; stroke: #4f0d6c"/>
    </g>
    <g clip-path="url(#pc72ee4942a)">
     <use xlink:href="#C1_0_93cd1f1a78" x="380.450814" y="237.606162" style="fill: #b43359; stroke: #b43359"/>
    </g>
    <g clip-path="url(#pc72ee4942a)">
     <use xlink:href="#C1_0_93cd1f1a78" x="380.610717" y="237.141893" style="fill: #b0315b; stroke: #b0315b"/>
    </g>
    <g clip-path="url(#pc72ee4942a)">
     <use xlink:href="#C1_0_93cd1f1a78" x="380.599339" y="236.600994" style="fill: #5d126e; stroke: #5d126e"/>
    </g>
    <g clip-path="url(#pc72ee4942a)">
     <use xlink:href="#C1_0_93cd1f1a78" x="334.444507" y="219.970088" style="fill: #040312; stroke: #040312"/>
    </g>
   </g>
   <g id="matplotlib.axis_1">
    <g id="xtick_1">
     <g id="line2d_1">
      <defs>
       <path id="ma0d37f8d41" d="M 0 0 
L 0 3.5 
" style="stroke: #000000; stroke-width: 0.8"/>
      </defs>
      <g>
       <use xlink:href="#ma0d37f8d41" x="104.581812" y="363.3336" style="stroke: #000000; stroke-width: 0.8"/>
      </g>
     </g>
     <g id="text_1">
      <!-- 0 -->
      <g transform="translate(101.400562 377.932038) scale(0.1 -0.1)">
       <defs>
        <path id="DejaVuSans-30" d="M 2034 4250 
Q 1547 4250 1301 3770 
Q 1056 3291 1056 2328 
Q 1056 1369 1301 889 
Q 1547 409 2034 409 
Q 2525 409 2770 889 
Q 3016 1369 3016 2328 
Q 3016 3291 2770 3770 
Q 2525 4250 2034 4250 
z
M 2034 4750 
Q 2819 4750 3233 4129 
Q 3647 3509 3647 2328 
Q 3647 1150 3233 529 
Q 2819 -91 2034 -91 
Q 1250 -91 836 529 
Q 422 1150 422 2328 
Q 422 3509 836 4129 
Q 1250 4750 2034 4750 
z
" transform="scale(0.015625)"/>
       </defs>
       <use xlink:href="#DejaVuSans-30"/>
      </g>
     </g>
    </g>
    <g id="xtick_2">
     <g id="line2d_2">
      <g>
       <use xlink:href="#ma0d37f8d41" x="195.606564" y="363.3336" style="stroke: #000000; stroke-width: 0.8"/>
      </g>
     </g>
     <g id="text_2">
      <!-- 50 -->
      <g transform="translate(189.244064 377.932038) scale(0.1 -0.1)">
       <defs>
        <path id="DejaVuSans-35" d="M 691 4666 
L 3169 4666 
L 3169 4134 
L 1269 4134 
L 1269 2991 
Q 1406 3038 1543 3061 
Q 1681 3084 1819 3084 
Q 2600 3084 3056 2656 
Q 3513 2228 3513 1497 
Q 3513 744 3044 326 
Q 2575 -91 1722 -91 
Q 1428 -91 1123 -41 
Q 819 9 494 109 
L 494 744 
Q 775 591 1075 516 
Q 1375 441 1709 441 
Q 2250 441 2565 725 
Q 2881 1009 2881 1497 
Q 2881 1984 2565 2268 
Q 2250 2553 1709 2553 
Q 1456 2553 1204 2497 
Q 953 2441 691 2322 
L 691 4666 
z
" transform="scale(0.015625)"/>
       </defs>
       <use xlink:href="#DejaVuSans-35"/>
       <use xlink:href="#DejaVuSans-30" x="63.623047"/>
      </g>
     </g>
    </g>
    <g id="xtick_3">
     <g id="line2d_3">
      <g>
       <use xlink:href="#ma0d37f8d41" x="286.631317" y="363.3336" style="stroke: #000000; stroke-width: 0.8"/>
      </g>
     </g>
     <g id="text_3">
      <!-- 100 -->
      <g transform="translate(277.087567 377.932038) scale(0.1 -0.1)">
       <defs>
        <path id="DejaVuSans-31" d="M 794 531 
L 1825 531 
L 1825 4091 
L 703 3866 
L 703 4441 
L 1819 4666 
L 2450 4666 
L 2450 531 
L 3481 531 
L 3481 0 
L 794 0 
L 794 531 
z
" transform="scale(0.015625)"/>
       </defs>
       <use xlink:href="#DejaVuSans-31"/>
       <use xlink:href="#DejaVuSans-30" x="63.623047"/>
       <use xlink:href="#DejaVuSans-30" x="127.246094"/>
      </g>
     </g>
    </g>
    <g id="xtick_4">
     <g id="line2d_4">
      <g>
       <use xlink:href="#ma0d37f8d41" x="377.65607" y="363.3336" style="stroke: #000000; stroke-width: 0.8"/>
      </g>
     </g>
     <g id="text_4">
      <!-- 150 -->
      <g transform="translate(368.11232 377.932038) scale(0.1 -0.1)">
       <use xlink:href="#DejaVuSans-31"/>
       <use xlink:href="#DejaVuSans-35" x="63.623047"/>
       <use xlink:href="#DejaVuSans-30" x="127.246094"/>
      </g>
     </g>
    </g>
    <g id="xtick_5">
     <g id="line2d_5">
      <g>
       <use xlink:href="#ma0d37f8d41" x="468.680823" y="363.3336" style="stroke: #000000; stroke-width: 0.8"/>
      </g>
     </g>
     <g id="text_5">
      <!-- 200 -->
      <g transform="translate(459.137073 377.932038) scale(0.1 -0.1)">
       <defs>
        <path id="DejaVuSans-32" d="M 1228 531 
L 3431 531 
L 3431 0 
L 469 0 
L 469 531 
Q 828 903 1448 1529 
Q 2069 2156 2228 2338 
Q 2531 2678 2651 2914 
Q 2772 3150 2772 3378 
Q 2772 3750 2511 3984 
Q 2250 4219 1831 4219 
Q 1534 4219 1204 4116 
Q 875 4013 500 3803 
L 500 4441 
Q 881 4594 1212 4672 
Q 1544 4750 1819 4750 
Q 2544 4750 2975 4387 
Q 3406 4025 3406 3419 
Q 3406 3131 3298 2873 
Q 3191 2616 2906 2266 
Q 2828 2175 2409 1742 
Q 1991 1309 1228 531 
z
" transform="scale(0.015625)"/>
       </defs>
       <use xlink:href="#DejaVuSans-32"/>
       <use xlink:href="#DejaVuSans-30" x="63.623047"/>
       <use xlink:href="#DejaVuSans-30" x="127.246094"/>
      </g>
     </g>
    </g>
    <g id="xtick_6">
     <g id="line2d_6">
      <g>
       <use xlink:href="#ma0d37f8d41" x="559.705575" y="363.3336" style="stroke: #000000; stroke-width: 0.8"/>
      </g>
     </g>
     <g id="text_6">
      <!-- 250 -->
      <g transform="translate(550.161825 377.932038) scale(0.1 -0.1)">
       <use xlink:href="#DejaVuSans-32"/>
       <use xlink:href="#DejaVuSans-35" x="63.623047"/>
       <use xlink:href="#DejaVuSans-30" x="127.246094"/>
      </g>
     </g>
    </g>
   </g>
   <g id="matplotlib.axis_2">
    <g id="ytick_1">
     <g id="line2d_7">
      <defs>
       <path id="m59e374962a" d="M 0 0 
L -3.5 0 
" style="stroke: #000000; stroke-width: 0.8"/>
      </defs>
      <g>
       <use xlink:href="#m59e374962a" x="81.09" y="360.365187" style="stroke: #000000; stroke-width: 0.8"/>
      </g>
     </g>
     <g id="text_7">
      <!-- 250 -->
      <g transform="translate(55.0025 364.164406) scale(0.1 -0.1)">
       <use xlink:href="#DejaVuSans-32"/>
       <use xlink:href="#DejaVuSans-35" x="63.623047"/>
       <use xlink:href="#DejaVuSans-30" x="127.246094"/>
      </g>
     </g>
    </g>
    <g id="ytick_2">
     <g id="line2d_8">
      <g>
       <use xlink:href="#m59e374962a" x="81.09" y="323.130575" style="stroke: #000000; stroke-width: 0.8"/>
      </g>
     </g>
     <g id="text_8">
      <!-- 275 -->
      <g transform="translate(55.0025 326.929794) scale(0.1 -0.1)">
       <defs>
        <path id="DejaVuSans-37" d="M 525 4666 
L 3525 4666 
L 3525 4397 
L 1831 0 
L 1172 0 
L 2766 4134 
L 525 4134 
L 525 4666 
z
" transform="scale(0.015625)"/>
       </defs>
       <use xlink:href="#DejaVuSans-32"/>
       <use xlink:href="#DejaVuSans-37" x="63.623047"/>
       <use xlink:href="#DejaVuSans-35" x="127.246094"/>
      </g>
     </g>
    </g>
    <g id="ytick_3">
     <g id="line2d_9">
      <g>
       <use xlink:href="#m59e374962a" x="81.09" y="285.895963" style="stroke: #000000; stroke-width: 0.8"/>
      </g>
     </g>
     <g id="text_9">
      <!-- 300 -->
      <g transform="translate(55.0025 289.695182) scale(0.1 -0.1)">
       <defs>
        <path id="DejaVuSans-33" d="M 2597 2516 
Q 3050 2419 3304 2112 
Q 3559 1806 3559 1356 
Q 3559 666 3084 287 
Q 2609 -91 1734 -91 
Q 1441 -91 1130 -33 
Q 819 25 488 141 
L 488 750 
Q 750 597 1062 519 
Q 1375 441 1716 441 
Q 2309 441 2620 675 
Q 2931 909 2931 1356 
Q 2931 1769 2642 2001 
Q 2353 2234 1838 2234 
L 1294 2234 
L 1294 2753 
L 1863 2753 
Q 2328 2753 2575 2939 
Q 2822 3125 2822 3475 
Q 2822 3834 2567 4026 
Q 2313 4219 1838 4219 
Q 1578 4219 1281 4162 
Q 984 4106 628 3988 
L 628 4550 
Q 988 4650 1302 4700 
Q 1616 4750 1894 4750 
Q 2613 4750 3031 4423 
Q 3450 4097 3450 3541 
Q 3450 3153 3228 2886 
Q 3006 2619 2597 2516 
z
" transform="scale(0.015625)"/>
       </defs>
       <use xlink:href="#DejaVuSans-33"/>
       <use xlink:href="#DejaVuSans-30" x="63.623047"/>
       <use xlink:href="#DejaVuSans-30" x="127.246094"/>
      </g>
     </g>
    </g>
    <g id="ytick_4">
     <g id="line2d_10">
      <g>
       <use xlink:href="#m59e374962a" x="81.09" y="248.661351" style="stroke: #000000; stroke-width: 0.8"/>
      </g>
     </g>
     <g id="text_10">
      <!-- 325 -->
      <g transform="translate(55.0025 252.46057) scale(0.1 -0.1)">
       <use xlink:href="#DejaVuSans-33"/>
       <use xlink:href="#DejaVuSans-32" x="63.623047"/>
       <use xlink:href="#DejaVuSans-35" x="127.246094"/>
      </g>
     </g>
    </g>
    <g id="ytick_5">
     <g id="line2d_11">
      <g>
       <use xlink:href="#m59e374962a" x="81.09" y="211.426739" style="stroke: #000000; stroke-width: 0.8"/>
      </g>
     </g>
     <g id="text_11">
      <!-- 350 -->
      <g transform="translate(55.0025 215.225958) scale(0.1 -0.1)">
       <use xlink:href="#DejaVuSans-33"/>
       <use xlink:href="#DejaVuSans-35" x="63.623047"/>
       <use xlink:href="#DejaVuSans-30" x="127.246094"/>
      </g>
     </g>
    </g>
    <g id="ytick_6">
     <g id="line2d_12">
      <g>
       <use xlink:href="#m59e374962a" x="81.09" y="174.192127" style="stroke: #000000; stroke-width: 0.8"/>
      </g>
     </g>
     <g id="text_12">
      <!-- 375 -->
      <g transform="translate(55.0025 177.991346) scale(0.1 -0.1)">
       <use xlink:href="#DejaVuSans-33"/>
       <use xlink:href="#DejaVuSans-37" x="63.623047"/>
       <use xlink:href="#DejaVuSans-35" x="127.246094"/>
      </g>
     </g>
    </g>
    <g id="ytick_7">
     <g id="line2d_13">
      <g>
       <use xlink:href="#m59e374962a" x="81.09" y="136.957515" style="stroke: #000000; stroke-width: 0.8"/>
      </g>
     </g>
     <g id="text_13">
      <!-- 400 -->
      <g transform="translate(55.0025 140.756734) scale(0.1 -0.1)">
       <defs>
        <path id="DejaVuSans-34" d="M 2419 4116 
L 825 1625 
L 2419 1625 
L 2419 4116 
z
M 2253 4666 
L 3047 4666 
L 3047 1625 
L 3713 1625 
L 3713 1100 
L 3047 1100 
L 3047 0 
L 2419 0 
L 2419 1100 
L 313 1100 
L 313 1709 
L 2253 4666 
z
" transform="scale(0.015625)"/>
       </defs>
       <use xlink:href="#DejaVuSans-34"/>
       <use xlink:href="#DejaVuSans-30" x="63.623047"/>
       <use xlink:href="#DejaVuSans-30" x="127.246094"/>
      </g>
     </g>
    </g>
    <g id="ytick_8">
     <g id="line2d_14">
      <g>
       <use xlink:href="#m59e374962a" x="81.09" y="99.722904" style="stroke: #000000; stroke-width: 0.8"/>
      </g>
     </g>
     <g id="text_14">
      <!-- 425 -->
      <g transform="translate(55.0025 103.522122) scale(0.1 -0.1)">
       <use xlink:href="#DejaVuSans-34"/>
       <use xlink:href="#DejaVuSans-32" x="63.623047"/>
       <use xlink:href="#DejaVuSans-35" x="127.246094"/>
      </g>
     </g>
    </g>
    <g id="ytick_9">
     <g id="line2d_15">
      <g>
       <use xlink:href="#m59e374962a" x="81.09" y="62.488292" style="stroke: #000000; stroke-width: 0.8"/>
      </g>
     </g>
     <g id="text_15">
      <!-- 450 -->
      <g transform="translate(55.0025 66.28751) scale(0.1 -0.1)">
       <use xlink:href="#DejaVuSans-34"/>
       <use xlink:href="#DejaVuSans-35" x="63.623047"/>
       <use xlink:href="#DejaVuSans-30" x="127.246094"/>
      </g>
     </g>
    </g>
   </g>
   <g id="line2d_16">
    <path d="M 133.286102 116.837028 
L 163.259252 114.518841 
" clip-path="url(#pc72ee4942a)" style="fill: none; stroke: #ff0000; stroke-width: 1.5; stroke-linecap: square"/>
   </g>
   <g id="line2d_17">
    <path d="M 246.650523 127.229641 
L 238.003172 136.93308 
" clip-path="url(#pc72ee4942a)" style="fill: none; stroke: #ff0000; stroke-width: 1.5; stroke-linecap: square"/>
   </g>
   <g id="line2d_18">
    <path d="M 398.383097 224.247414 
L 380.599339 236.600994 
" clip-path="url(#pc72ee4942a)" style="fill: none; stroke: #ff0000; stroke-width: 1.5; stroke-linecap: square"/>
   </g>
   <g id="line2d_19">
    <path d="M 423.163976 262.405079 
L 405.654309 264.630678 
" clip-path="url(#pc72ee4942a)" style="fill: none; stroke: #ff0000; stroke-width: 1.5; stroke-linecap: square"/>
   </g>
   <g id="line2d_20">
    <path d="M 104.822498 146.497493 
L 105.593537 139.73483 
L 106.510551 133.886429 
L 107.561667 128.893881 
L 108.73501 124.698775 
L 110.018706 121.242703 
L 111.400879 118.467254 
L 112.869657 116.314019 
L 114.413164 114.724589 
L 116.019525 113.640553 
L 117.676868 113.003503 
L 119.373316 112.755028 
L 121.096996 112.83672 
L 122.836033 113.190168 
L 127.100076 114.616915 
L 128.674723 115.561244 
L 130.20975 116.96336 
L 131.781958 116.965355 
L 133.286102 116.837028 
L 163.259252 114.518841 
L 163.670286 115.279491 
L 164.291002 116.082362 
L 166.062937 117.737142 
L 168.180481 119.409707 
L 171.634952 121.658744 
L 174.90717 123.637498 
L 177.752912 125.593811 
L 179.498028 126.997257 
L 182.991509 130.079585 
L 185.431501 132.669883 
L 187.52507 135.48226 
L 188.048665 136.483772 
L 188.433692 137.464505 
L 188.68015 138.399526 
L 188.79007 139.339201 
L 188.767517 140.260259 
L 188.564946 141.14109 
L 188.174231 141.961748 
L 187.603497 142.703946 
L 186.915529 143.394948 
L 186.067861 144.033089 
L 185.111085 144.606735 
L 182.929133 145.437865 
L 181.738496 145.695349 
L 180.507834 145.831986 
L 179.297895 145.846115 
L 178.080439 145.737736 
L 176.882895 145.508511 
L 175.734723 145.130347 
L 174.667417 144.651283 
L 173.699263 144.077139 
L 171.867187 142.509961 
L 168.206895 139.150867 
L 166.251691 137.785487 
L 163.109102 136.187723 
L 159.186911 134.477591 
L 156.426097 133.047549 
L 154.695205 131.857371 
L 152.278173 129.786362 
L 149.725822 127.70754 
L 147.802518 126.391862 
L 145.742473 125.172927 
L 144.563215 124.68256 
L 143.337429 124.345953 
L 142.078321 124.116894 
L 140.759681 124.02281 
L 139.460546 124.045583 
L 138.258938 124.196017 
L 137.087198 124.513841 
L 134.974326 125.450358 
L 134.049653 126.080521 
L 133.263549 126.826543 
L 132.630236 127.62958 
L 132.108266 128.535013 
L 131.745183 129.480672 
L 131.509697 130.446611 
L 131.459511 131.455104 
L 131.829096 133.445494 
L 132.206402 134.453654 
L 132.775103 135.476775 
L 134.270916 137.549446 
L 135.193761 138.574894 
L 137.287737 140.419337 
L 139.595661 142.04619 
L 143.174072 143.994358 
L 149.889586 147.223464 
L 155.382767 150.287507 
L 158.95752 151.992819 
L 162.747035 153.536393 
L 168.288776 155.530605 
L 171.293 156.238229 
L 174.358177 156.670583 
L 178.877515 156.967961 
L 185.596077 157.365075 
L 187.900141 157.728611 
L 190.070309 158.322869 
L 192.006617 159.099809 
L 193.8072 160.073394 
L 196.47577 162.043338 
L 198.317598 163.639606 
L 199.996477 165.49984 
L 201.462422 167.460475 
L 202.533182 169.478957 
L 202.910285 170.419962 
L 203.13866 171.347337 
L 203.193721 173.051651 
L 203.014313 173.80532 
L 202.635585 174.486347 
L 202.143483 175.049188 
L 201.496557 175.524428 
L 200.65539 175.944315 
L 199.712025 176.236873 
L 197.495531 176.583953 
L 196.213464 176.60872 
L 194.887103 176.521119 
L 192.056396 175.966922 
L 189.201713 175.108199 
L 186.654849 174.030057 
L 184.17158 172.950087 
L 182.947216 172.535187 
L 181.695625 172.235482 
L 180.411729 172.053464 
L 177.937197 172.016895 
L 170.602593 172.601345 
L 167.950888 172.613313 
L 163.145878 172.430797 
L 159.499402 172.448417 
L 158.875638 172.508425 
L 158.375409 172.67382 
L 158.021062 172.913185 
L 157.870303 173.195104 
L 157.925161 173.594046 
L 158.131999 174.110012 
L 159.080038 175.414553 
L 160.803413 176.994863 
L 163.101585 178.65413 
L 165.649262 180.366258 
L 167.858034 182.047633 
L 169.494651 183.68712 
L 170.081436 184.44511 
L 170.460773 185.177834 
L 170.669033 185.866176 
L 170.744616 186.505148 
L 170.621692 187.135311 
L 170.290102 187.711948 
L 169.756957 188.192009 
L 169.0314 188.621038 
L 168.124607 189.00236 
L 165.875808 189.593626 
L 163.190374 189.925912 
L 160.37775 189.884854 
L 158.987997 189.744559 
L 157.636442 189.484416 
L 155.188933 188.616051 
L 152.923676 187.377502 
L 141.678462 180.176261 
L 136.254362 175.866854 
L 133.723955 173.599698 
L 131.359547 171.201723 
L 129.234078 168.667941 
L 126.43527 165.031249 
L 123.552142 161.350342 
L 121.04185 158.672109 
L 117.863976 155.809463 
L 115.006419 153.471879 
L 112.99196 152.046431 
L 110.883711 150.750413 
L 108.676314 149.603604 
L 106.364409 148.625786 
L 103.942636 147.836737 
L 104.822498 146.497493 
L 104.822498 146.497493 
" clip-path="url(#pc72ee4942a)" style="fill: none; stroke: #008000; stroke-width: 1.5; stroke-linecap: square"/>
   </g>
   <g id="line2d_21">
    <path d="M 133.286102 116.837028 
L 136.091005 116.319899 
L 138.568585 115.599476 
L 140.697508 114.642015 
L 142.668153 113.523148 
L 145.429576 111.520125 
L 151.868358 106.274865 
L 154.01963 104.825043 
L 156.36555 103.527649 
L 159.861063 101.709636 
L 162.019447 100.428366 
L 162.977035 99.76446 
L 164.483617 98.378634 
L 164.997053 97.710572 
L 165.340428 96.972197 
L 165.508661 96.236314 
L 165.498705 95.500432 
L 165.363184 94.762056 
L 165.065728 94.018694 
L 164.610401 93.267851 
L 163.252547 91.834818 
L 161.362768 90.398459 
L 159.232829 88.945478 
L 149.307474 82.851302 
L 142.842075 79.142802 
L 133.495174 74.413009 
L 132.62861 73.741954 
L 131.911994 73.030341 
L 131.367674 72.287311 
L 131.014953 71.521176 
L 130.870085 70.739415 
L 130.892638 69.948678 
L 131.130156 69.154783 
L 131.627135 68.362717 
L 133.137171 66.900926 
L 134.117718 66.175848 
L 135.254309 65.503298 
L 136.537798 64.940457 
L 137.994398 64.456739 
L 141.268647 63.725844 
L 144.757659 63.383252 
L 148.270442 63.2772 
L 153.37819 63.424809 
L 156.801778 63.594193 
L 163.336461 63.636414 
L 167.806426 63.457888 
L 170.477434 63.5159 
L 172.912956 63.795825 
L 175.049599 64.344869 
L 175.993981 64.717714 
L 177.708822 65.742663 
L 179.348893 67.160737 
L 180.855881 68.831972 
L 183.040475 71.57736 
L 184.762022 73.397202 
L 186.748718 75.06129 
L 189.005848 76.53854 
L 191.542553 77.762295 
L 194.132085 78.797883 
L 207.11571 82.899342 
L 212.167787 84.82374 
L 219.731781 87.544526 
L 223.323805 88.921874 
L 226.626703 90.451319 
L 228.409406 91.596782 
L 229.189822 92.217303 
L 229.842437 92.931743 
L 230.937375 94.588517 
L 231.825882 96.557629 
L 234.252058 103.479277 
L 235.406528 105.765549 
L 236.847686 107.878946 
L 237.656952 108.864499 
L 239.586555 110.664228 
L 240.60266 111.491534 
L 242.956909 112.891655 
L 245.45562 114.119733 
L 250.548739 115.995426 
L 254.545905 117.327727 
L 260.082566 118.875623 
L 268.515969 121.08726 
L 270.980342 121.991529 
L 272.056588 122.492367 
L 272.933311 123.075322 
L 273.648912 123.69069 
L 274.244839 124.364072 
L 274.620926 125.121896 
L 274.771076 125.904487 
L 274.783267 126.653003 
L 274.565458 127.427782 
L 274.11968 128.215527 
L 273.542039 128.929301 
L 271.926756 130.315958 
L 270.98339 130.895255 
L 269.936809 131.393767 
L 268.754706 131.791546 
L 267.460448 132.038059 
L 264.701666 132.227058 
L 263.242426 132.203453 
L 261.77262 132.065818 
L 258.802124 131.409891 
L 255.856824 130.370147 
L 248.678059 127.479977 
L 247.159693 127.205704 
L 246.650523 127.229641 
L 246.269967 127.373426 
L 246.064551 127.601488 
L 246.041622 127.912906 
L 238.003172 136.93308 
L 237.639479 136.196201 
L 236.411458 134.694349 
L 233.817862 132.43966 
L 230.229089 129.315943 
L 227.823231 126.727472 
L 223.916685 122.263308 
L 222.281084 120.596893 
L 219.349396 118.113311 
L 217.027249 116.691913 
L 215.765499 116.043632 
L 213.050808 114.964659 
L 210.215224 114.114414 
L 204.530038 112.783276 
L 200.578182 111.784424 
L 195.506193 110.039883 
L 189.148886 107.380102 
L 186.956572 106.443751 
L 184.809769 105.793974 
L 183.740838 105.603811 
L 181.490616 105.497094 
L 179.207074 105.567574 
L 176.820722 105.812092 
L 172.891419 106.485141 
L 170.297416 107.237314 
L 167.963078 108.279883 
L 165.905269 109.524915 
L 165.057398 110.182837 
L 163.804995 111.606396 
L 163.342963 112.287424 
L 163.07639 112.991723 
L 163.060949 113.753205 
L 163.259252 114.518841 
L 133.286102 116.837028 
L 133.286102 116.837028 
" clip-path="url(#pc72ee4942a)" style="fill: none; stroke: #0000ff; stroke-width: 1.5; stroke-linecap: square"/>
   </g>
   <g id="line2d_22">
    <path d="M 246.147855 128.329392 
L 246.836636 129.387586 
L 248.071159 130.759282 
L 250.762282 133.229899 
L 254.969942 136.698037 
L 258.062345 138.967353 
L 260.292248 140.315778 
L 262.804775 141.582586 
L 265.497726 142.597396 
L 268.412347 143.465427 
L 271.430183 144.12468 
L 276.13279 144.925722 
L 286.946247 146.378371 
L 289.827952 146.843305 
L 293.799923 147.746743 
L 297.623369 148.965345 
L 306.417823 152.097541 
L 316.103832 155.950658 
L 327.456935 161.421487 
L 332.033163 163.712911 
L 341.441831 168.061548 
L 351.777204 172.777046 
L 357.630218 175.615188 
L 368.172835 180.154818 
L 370.228409 181.318234 
L 374.263976 183.878446 
L 377.120284 185.903576 
L 381.972228 189.455825 
L 385.278174 191.512372 
L 388.699323 193.275863 
L 392.505702 194.945104 
L 396.407982 196.299181 
L 400.170067 197.574799 
L 405.077277 199.436696 
L 408.589654 200.907961 
L 412.902967 203.108793 
L 416.01833 204.931294 
L 418.914258 206.850705 
L 424.005143 210.307872 
L 428.231292 212.879887 
L 436.855074 217.76427 
L 444.702505 221.936541 
L 451.624856 225.331373 
L 458.874328 228.364665 
L 463.634638 230.368685 
L 466.941193 231.938356 
L 485.76564 241.958955 
L 486.666542 242.659099 
L 487.42481 243.439696 
L 488.028256 244.287448 
L 488.466719 245.221305 
L 488.785712 246.217996 
L 488.941754 247.255911 
L 488.931798 248.315103 
L 488.754828 249.333403 
L 488.41186 250.324774 
L 487.959581 251.273426 
L 487.404086 252.165228 
L 486.700879 252.987714 
L 485.914775 253.686195 
L 485.059995 254.250699 
L 484.100172 254.715965 
L 483.054606 255.030631 
L 481.944633 255.188047 
L 480.793617 255.163445 
L 479.626956 254.975942 
L 477.165427 254.188696 
L 475.86487 253.627185 
L 472.254357 251.585266 
L 469.370823 249.957914 
L 468.075142 249.494642 
L 467.629365 249.4978 
L 467.31342 249.642417 
L 467.063508 249.936803 
L 466.869471 250.375972 
L 466.670964 251.646104 
L 466.347094 255.160121 
L 465.850928 256.969989 
L 465.456555 257.780174 
L 464.915486 258.559275 
L 464.279329 259.232656 
L 463.559258 259.726514 
L 462.802818 260.05481 
L 462.002897 260.244806 
L 460.39371 260.233004 
L 459.661245 260.050987 
L 459.002535 259.708229 
L 458.37613 259.254432 
L 457.833639 258.666491 
L 457.390299 257.954379 
L 457.063382 257.173616 
L 456.730776 255.370064 
L 456.178735 250.302666 
L 455.962348 249.325756 
L 455.203877 247.381079 
L 454.677843 246.429103 
L 453.314707 244.675253 
L 451.461499 243.054384 
L 449.263902 241.535245 
L 430.507723 229.688654 
L 423.998031 225.929787 
L 420.557986 224.152499 
L 410.516006 219.096072 
L 398.790067 212.375058 
L 395.404271 210.519811 
L 391.69806 208.821646 
L 382.004534 204.96321 
L 374.205257 201.178411 
L 372.140945 199.964962 
L 363.653903 194.81711 
L 360.014741 193.094511 
L 345.661885 187.041227 
L 337.545037 183.291169 
L 333.852236 181.688253 
L 330.031432 180.241256 
L 324.745088 178.50486 
L 322.216306 177.690186 
L 318.696818 176.356389 
L 313.802815 174.227866 
L 309.989935 172.813948 
L 302.70511 170.023181 
L 297.651408 168.018496 
L 292.486362 166.208794 
L 287.605566 164.45029 
L 284.121228 162.906549 
L 279.087641 160.434769 
L 274.25703 158.41795 
L 272.193125 157.671762 
L 270.31513 157.227606 
L 269.445519 157.169427 
L 268.612073 157.268498 
L 267.870465 157.496726 
L 267.235934 157.899658 
L 266.721684 158.478124 
L 266.300492 159.188241 
L 265.980483 160.01588 
L 265.805138 160.945249 
L 265.739105 161.990312 
L 265.836022 163.132783 
L 266.416508 165.56899 
L 266.887886 166.807872 
L 268.195757 169.242251 
L 269.798849 171.425795 
L 270.717021 172.446921 
L 272.880281 174.335913 
L 275.251191 175.86569 
L 277.812888 177.051214 
L 281.652791 178.427897 
L 285.432147 179.754546 
L 289.11357 181.130731 
L 293.68411 183.131593 
L 299.102927 185.961091 
L 306.972911 190.284295 
L 309.487876 191.342323 
L 314.665316 193.178954 
L 318.979645 194.449086 
L 325.116501 195.621311 
L 338.312652 197.869517 
L 342.093634 198.932865 
L 345.722636 200.30772 
L 367.341624 209.285583 
L 370.490715 210.928893 
L 378.176415 215.285176 
L 381.985841 216.958573 
L 385.987679 218.310156 
L 390.26442 219.504323 
L 394.259351 220.759163 
L 396.295826 221.793587 
L 397.118706 222.356926 
L 397.731091 222.957667 
L 398.133998 223.600795 
L 398.383097 224.247414 
L 380.599339 236.600994 
L 380.432934 235.978478 
L 380.115567 235.282656 
L 379.600708 234.566555 
L 378.055522 233.086977 
L 377.088994 232.31785 
L 374.776599 230.855228 
L 372.166343 229.55052 
L 369.469531 228.550006 
L 362.934848 226.449243 
L 359.291623 224.961687 
L 354.236701 222.735755 
L 351.70406 221.834977 
L 350.448812 221.483575 
L 349.108635 221.264822 
L 344.756311 221.027285 
L 337.096822 220.887988 
L 335.530505 220.572325 
L 334.444507 219.970088 
L 334.007263 219.589098 
L 333.376388 218.574621 
L 333.1088 217.975044 
L 332.434038 215.534016 
L 331.636962 213.556094 
L 330.619638 211.717136 
L 330.035698 211.018322 
L 329.375566 210.496206 
L 328.579506 210.120203 
L 326.581228 209.738715 
L 324.212349 209.600581 
L 320.535193 209.726248 
L 318.31362 209.887155 
L 315.266932 209.807532 
L 312.205006 209.396289 
L 310.076286 208.869519 
L 307.844351 208.074793 
L 305.558777 206.891763 
L 302.696305 205.180229 
L 297.023393 202.006411 
L 288.863318 197.130306 
L 287.972976 196.593023 
L 288.45159 195.036158 
L 286.261873 195.517244 
L 284.403304 196.050093 
L 282.859421 196.629976 
L 281.613766 197.252169 
L 280.649877 197.911945 
L 279.951294 198.604579 
L 279.501558 199.325343 
L 279.284208 200.069512 
L 279.282784 200.83236 
L 279.480827 201.609161 
L 279.861875 202.395189 
L 280.409469 203.185717 
L 281.938454 204.761371 
L 284.347977 206.711242 
L 286.676017 208.007472 
L 289.225319 209.139304 
L 296.660701 212.157801 
L 301.201576 214.400355 
L 316.486623 222.746726 
L 325.691298 227.131268 
L 330.0422 229.529243 
L 338.379905 234.623071 
L 341.455648 236.574896 
L 349.128343 240.723397 
L 359.238796 245.856288 
L 361.451023 247.025189 
L 367.994646 250.608023 
L 375.767306 254.674741 
L 377.995787 255.830344 
L 381.365329 257.541806 
L 396.179201 265.586477 
L 397.382637 266.07701 
L 399.769599 266.728283 
L 401.868451 267.004218 
L 402.757771 267.000395 
L 403.570289 266.860931 
L 404.291782 266.589152 
L 404.857436 266.233096 
L 405.258107 265.798581 
L 405.525086 265.261672 
L 405.654309 264.630678 
L 423.163976 262.405079 
L 422.609497 263.569325 
L 422.131821 264.223092 
L 419.455937 267.039458 
L 418.292323 268.625087 
L 417.695177 270.160849 
L 417.631378 270.880607 
L 417.767712 271.532379 
L 418.08508 272.182323 
L 418.617005 272.79071 
L 420.32372 273.930853 
L 422.617625 275.047061 
L 426.972996 276.624379 
L 431.375303 278.029653 
L 439.01163 280.404357 
L 447.367417 283.929011 
L 450.856632 285.460285 
L 456.71635 288.169602 
L 465.772704 292.453577 
L 471.12183 295.466089 
L 481.150604 300.86677 
L 483.582062 301.962698 
L 487.282787 303.492642 
L 493.713442 305.821633 
L 503.798497 309.295257 
L 510.597924 312.423463 
L 513.867704 314.322096 
L 517.264065 316.166373 
L 519.563253 317.16938 
L 523.236142 318.385157 
L 525.642813 318.994375 
L 530.163776 320.183389 
L 533.355738 321.221138 
L 535.352797 322.054262 
L 537.258221 323.070235 
L 539.062055 324.227832 
L 541.744035 326.392261 
L 543.487728 328.071143 
L 546.44014 330.441192 
L 548.546713 331.827683 
L 550.811969 333.144358 
L 556.527633 336.093373 
L 558.569595 337.514439 
L 559.389224 338.312822 
L 560.043871 339.111205 
L 560.526424 339.9302 
L 560.831804 340.791251 
L 560.995364 341.673578 
L 560.963464 342.558066 
L 560.738137 343.427262 
L 560.361848 344.233956 
L 559.788067 345.007073 
L 559.079577 345.733314 
L 558.24857 346.369627 
L 557.295045 346.949091 
L 556.183649 347.418679 
L 554.9347 347.770081 
L 552.239108 348.170519 
L 550.80689 348.251804 
L 547.920918 348.058815 
L 545.172702 347.467217 
L 543.863814 347.025056 
L 541.497171 345.849839 
L 535.797558 342.374387 
L 532.26019 340.540582 
L 529.650543 339.473079 
L 528.426585 339.225568 
L 527.890189 339.320151 
L 527.404385 339.537076 
L 526.436638 340.314515 
L 525.227512 341.455656 
L 521.325435 345.557946 
L 519.380594 347.118641 
L 518.329949 347.764762 
L 517.228509 348.280394 
L 515.985249 348.634788 
L 514.652793 348.884958 
L 513.244347 349.026749 
L 510.199894 348.95843 
L 508.682544 348.755634 
L 507.235494 348.397085 
L 505.92681 347.932484 
L 504.808303 347.382608 
L 503.86189 346.69543 
L 503.105856 345.895052 
L 502.556456 345.018875 
L 502.174274 344.073714 
L 501.993647 343.160635 
L 501.993241 342.294598 
L 502.188091 341.448342 
L 502.576978 340.65827 
L 503.670087 339.193653 
L 505.164072 337.774416 
L 507.359638 335.73499 
L 508.477332 334.517883 
L 508.875972 333.929444 
L 509.096829 333.38256 
L 509.117553 332.873078 
L 508.954196 332.365424 
L 508.585424 331.898495 
L 507.250733 331.03545 
L 503.978312 329.592276 
L 494.48187 325.712396 
L 492.125792 324.811618 
L 489.951966 323.879589 
L 476.763739 316.933506 
L 474.734172 315.691631 
L 471.748235 313.487309 
L 469.66259 312.117441 
L 467.492015 310.975136 
L 459.508047 307.44217 
L 456.602773 305.55883 
L 455.286774 304.539034 
L 453.459574 302.770224 
L 450.922259 299.811402 
L 449.470739 298.082652 
L 447.659997 296.464276 
L 445.533106 295.049694 
L 443.129281 293.738337 
L 437.078166 290.966021 
L 429.94085 287.698185 
L 426.243783 285.908929 
L 423.695496 284.952465 
L 421.119577 284.301358 
L 418.47864 283.911392 
L 414.551978 283.758962 
L 401.193486 283.692472 
L 399.289078 283.302173 
L 398.478795 283.000473 
L 397.766038 282.594051 
L 396.641842 281.461055 
L 395.769589 279.950393 
L 394.527955 277.653483 
L 393.186559 275.51 
L 391.590375 273.388292 
L 390.231912 271.939134 
L 388.43783 270.540509 
L 387.368086 269.819753 
L 383.824013 267.906326 
L 380.413429 266.121226 
L 368.235211 259.455898 
L 355.741861 253.41026 
L 351.307045 251.109693 
L 345.549323 248.232322 
L 327.011564 239.650741 
L 321.275379 236.820578 
L 301.695507 227.676323 
L 298.464535 225.911336 
L 287.352607 219.973911 
L 269.099503 211.080491 
L 262.56421 207.60055 
L 257.058228 204.598344 
L 252.402759 202.295449 
L 246.567219 199.633175 
L 244.681706 198.416401 
L 243.156839 197.138123 
L 241.949135 195.683812 
L 241.456626 194.912192 
L 241.096388 194.084719 
L 240.827987 193.16416 
L 240.594126 191.101794 
L 240.691246 189.96165 
L 241.196759 187.532258 
L 242.400805 183.644233 
L 243.273464 180.977803 
L 243.924454 178.341127 
L 244.162581 175.810171 
L 244.160752 174.596389 
L 244.028685 173.464058 
L 243.446574 171.307276 
L 243.04509 170.286981 
L 241.910125 168.389845 
L 241.167501 167.567691 
L 239.342129 166.068665 
L 237.054523 164.748333 
L 234.568003 163.509617 
L 230.619398 161.844199 
L 226.772586 160.441252 
L 221.973875 158.64435 
L 218.548866 157.088641 
L 215.154536 155.422558 
L 213.068282 154.324636 
L 211.267901 153.134458 
L 210.458838 152.459415 
L 209.108705 150.953574 
L 207.927415 149.195735 
L 206.805454 147.265685 
L 205.118042 144.178703 
L 203.728898 142.088578 
L 198.617899 135.126869 
L 197.608296 133.177537 
L 197.241353 132.216585 
L 197.033093 131.285055 
L 196.993676 130.438466 
L 197.132245 129.656207 
L 197.456927 128.916003 
L 197.974833 128.224503 
L 198.600019 127.585863 
L 199.373933 127.001745 
L 200.335991 126.471318 
L 201.394154 126.066558 
L 203.761001 125.490086 
L 205.063386 125.348129 
L 207.779093 125.404812 
L 210.512274 125.840158 
L 212.941091 126.609452 
L 215.122637 127.706875 
L 217.131683 129.033525 
L 222.909723 133.6192 
L 226.233752 135.91611 
L 228.608726 137.273511 
L 230.92234 138.365283 
L 233.17886 139.182782 
L 234.198215 139.44143 
L 235.157023 139.554463 
L 236.785512 139.388404 
L 237.381237 139.112635 
L 237.821122 138.697901 
L 238.100089 138.192242 
L 238.161449 137.601475 
L 238.003172 136.93308 
L 246.041622 127.912906 
L 246.147855 128.329392 
L 246.147855 128.329392 
" clip-path="url(#pc72ee4942a)" style="fill: none; stroke: #ffa500; stroke-width: 1.5; stroke-linecap: square"/>
   </g>
   <g id="line2d_23">
    <path d="M 398.482452 224.901679 
L 398.42292 225.579383 
L 398.212629 226.2516 
L 397.838574 226.994464 
L 397.342408 227.808805 
L 396.751559 228.620154 
L 396.040835 229.459096 
L 395.292319 230.311503 
L 394.497071 231.17488 
L 393.684554 232.089788 
L 392.937866 233.009017 
L 392.210684 233.95983 
L 391.586108 234.93807 
L 391.093599 235.895697 
L 390.724217 236.89056 
L 390.521647 237.874617 
L 390.513316 238.843714 
L 390.710401 239.825112 
L 391.069421 240.80302 
L 391.660066 241.837776 
L 392.444748 242.916915 
L 393.293838 243.986579 
L 394.221356 245.02599 
L 395.163503 246.016031 
L 396.108088 246.926783 
L 397.040888 247.761404 
L 397.94565 248.462711 
L 398.857726 249.019069 
L 399.773053 249.420505 
L 400.686551 249.658707 
L 401.500085 249.770909 
L 402.204511 249.765424 
L 402.841278 249.653055 
L 403.503442 249.371801 
L 404.19202 248.93579 
L 404.854388 248.403867 
L 405.528946 247.729821 
L 406.215696 246.942741 
L 406.953037 246.115601 
L 407.726747 245.246904 
L 408.562021 244.366571 
L 409.486085 243.473107 
L 410.355417 242.682425 
L 414.532654 249.114546 
L 414.206572 249.936637 
L 413.917853 250.89975 
L 413.760185 251.809837 
L 413.793303 252.654431 
L 414.06272 253.464117 
L 414.56234 254.238065 
L 415.234461 254.944027 
L 416.060795 255.624224 
L 416.970433 256.276993 
L 417.969267 256.944556 
L 419.010566 257.63855 
L 420.010212 258.327556 
L 420.93773 259.042993 
L 421.038396 259.132104 
L 423.163976 262.405079 
L 405.654309 264.630678 
L 405.606358 263.946159 
L 405.420651 263.187504 
L 405.047612 262.410232 
L 404.493337 261.62764 
L 403.857992 260.779389 
L 403.061729 259.955739 
L 402.118769 259.173314 
L 401.137408 258.375097 
L 400.045924 257.654674 
L 398.866666 257.031991 
L 398.858635 257.028171 
L 380.599339 236.600994 
L 398.383097 224.247414 
L 398.482452 224.901679 
" clip-path="url(#pc72ee4942a)" style="fill: none; stroke: #ff0000; stroke-width: 1.5; stroke-linecap: square"/>
   </g>
   <g id="patch_3">
    <path d="M 81.09 363.3336 
L 81.09 48.9888 
" style="fill: none; stroke: #000000; stroke-width: 0.8; stroke-linejoin: miter; stroke-linecap: square"/>
   </g>
   <g id="patch_4">
    <path d="M 583.848 363.3336 
L 583.848 48.9888 
" style="fill: none; stroke: #000000; stroke-width: 0.8; stroke-linejoin: miter; stroke-linecap: square"/>
   </g>
   <g id="patch_5">
    <path d="M 81.09 363.3336 
L 583.848 363.3336 
" style="fill: none; stroke: #000000; stroke-width: 0.8; stroke-linejoin: miter; stroke-linecap: square"/>
   </g>
   <g id="patch_6">
    <path d="M 81.09 48.9888 
L 583.848 48.9888 
" style="fill: none; stroke: #000000; stroke-width: 0.8; stroke-linejoin: miter; stroke-linecap: square"/>
   </g>
   <g id="text_16">
    <!-- Cutting curvature -->
    <g transform="translate(279.61275 42.9888) scale(0.12 -0.12)">
     <defs>
      <path id="DejaVuSans-43" d="M 4122 4306 
L 4122 3641 
Q 3803 3938 3442 4084 
Q 3081 4231 2675 4231 
Q 1875 4231 1450 3742 
Q 1025 3253 1025 2328 
Q 1025 1406 1450 917 
Q 1875 428 2675 428 
Q 3081 428 3442 575 
Q 3803 722 4122 1019 
L 4122 359 
Q 3791 134 3420 21 
Q 3050 -91 2638 -91 
Q 1578 -91 968 557 
Q 359 1206 359 2328 
Q 359 3453 968 4101 
Q 1578 4750 2638 4750 
Q 3056 4750 3426 4639 
Q 3797 4528 4122 4306 
z
" transform="scale(0.015625)"/>
      <path id="DejaVuSans-75" d="M 544 1381 
L 544 3500 
L 1119 3500 
L 1119 1403 
Q 1119 906 1312 657 
Q 1506 409 1894 409 
Q 2359 409 2629 706 
Q 2900 1003 2900 1516 
L 2900 3500 
L 3475 3500 
L 3475 0 
L 2900 0 
L 2900 538 
Q 2691 219 2414 64 
Q 2138 -91 1772 -91 
Q 1169 -91 856 284 
Q 544 659 544 1381 
z
M 1991 3584 
L 1991 3584 
z
" transform="scale(0.015625)"/>
      <path id="DejaVuSans-74" d="M 1172 4494 
L 1172 3500 
L 2356 3500 
L 2356 3053 
L 1172 3053 
L 1172 1153 
Q 1172 725 1289 603 
Q 1406 481 1766 481 
L 2356 481 
L 2356 0 
L 1766 0 
Q 1100 0 847 248 
Q 594 497 594 1153 
L 594 3053 
L 172 3053 
L 172 3500 
L 594 3500 
L 594 4494 
L 1172 4494 
z
" transform="scale(0.015625)"/>
      <path id="DejaVuSans-69" d="M 603 3500 
L 1178 3500 
L 1178 0 
L 603 0 
L 603 3500 
z
M 603 4863 
L 1178 4863 
L 1178 4134 
L 603 4134 
L 603 4863 
z
" transform="scale(0.015625)"/>
      <path id="DejaVuSans-6e" d="M 3513 2113 
L 3513 0 
L 2938 0 
L 2938 2094 
Q 2938 2591 2744 2837 
Q 2550 3084 2163 3084 
Q 1697 3084 1428 2787 
Q 1159 2491 1159 1978 
L 1159 0 
L 581 0 
L 581 3500 
L 1159 3500 
L 1159 2956 
Q 1366 3272 1645 3428 
Q 1925 3584 2291 3584 
Q 2894 3584 3203 3211 
Q 3513 2838 3513 2113 
z
" transform="scale(0.015625)"/>
      <path id="DejaVuSans-67" d="M 2906 1791 
Q 2906 2416 2648 2759 
Q 2391 3103 1925 3103 
Q 1463 3103 1205 2759 
Q 947 2416 947 1791 
Q 947 1169 1205 825 
Q 1463 481 1925 481 
Q 2391 481 2648 825 
Q 2906 1169 2906 1791 
z
M 3481 434 
Q 3481 -459 3084 -895 
Q 2688 -1331 1869 -1331 
Q 1566 -1331 1297 -1286 
Q 1028 -1241 775 -1147 
L 775 -588 
Q 1028 -725 1275 -790 
Q 1522 -856 1778 -856 
Q 2344 -856 2625 -561 
Q 2906 -266 2906 331 
L 2906 616 
Q 2728 306 2450 153 
Q 2172 0 1784 0 
Q 1141 0 747 490 
Q 353 981 353 1791 
Q 353 2603 747 3093 
Q 1141 3584 1784 3584 
Q 2172 3584 2450 3431 
Q 2728 3278 2906 2969 
L 2906 3500 
L 3481 3500 
L 3481 434 
z
" transform="scale(0.015625)"/>
      <path id="DejaVuSans-20" transform="scale(0.015625)"/>
      <path id="DejaVuSans-63" d="M 3122 3366 
L 3122 2828 
Q 2878 2963 2633 3030 
Q 2388 3097 2138 3097 
Q 1578 3097 1268 2742 
Q 959 2388 959 1747 
Q 959 1106 1268 751 
Q 1578 397 2138 397 
Q 2388 397 2633 464 
Q 2878 531 3122 666 
L 3122 134 
Q 2881 22 2623 -34 
Q 2366 -91 2075 -91 
Q 1284 -91 818 406 
Q 353 903 353 1747 
Q 353 2603 823 3093 
Q 1294 3584 2113 3584 
Q 2378 3584 2631 3529 
Q 2884 3475 3122 3366 
z
" transform="scale(0.015625)"/>
      <path id="DejaVuSans-72" d="M 2631 2963 
Q 2534 3019 2420 3045 
Q 2306 3072 2169 3072 
Q 1681 3072 1420 2755 
Q 1159 2438 1159 1844 
L 1159 0 
L 581 0 
L 581 3500 
L 1159 3500 
L 1159 2956 
Q 1341 3275 1631 3429 
Q 1922 3584 2338 3584 
Q 2397 3584 2469 3576 
Q 2541 3569 2628 3553 
L 2631 2963 
z
" transform="scale(0.015625)"/>
      <path id="DejaVuSans-76" d="M 191 3500 
L 800 3500 
L 1894 563 
L 2988 3500 
L 3597 3500 
L 2284 0 
L 1503 0 
L 191 3500 
z
" transform="scale(0.015625)"/>
      <path id="DejaVuSans-61" d="M 2194 1759 
Q 1497 1759 1228 1600 
Q 959 1441 959 1056 
Q 959 750 1161 570 
Q 1363 391 1709 391 
Q 2188 391 2477 730 
Q 2766 1069 2766 1631 
L 2766 1759 
L 2194 1759 
z
M 3341 1997 
L 3341 0 
L 2766 0 
L 2766 531 
Q 2569 213 2275 61 
Q 1981 -91 1556 -91 
Q 1019 -91 701 211 
Q 384 513 384 1019 
Q 384 1609 779 1909 
Q 1175 2209 1959 2209 
L 2766 2209 
L 2766 2266 
Q 2766 2663 2505 2880 
Q 2244 3097 1772 3097 
Q 1472 3097 1187 3025 
Q 903 2953 641 2809 
L 641 3341 
Q 956 3463 1253 3523 
Q 1550 3584 1831 3584 
Q 2591 3584 2966 3190 
Q 3341 2797 3341 1997 
z
" transform="scale(0.015625)"/>
      <path id="DejaVuSans-65" d="M 3597 1894 
L 3597 1613 
L 953 1613 
Q 991 1019 1311 708 
Q 1631 397 2203 397 
Q 2534 397 2845 478 
Q 3156 559 3463 722 
L 3463 178 
Q 3153 47 2828 -22 
Q 2503 -91 2169 -91 
Q 1331 -91 842 396 
Q 353 884 353 1716 
Q 353 2575 817 3079 
Q 1281 3584 2069 3584 
Q 2775 3584 3186 3129 
Q 3597 2675 3597 1894 
z
M 3022 2063 
Q 3016 2534 2758 2815 
Q 2500 3097 2075 3097 
Q 1594 3097 1305 2825 
Q 1016 2553 972 2059 
L 3022 2063 
z
" transform="scale(0.015625)"/>
     </defs>
     <use xlink:href="#DejaVuSans-43"/>
     <use xlink:href="#DejaVuSans-75" x="69.824219"/>
     <use xlink:href="#DejaVuSans-74" x="133.203125"/>
     <use xlink:href="#DejaVuSans-74" x="172.412109"/>
     <use xlink:href="#DejaVuSans-69" x="211.621094"/>
     <use xlink:href="#DejaVuSans-6e" x="239.404297"/>
     <use xlink:href="#DejaVuSans-67" x="302.783203"/>
     <use xlink:href="#DejaVuSans-20" x="366.259766"/>
     <use xlink:href="#DejaVuSans-63" x="398.046875"/>
     <use xlink:href="#DejaVuSans-75" x="453.027344"/>
     <use xlink:href="#DejaVuSans-72" x="516.40625"/>
     <use xlink:href="#DejaVuSans-76" x="557.519531"/>
     <use xlink:href="#DejaVuSans-61" x="616.699219"/>
     <use xlink:href="#DejaVuSans-74" x="677.978516"/>
     <use xlink:href="#DejaVuSans-75" x="717.1875"/>
     <use xlink:href="#DejaVuSans-72" x="780.566406"/>
     <use xlink:href="#DejaVuSans-65" x="819.429688"/>
    </g>
   </g>
  </g>
 </g>
 <defs>
  <clipPath id="pc72ee4942a">
   <rect x="81.09" y="48.9888" width="502.758" height="314.3448"/>
  </clipPath>
 </defs>
</svg>
